<svg width="24" height="18" viewBox="0 0 24 18" fill="none" xmlns="http://www.w3.org/2000/svg">
<path d="M12 0.0947266C6.5655 0.0947266 1.91898 3.58934 0 8.59473C1.91898 13.6001 6.5655 17.0947 12 17.0947C17.4345 17.0947 22.081 13.6001 24 8.59473C22.081 3.58934 17.4345 0.0947266 12 0.0947266ZM12 14.4568C10.8133 14.4568 9.65327 14.113 8.66658 13.4689C7.67988 12.8247 6.91085 11.9092 6.45672 10.838C6.0026 9.76689 5.88378 8.58822 6.11529 7.45109C6.3468 6.31396 6.91824 5.26944 7.75736 4.44962C8.59647 3.62979 9.66557 3.07149 10.8295 2.8453C11.9933 2.61911 13.1997 2.73519 14.2961 3.17888C15.3925 3.62257 16.3295 4.37392 16.9888 5.33794C17.6481 6.30195 18 7.43532 18 8.59473C17.9982 10.1489 17.3655 11.6389 16.2406 12.7379C15.1158 13.8369 13.5907 14.455 12 14.4568ZM16.8 8.59473C16.8 9.52225 16.5185 10.4289 15.9911 11.2002C15.4636 11.9714 14.714 12.5725 13.8369 12.9274C12.9598 13.2824 11.9947 13.3752 11.0636 13.1943C10.1325 13.0133 9.27718 12.5667 8.60589 11.9108C7.9346 11.255 7.47744 10.4193 7.29223 9.50963C7.10702 8.59993 7.20208 7.657 7.56538 6.80007C7.92868 5.94315 8.54391 5.21073 9.33326 4.69542C10.1226 4.18012 11.0507 3.90507 12 3.90507C13.2726 3.9065 14.4926 4.40104 15.3925 5.28022C16.2924 6.15939 16.7985 7.35139 16.8 8.59473Z" fill="white"/>
</svg>
