<svg width="61" height="29" viewBox="0 0 61 29" fill="none" xmlns="http://www.w3.org/2000/svg">
<path d="M1.48112 21.1277H0.355469V20.26H1.48112V21.1277Z" fill="#D40511"/>
<path d="M1.48112 21.9945H0.355469V21.1277H1.48112V21.9945Z" fill="#C3C3C4"/>
<path d="M1.48112 22.862H0.355469V21.9944H1.48112V22.862Z" fill="#D40511"/>
<path d="M0.672363 0V18.3325H8.42107V21.5181H32.1753V0H0.672363Z" fill="#FFCC00"/>
<path d="M4.30957 5.94043H5.54043L5.46858 6.0414H4.30957V5.94043Z" fill="#D40511"/>
<path d="M14.4516 6.0414H12.9453L13.0206 5.94043H14.4516V6.0414Z" fill="#D40511"/>
<path d="M4.30957 5.75366H5.67986L5.60458 5.85464H4.30957V5.75366Z" fill="#D40511"/>
<path d="M4.30957 5.56604H5.81928L5.74401 5.66701H4.30957V5.56604Z" fill="#D40511"/>
<path d="M14.4518 5.85464H13.085L13.1602 5.75366H14.4518V5.85464Z" fill="#D40511"/>
<path d="M13.3004 5.56604H14.4525V5.66701H13.2251L13.3004 5.56604Z" fill="#D40511"/>
<path d="M5.6377 6.04147L6.28862 5.16577H7.09694C7.18675 5.16577 7.18675 5.19794 7.13971 5.2596C7.09694 5.31768 7.02167 5.42133 6.97548 5.48299C6.95409 5.51516 6.91133 5.56967 7.04733 5.56967H8.12765C8.03784 5.69209 7.74445 6.04505 7.22268 6.04505C6.80013 6.04147 5.6377 6.04147 5.6377 6.04147Z" fill="#D40511"/>
<path d="M9.36434 5.56604L9.01022 6.04142H8.07959L8.43371 5.56604H9.36434Z" fill="#D40511"/>
<path d="M10.7091 5.56604L10.3549 6.04142H9.42432L9.77844 5.56604H10.7091Z" fill="#D40511"/>
<path d="M11.0144 5.56604C11.0144 5.56604 10.9468 5.65987 10.9143 5.70276C10.7962 5.85734 10.8997 6.04142 11.2829 6.04142H12.7781L13.1322 5.56604H11.0144Z" fill="#D40511"/>
<path d="M6.09396 4.62244L5.76807 5.0585H7.53524C7.62505 5.0585 7.62505 5.09067 7.57801 5.15232C7.53524 5.21041 7.45997 5.31406 7.41378 5.37572C7.39239 5.40431 7.34963 5.46239 7.48563 5.46239H8.20841C8.20841 5.46239 8.32645 5.30423 8.4231 5.17377C8.55568 4.99684 8.43422 4.62601 7.96121 4.62601C7.53524 4.62244 6.09396 4.62244 6.09396 4.62244Z" fill="#D40511"/>
<path d="M10.7914 5.45793H8.5127L9.1354 4.62244H10.066L9.71191 5.10139H10.1268L10.4843 4.62244H11.4149L10.7922 5.45793H10.7914Z" fill="#D40511"/>
<path d="M12.7026 4.62244L12.0799 5.45793H11.0928L11.7155 4.62244H12.7026Z" fill="#D40511"/>
<path d="M6.62231 18.3325H36.6198L38.2355 19.1761H60.1208V24.5991H58.4571L57.8267 24.004H6.62231L5.54541 18.3325H6.62231Z" fill="#202020"/>
<path d="M60.395 18.8463H51.6182C51.2908 18.8463 51.0254 19.1236 51.0254 19.4656V22.165C51.0254 22.507 51.2908 22.7843 51.6182 22.7843H60.395C60.7224 22.7843 60.9878 22.507 60.9878 22.165V19.4656C60.9878 19.1236 60.7224 18.8463 60.395 18.8463Z" fill="#7A7A79"/>
<path d="M60.7189 21.9408H53.7178V23.6288H60.7189V21.9408Z" fill="#30302D"/>
<path d="M60.7189 21.9408H53.7178V22.7843H60.7189V21.9408Z" fill="#202020"/>
<path d="M52.2126 11.8666C50.2829 11.7075 48.6372 9.84979 47.3088 8.82129C45.3963 7.34064 41.3025 3.26685 38.378 3.26685H31.9072V18.454L36.7537 19.6416L60.2616 19.9713L58.0256 14.2051C57.6219 12.5171 56.6793 12.2356 52.2126 11.8666Z" fill="#FFCC00"/>
<path d="M34.927 11.5861L34.3086 6.41675H42.4602C43.4943 7.17271 44.5019 8.02875 45.2409 8.65604C45.7704 9.10551 46.2263 9.49242 46.6181 9.79624C46.8969 10.0116 47.21 10.294 47.5419 10.5924C47.8951 10.9105 48.2792 11.2563 48.6932 11.5861H34.9279H34.927Z" fill="#C3C3C4"/>
<path d="M42.3911 6.6446C43.3988 7.38538 44.3799 8.21908 45.1052 8.83475C45.6347 9.28422 46.0914 9.67292 46.4875 9.97852C46.7603 10.1903 47.0717 10.47 47.4044 10.7693C47.614 10.9579 47.8347 11.1571 48.0673 11.3573H35.1206L34.5569 6.6446H42.392M42.5297 6.18799H34.0625L34.7357 11.8139H49.3734C48.7584 11.3841 48.1982 10.881 47.6901 10.4244C47.3531 10.1215 47.0349 9.83466 46.7483 9.61305C46.36 9.31281 45.9058 8.92679 45.3789 8.47911C44.5937 7.8125 43.5852 6.95646 42.5297 6.18888V6.18799Z" fill="#010101"/>
<path d="M46.7474 9.6122C47.034 9.8338 47.3522 10.1206 47.6892 10.4236C48.1964 10.8802 48.7567 11.3833 49.3725 11.8131H51.836C50.1364 11.4896 48.5103 9.7507 47.3086 8.82049C46.5336 8.2209 45.4011 7.19508 44.1326 6.18713H42.5288C43.5843 6.95471 44.5928 7.81076 45.378 8.47736C45.9041 8.92415 46.3591 9.31017 46.7474 9.6113V9.6122Z" fill="#010101"/>
<path d="M13.2488 24.1247C13.2488 23.946 13.1102 23.8021 12.9392 23.8021C12.7681 23.8021 12.6304 23.946 12.6304 24.1247C12.6304 24.3034 12.7681 24.4482 12.9392 24.4482C13.1102 24.4482 13.2488 24.3034 13.2488 24.1247Z" fill="#30302D"/>
<path d="M12.4148 24.2882C12.2523 24.2328 12.0778 24.3266 12.0256 24.4955C11.9726 24.6652 12.0615 24.8475 12.224 24.902C12.3865 24.9574 12.561 24.8645 12.6141 24.6947C12.6671 24.5249 12.5773 24.3427 12.4148 24.2873V24.2882Z" fill="#30302D"/>
<path d="M13.6553 24.9021C13.8178 24.8467 13.9059 24.6644 13.8537 24.4946C13.8007 24.3257 13.6271 24.2319 13.4645 24.2873C13.302 24.3427 13.2122 24.5259 13.2652 24.6957C13.3183 24.8645 13.4936 24.9575 13.6561 24.903L13.6553 24.9021Z" fill="#30302D"/>
<path d="M45.3679 9.56925H45.1831C44.9761 9.56925 44.8076 9.74529 44.8076 9.96153V12.5609C44.8076 12.7772 44.9753 12.9532 45.1831 12.9532H45.3679C45.8657 12.9532 46.2694 12.5314 46.2694 12.0114V10.5102C46.2694 9.99013 45.8657 9.56836 45.3679 9.56836V9.56925Z" fill="#30302D"/>
<path d="M35.8413 13.0685V13.1632C35.8413 13.2696 35.9448 13.3553 36.0723 13.3553H37.6008C37.7282 13.3553 37.8317 13.2696 37.8317 13.1632V13.0685C37.8317 12.8138 37.5837 12.6074 37.2783 12.6074H36.3956C36.0902 12.6074 35.8422 12.8138 35.8422 13.0685H35.8413Z" fill="#30302D"/>
<path d="M14.0006 18.3325H0.672363V20.5825H14.0006V18.3325Z" fill="#202020"/>
<path d="M1.88441 18.3325H0.672363V23.3955H1.88441V18.3325Z" fill="#202020"/>
<path d="M1.88521 22.6923H0V23.3955H1.88521V22.6923Z" fill="#202020"/>
<path d="M30.917 7.38987C30.917 7.38987 28.6649 5.44367 26.269 5.45796C22.8826 5.47852 21.124 7.41757 19.6314 8.49611C18.1388 9.57465 16.1749 11.2456 13.4335 10.1671L12.833 9.80162C12.833 9.80162 16.4409 13.1838 19.4509 13.4519C22.8031 13.7503 24.5839 12.0087 25.9234 11.1482C27.2629 10.2877 28.1303 10.143 30.9179 10.3824C30.9179 9.03851 30.9179 7.38897 30.9179 7.38897L30.917 7.38987Z" fill="#007C39"/>
<path d="M30.9172 10.9784C30.9172 10.9784 28.6762 10.5691 27.6198 10.99C26.5635 11.4109 25.194 12.3616 23.9546 13.1676C22.3885 14.1863 19.393 14.6143 17.0074 13.3812C14.9314 12.308 13.1317 10.9489 12.6177 10.1661C13.0958 12.006 15.7705 15.9145 18.8609 16.481C22.9615 16.481 30.9164 16.481 30.9164 16.481V10.9784H30.9172Z" fill="#007C39"/>
<path d="M7.56805 24.6125C7.80157 22.5528 9.47721 20.956 11.5113 20.956C13.5453 20.956 15.221 22.5537 15.4545 24.6125H17.0779C16.8384 21.6199 14.4392 19.2681 11.5121 19.2681C8.58507 19.2681 6.18579 21.6199 5.94629 24.6125H7.56976H7.56805Z" fill="#202020"/>
<path d="M47.1486 24.6125C47.3821 22.5528 49.0578 20.956 51.0918 20.956C53.1259 20.956 54.8015 22.5537 55.035 24.6125H56.6585C56.419 21.6199 54.0197 19.2681 51.0927 19.2681C48.1656 19.2681 45.7664 21.6199 45.5269 24.6125H47.1503H47.1486Z" fill="#202020"/>
<path d="M50.3177 18.0376C50.6153 18.0376 50.8566 17.7856 50.8566 17.4747C50.8566 17.1638 50.6153 16.9117 50.3177 16.9117C50.0201 16.9117 49.7788 17.1638 49.7788 17.4747C49.7788 17.7856 50.0201 18.0376 50.3177 18.0376Z" fill="#202020"/>
<path d="M52.7749 14.0648C52.7749 14.0648 57.9421 17.254 59.2825 17.4461L58.268 14.8297L52.7758 14.0648H52.7749Z" fill="#C3C3C4"/>
<path d="M10.9592 25.1665C10.8591 25.3104 10.8899 25.5123 11.0276 25.6178C11.1662 25.7223 11.3595 25.6901 11.4596 25.5463C11.5597 25.4024 11.5297 25.1996 11.3912 25.095C11.2534 24.9896 11.0593 25.0227 10.9583 25.1665H10.9592Z" fill="#30302D"/>
<path d="M11.7268 25.5463C11.8277 25.6901 12.021 25.7214 12.1587 25.6177C12.2973 25.5123 12.3272 25.3113 12.2272 25.1665C12.1271 25.0226 11.9329 24.9905 11.7952 25.095C11.6575 25.1996 11.6267 25.4033 11.7268 25.5472V25.5463Z" fill="#30302D"/>
<path d="M15.7404 24.8047C15.7404 23.6082 15.2759 22.5251 14.5249 21.7406C13.7739 20.956 12.7363 20.4708 11.591 20.4708C10.4457 20.4708 9.40983 20.956 8.65883 21.7406C7.90782 22.5251 7.44336 23.6082 7.44336 24.8047C7.44336 26.0011 7.90782 27.0859 8.65883 27.8705C9.40898 28.6559 10.4465 29 11.591 29C12.7355 29 13.7747 28.6551 14.5249 27.8705C15.2759 27.0859 15.7404 26.0011 15.7404 24.8047Z" fill="#30302D"/>
<path d="M14.3519 24.8038C14.3519 23.2132 13.1151 21.922 11.5925 21.922C10.07 21.922 8.83398 23.2132 8.83398 24.8038C8.83398 26.3943 10.07 27.6882 11.5925 27.6882C13.1151 27.6882 14.3519 26.3979 14.3519 24.8038Z" fill="#C3C3C4"/>
<path d="M13.7084 24.8047C13.7084 23.585 12.7598 22.594 11.5914 22.594C10.423 22.594 9.47607 23.585 9.47607 24.8047C9.47607 26.0244 10.4238 27.0172 11.5914 27.0172C12.7589 27.0172 13.7084 26.0271 13.7084 24.8047Z" fill="#C3C3C4"/>
<path d="M12.7208 24.8046C12.7208 24.155 12.2144 23.626 11.5917 23.626C10.969 23.626 10.4644 24.1541 10.4644 24.8046C10.4644 25.4551 10.969 25.9832 11.5917 25.9832C12.2144 25.9832 12.7208 25.456 12.7208 24.8046Z" fill="#7A7A79"/>
<path d="M50.3437 25.1665C50.2436 25.3104 50.2752 25.5123 50.413 25.6178C50.5507 25.7223 50.744 25.6901 50.8441 25.5463C50.9441 25.4024 50.9142 25.1996 50.7765 25.095C50.6388 24.9896 50.4446 25.0227 50.3445 25.1665H50.3437Z" fill="#30302D"/>
<path d="M51.1099 25.5463C51.21 25.6901 51.4041 25.7214 51.5418 25.6177C51.6796 25.5123 51.7104 25.3113 51.6103 25.1665C51.5093 25.0226 51.316 24.9905 51.1783 25.095C51.0406 25.1996 51.0098 25.4033 51.1107 25.5472L51.1099 25.5463Z" fill="#30302D"/>
<path d="M55.1256 24.8047C55.1256 23.6082 54.6603 22.5251 53.9093 21.7406C53.1583 20.956 52.1207 20.4708 50.9754 20.4708C49.8301 20.4708 48.7934 20.956 48.0432 21.7406C47.2931 22.5251 46.8286 23.6082 46.8286 24.8047C46.8286 26.0011 47.2931 27.0859 48.0432 27.8705C48.7942 28.6559 49.8309 29 50.9754 29C52.1199 29 53.1583 28.6551 53.9093 27.8705C54.6603 27.0859 55.1256 26.0011 55.1256 24.8047Z" fill="#30302D"/>
<path d="M53.7351 24.8038C53.7351 23.2132 52.4982 21.922 50.9748 21.922C49.4514 21.922 48.2163 23.2132 48.2163 24.8038C48.2163 26.3943 49.4523 27.6882 50.9748 27.6882C52.4974 27.6882 53.7351 26.3979 53.7351 24.8038Z" fill="#C3C3C4"/>
<path d="M53.0932 24.8047C53.0932 23.585 52.1446 22.594 50.9761 22.594C49.8077 22.594 48.8608 23.585 48.8608 24.8047C48.8608 26.0244 49.8086 27.0172 50.9761 27.0172C52.1437 27.0172 53.0932 26.0271 53.0932 24.8047Z" fill="#C3C3C4"/>
<path d="M52.106 24.8046C52.106 24.155 51.5988 23.626 50.977 23.626C50.3551 23.626 49.8496 24.1541 49.8496 24.8046C49.8496 25.4551 50.3543 25.9832 50.977 25.9832C51.5997 25.9832 52.106 25.456 52.106 24.8046Z" fill="#7A7A79"/>
<path d="M56.4102 16.171V14.5706L52.7749 14.064C52.7749 14.064 54.6327 15.2104 56.4102 16.171Z" fill="#D40511"/>
<path d="M2.49316 1.33496V16.6973H2.64894V1.33496" fill="#DC9A02"/>
<path d="M2.59668 1.50207H31.0545V1.34033H2.59668" fill="#DC9A02"/>
<path d="M16.4951 1.33496V16.6973H16.6509V1.33496" fill="#DC9A02"/>
<path d="M30.8945 1.33496V16.6973H31.0503V1.33496" fill="#DC9A02"/>
<path d="M30.7605 13.3616H30.2062C30.1363 13.3616 30.0796 13.4208 30.0796 13.4938V16.4641C30.0796 16.5371 30.1363 16.5963 30.2062 16.5963H30.7605C30.8304 16.5963 30.887 16.5371 30.887 16.4641V13.4938C30.887 13.4208 30.8304 13.3616 30.7605 13.3616Z" fill="#30302D"/>
<path d="M31.5609 13.7833H30.7534V14.768H31.5609V13.7833Z" fill="#30302D"/>
<path d="M29.5343 16.5364H17.3403V16.6928H29.5343" fill="#FFE580"/>
<path d="M29.5343 2.19006H17.3403V2.34733H29.5343" fill="#FFE580"/>
<path d="M15.7308 2.19006H3.33838V2.34733H15.7308" fill="#FFE580"/>
<path d="M15.7308 16.5364H3.33838V16.6928H15.7308" fill="#FFE580"/>
</svg>
