<svg width="91" height="15" viewBox="0 0 91 15" fill="none" xmlns="http://www.w3.org/2000/svg">
<path d="M6.92 14.3C5.70667 14.3 4.65333 14.0467 3.76 13.54C2.86667 13.02 2.17333 12.2867 1.68 11.34C1.2 10.3933 0.96 9.27333 0.96 7.98V6.82C0.96 5.52667 1.2 4.40667 1.68 3.46C2.17333 2.51333 2.86667 1.78667 3.76 1.28C4.65333 0.76 5.70667 0.5 6.92 0.5C8.77333 0.5 10.3067 1.17333 11.52 2.52L9.76 4.42C8.96 3.54 8.06 3.1 7.06 3.1C6.08667 3.1 5.33333 3.43333 4.8 4.1C4.28 4.75333 4.02 5.7 4.02 6.94V7.86C4.02 9.08667 4.28 10.0333 4.8 10.7C5.32 11.3667 6.06667 11.7 7.04 11.7C7.54667 11.7 8.03333 11.6 8.5 11.4C8.98 11.2 9.44 10.8667 9.88 10.4L11.64 12.3C11.0667 12.9667 10.3733 13.4667 9.56 13.8C8.76 14.1333 7.88 14.3 6.92 14.3ZM14.0684 14V0.799999H22.7484V3.38H17.0884V6.54H22.1484V9.04H17.0884V14H14.0684ZM32.4898 14V3.4H28.6098V0.799999H39.3898V3.4H35.5098V14H32.4898ZM46.7227 14.3C44.8293 14.3 43.3627 13.74 42.3227 12.62C41.296 11.4867 40.7827 9.93333 40.7827 7.96V6.84C40.7827 4.85333 41.296 3.3 42.3227 2.18C43.3627 1.06 44.8293 0.5 46.7227 0.5C48.616 0.5 50.076 1.06 51.1027 2.18C52.1427 3.3 52.6627 4.85333 52.6627 6.84V7.96C52.6627 9.93333 52.1427 11.4867 51.1027 12.62C50.076 13.74 48.616 14.3 46.7227 14.3ZM46.7227 11.7C47.696 11.7 48.4227 11.3733 48.9027 10.72C49.396 10.0533 49.6427 9.09333 49.6427 7.84V6.96C49.6427 5.70667 49.396 4.75333 48.9027 4.1C48.4227 3.43333 47.696 3.1 46.7227 3.1C45.7493 3.1 45.016 3.43333 44.5227 4.1C44.0427 4.75333 43.8027 5.70667 43.8027 6.96V7.84C43.8027 9.09333 44.0427 10.0533 44.5227 10.72C45.016 11.3733 45.7493 11.7 46.7227 11.7ZM60.9313 14.3C59.0379 14.3 57.5713 13.74 56.5312 12.62C55.5046 11.4867 54.9913 9.93333 54.9913 7.96V6.84C54.9913 4.85333 55.5046 3.3 56.5312 2.18C57.5713 1.06 59.0379 0.5 60.9313 0.5C62.8246 0.5 64.2846 1.06 65.3113 2.18C66.3513 3.3 66.8713 4.85333 66.8713 6.84V7.96C66.8713 9.93333 66.3513 11.4867 65.3113 12.62C64.2846 13.74 62.8246 14.3 60.9313 14.3ZM60.9313 11.7C61.9046 11.7 62.6313 11.3733 63.1113 10.72C63.6046 10.0533 63.8513 9.09333 63.8513 7.84V6.96C63.8513 5.70667 63.6046 4.75333 63.1113 4.1C62.6313 3.43333 61.9046 3.1 60.9313 3.1C59.9579 3.1 59.2246 3.43333 58.7313 4.1C58.2513 4.75333 58.0113 5.70667 58.0113 6.96V7.84C58.0113 9.09333 58.2513 10.0533 58.7313 10.72C59.2246 11.3733 59.9579 11.7 60.9313 11.7ZM69.7598 14V0.799999H72.7798V11.4H78.2998V14H69.7598ZM84.6467 14.3C83.6601 14.3 82.7534 14.16 81.9267 13.88C81.1001 13.5867 80.3534 13.1933 79.6867 12.7L81.0867 10.56C82.1801 11.3467 83.3734 11.74 84.6667 11.74C85.3467 11.74 85.9001 11.6267 86.3267 11.4C86.7667 11.1733 86.9867 10.8133 86.9867 10.32C86.9867 9.61333 86.4601 9.12667 85.4067 8.86L83.7267 8.42C82.5934 8.11333 81.7334 7.64667 81.1467 7.02C80.5734 6.38 80.2867 5.55333 80.2867 4.54C80.2867 3.27333 80.7401 2.28667 81.6467 1.58C82.5667 0.859999 83.8201 0.5 85.4067 0.5C86.2734 0.5 87.0801 0.62 87.8267 0.86C88.5867 1.1 89.3001 1.45333 89.9667 1.92L88.6067 4.08C87.6601 3.4 86.6134 3.06 85.4667 3.06C84.8934 3.06 84.3934 3.16 83.9667 3.36C83.5401 3.56 83.3267 3.91333 83.3267 4.42C83.3267 4.78 83.4534 5.06667 83.7067 5.28C83.9734 5.48 84.3667 5.65333 84.8867 5.8L86.5667 6.24C87.6734 6.53333 88.5267 7.00667 89.1267 7.66C89.7401 8.3 90.0467 9.13333 90.0467 10.16C90.0467 11.48 89.5667 12.5 88.6067 13.22C87.6601 13.94 86.3401 14.3 84.6467 14.3Z" fill="white"/>
</svg>
