<svg width="87" height="92" viewBox="0 0 87 92" fill="none" xmlns="http://www.w3.org/2000/svg">
<g filter="url(#filter0_d_915_748)">
<circle cx="33.721" cy="35.721" r="27.6512" fill="#FCCC34"/>
<g filter="url(#filter1_dd_915_748)">
<path d="M10.0085 21.1089C10.1206 20.8886 10.2449 20.6696 10.2859 20.6375C10.3275 20.5993 10.3807 20.5685 10.4113 20.572C10.442 20.5755 10.5802 20.6158 10.7177 20.6622C10.8614 20.7093 11.1365 20.802 11.3346 20.8614C11.5321 20.9269 11.865 21.0569 12.0651 21.1534C12.2721 21.2445 12.4803 21.3787 12.5286 21.4456C12.6149 21.5597 12.6066 21.6324 12.4502 22.2956C12.3507 22.7321 12.2791 23.1964 12.2746 23.4536C12.2722 23.6926 12.2833 23.9761 12.3077 24.0893C12.3266 24.1957 12.3924 24.326 12.4564 24.3639C12.5258 24.4087 12.85 24.4518 14.0216 24.5241L14.368 24.7538C14.5579 24.8859 14.8531 25.1282 15.0198 25.3006C15.1864 25.473 15.3871 25.6186 15.4607 25.627C15.5465 25.6368 15.6522 25.5814 15.7307 25.4922C15.803 25.4023 15.9232 25.2197 15.9957 25.0745C16.0681 24.9294 16.2278 24.7268 16.3513 24.6243C16.4946 24.5118 16.7829 24.379 17.091 24.2915C17.3738 24.2072 17.851 24.053 18.686 23.7556L19.7527 24.2577C20.5954 24.6545 20.9045 24.7756 21.1926 24.8085C21.3949 24.8316 21.8302 24.8261 22.1566 24.7958C22.4829 24.7655 22.8324 24.7502 22.9366 24.7621C23.0408 24.774 23.2171 24.8616 23.3464 24.9806C23.4702 25.0929 23.6946 25.3578 23.8495 25.578C23.9991 25.7914 24.3124 26.2566 24.5462 26.6023C24.7738 26.9473 25.1804 27.4661 25.94 28.2645L26.346 28.2986C26.5673 28.3177 26.9944 28.3848 27.2967 28.4561C27.7196 28.5596 27.9456 28.6468 28.3043 28.8779C28.5595 29.0358 28.9092 29.2905 29.0779 29.4447C29.2473 29.5929 29.5499 29.9342 29.7498 30.1963C30.0686 30.613 30.1141 30.7041 30.0913 30.904C30.0775 31.0251 29.9428 31.3349 29.7959 31.5882C29.649 31.8414 29.5226 32.0785 29.5192 32.1088C29.5089 32.1444 29.5394 32.2031 29.5775 32.2504C29.6156 32.2977 29.8648 32.3998 30.1289 32.479C30.3931 32.5582 30.9201 32.7288 31.2974 32.8516C31.6746 32.9744 32.1416 33.181 32.3328 33.301C32.524 33.421 32.8554 33.6736 33.0765 33.8583C33.2915 34.0424 33.603 34.3049 33.7663 34.4524C33.9303 34.5938 34.2847 34.8613 35.0639 35.3797L36.4854 35.548L37.0277 35.9657C37.3243 36.1959 37.8978 36.6663 38.306 37.0073C38.7142 37.3484 39.1271 37.7575 39.2392 37.9176C39.3452 38.0769 39.4607 38.3171 39.5013 38.4506C39.5427 38.578 39.5655 38.7585 39.5545 38.8555C39.5441 38.9463 39.445 39.162 39.3384 39.3339C39.2319 39.5058 39.0414 39.7602 38.9199 39.8997C38.8046 40.0399 38.5726 40.2773 38.4129 40.4247C38.2526 40.5782 37.8841 40.9779 37.5913 41.3127C37.2978 41.6534 36.9893 42.017 36.9087 42.1244C36.8281 42.2318 36.7141 42.4151 36.658 42.5253C36.587 42.6583 36.475 43.2591 36.3324 44.2368C36.1388 45.5522 36.0866 45.7917 35.9308 46.1236C35.8324 46.3333 35.6451 46.6678 35.5222 46.8746C35.3931 47.0808 35.1787 47.3815 35.0422 47.5438C34.8688 47.7572 34.7474 47.8415 34.5955 47.8671C34.4878 47.8855 34.2119 47.9092 33.9863 47.9265C33.7608 47.9437 33.2055 48.0214 32.755 48.105C32.2985 48.1879 31.7431 48.3209 31.5113 48.3926C31.2796 48.4643 30.9933 48.5789 30.8733 48.6511C30.7601 48.718 30.595 48.8587 30.5151 48.96C30.3922 49.1116 30.358 49.2488 30.284 49.8969C30.2363 50.3148 30.1572 50.7905 30.1079 50.9505C30.0579 51.1166 29.8508 51.5715 29.6437 51.9712C29.4428 52.3717 29.1244 52.9305 28.9434 53.2105C28.7618 53.4965 28.5658 53.7441 28.4949 53.7667C28.4302 53.79 28.0038 53.772 27.5501 53.7203C27.0529 53.6697 26.713 53.6554 26.7027 53.6911C26.6863 53.726 26.691 53.794 26.6977 53.8439C26.7106 53.8944 26.8085 54.016 26.9153 54.1141C27.0221 54.2122 27.1186 54.3459 27.1355 54.4153C27.1463 54.4841 27.1339 54.5931 27.1079 54.6576C27.0819 54.7221 26.8977 54.8668 26.6925 54.9783C26.4872 55.0899 26.2043 55.2294 26.0666 55.2935C25.9234 55.3508 25.6876 55.4036 25.5384 55.405C25.3947 55.4131 25.2107 55.4474 25.1262 55.4807C25.0471 55.5207 24.9768 55.5925 24.9713 55.6409C24.9657 55.6894 25.02 55.8122 25.0887 55.9182C25.158 56.0181 25.2449 56.1814 25.2822 56.29C25.3195 56.3985 25.3629 56.563 25.3695 56.668C25.3795 56.798 25.3248 56.9513 25.1724 57.1978C25.0577 57.3871 24.8829 57.6126 24.7792 57.7051C24.6817 57.7983 24.5513 57.9613 24.483 58.0701C24.4051 58.2084 24.3722 58.3335 24.3951 58.4589C24.4079 58.5646 24.4994 58.8512 24.6019 59.096C24.6982 59.3401 24.8155 59.7278 24.8519 59.9528C24.9181 60.2978 24.9159 60.3712 24.8368 60.4113C24.7837 60.442 24.6358 60.4313 24.5092 60.3984C24.3825 60.3656 24.1225 60.25 23.9306 60.1361C23.7379 60.0282 23.3486 59.7936 23.0587 59.6132C22.7695 59.4269 22.0699 58.9728 21.4969 58.6068C20.8205 58.1676 20.3796 57.8412 20.2381 57.6655C20.1178 57.5229 19.9968 57.3312 19.969 57.2483C19.9358 57.1586 19.8689 56.8197 19.8129 56.4942C19.763 56.1695 19.652 55.7273 19.5706 55.5156C19.4892 55.3038 19.3929 55.0597 19.3596 54.97C19.3264 54.8803 19.256 54.5716 19.2027 54.2772C19.1494 53.9827 19.0979 53.3449 19.0796 52.852C19.0614 52.3591 19.0303 51.7604 19.0137 51.5253C18.9909 51.2896 18.9743 50.6189 18.965 50.0473C18.9618 49.4763 18.9541 48.7821 18.9477 48.5114C18.9475 48.2414 18.9393 47.8233 18.9288 47.5889C18.9244 47.3553 18.9148 46.9492 18.9064 46.6967C18.8979 46.4442 18.8761 46.0368 18.8594 45.8017C18.8367 45.566 18.7947 44.9538 18.7663 44.4413C18.7371 43.9349 18.6971 43.4149 18.6796 43.2963C18.662 43.1778 18.5984 42.919 18.5395 42.7282C18.4805 42.5374 18.2958 42.1973 18.1401 41.9832C17.9783 41.7684 17.7083 41.4676 17.5383 41.3255C17.3689 41.1773 16.9981 40.8896 16.7116 40.679C16.4258 40.4623 16.0054 40.1198 15.7755 39.9034C15.5449 39.693 15.2069 39.3354 15.0213 39.1118C14.8425 38.8828 14.6005 38.5545 14.485 38.3695C14.3688 38.1906 14.0984 37.7303 13.8871 37.3503C13.6697 36.9697 13.2296 36.1464 12.9098 35.5209C12.5838 34.8947 12.243 34.1809 12.1534 33.9314C12.0632 33.688 11.9548 33.332 11.9129 33.1554C11.8323 32.8272 11.833 32.8211 12.0437 32.2807C12.1956 31.8747 12.2518 31.6541 12.2467 31.4265C12.2409 31.2602 12.2496 30.9114 12.2596 30.661C12.2806 30.2585 12.3026 30.1751 12.4555 29.9778C12.5565 29.8543 12.7618 29.6876 12.9146 29.6007C13.0666 29.5199 13.3094 29.3512 13.4411 29.2313C13.5789 29.112 13.7816 28.8591 13.9025 28.6704C14.0173 28.481 14.2265 28.0079 14.3641 27.6187C14.5016 27.2294 14.6312 26.7472 14.654 26.5474C14.6905 26.2816 14.6738 26.1017 14.5829 25.8643C14.5218 25.6917 14.3499 25.4021 14.2085 25.2265C14.0127 24.9833 13.8984 24.8966 13.7635 24.8812C13.6593 24.8693 13.3206 24.9534 12.9968 25.0698C12.6731 25.1863 12.3834 25.2759 12.3527 25.2724C12.3221 25.2689 12.2125 25.1951 12.1105 25.1098C12.0153 25.0192 11.6931 24.5775 11.4036 24.1211C11.1141 23.6647 10.7526 23.1326 10.6078 22.9321C10.4569 22.7308 10.2026 22.4011 10.0463 22.1931C9.86343 21.9452 9.77244 21.763 9.7835 21.6661C9.79317 21.5813 9.88963 21.3347 10.0085 21.1089Z" fill="#D40511"/>
</g>
<g filter="url(#filter2_dd_915_748)">
<path d="M52.21 27.1539C52.5572 27.0351 52.8553 26.929 52.8645 26.9134C52.8739 26.9029 52.9379 26.8894 53.0024 26.886C53.1017 26.8808 53.1339 26.9244 53.2401 27.2404C53.305 27.4329 53.451 27.8423 53.5562 28.1383C53.6664 28.434 53.8087 28.8687 53.8757 29.1013C53.9427 29.334 54.0446 29.7558 54.1045 30.0441C54.1645 30.3324 54.2735 30.8894 54.3442 31.2877C54.4199 31.6857 54.5247 32.1626 54.5747 32.3559C54.6296 32.549 54.7269 32.7901 54.7973 32.897C54.8676 33.0038 55.0415 33.1856 55.1772 33.3041C55.3175 33.4173 55.5591 33.5604 55.7117 33.6227C55.9407 33.7162 56.0661 33.7347 56.4134 33.7114C56.7609 33.6932 56.879 33.6668 57.0771 33.5509C57.2077 33.4787 57.4135 33.3222 57.5316 33.2004C57.6496 33.0786 57.798 32.8698 57.8653 32.7306C57.9645 32.5344 57.9914 32.3822 57.9988 32.0502C58.0013 31.8139 57.969 31.3885 57.9239 31.0994C57.8788 30.8103 57.7931 30.3173 57.7368 30.0037C57.6755 29.6904 57.5823 29.243 57.5302 29.0096C57.4731 28.7764 57.3797 28.4196 57.3192 28.2167C57.2637 28.0136 57.1413 27.6733 57.0508 27.467C56.96 27.2557 56.8485 26.9292 56.8673 26.9081C56.8858 26.882 57.0608 27.0896 57.1957 27.1931C57.3256 27.2968 57.5538 27.4707 57.6989 27.5787C57.8492 27.6914 58.1103 27.8284 58.2828 27.8896C58.5666 27.9853 58.6717 27.9948 59.2575 27.964C59.62 27.9449 60.0506 27.8972 60.2126 27.8535C60.3749 27.8148 60.563 27.7948 60.6333 27.8062C60.7491 27.8303 60.7773 27.8941 61.0482 28.7843C61.2102 29.3085 61.3798 29.8824 61.429 30.0608C61.4782 30.2391 61.5858 30.6756 61.6691 31.028C61.7526 31.3854 61.8474 31.8628 61.8796 32.0973C61.9069 32.332 61.9779 32.7353 62.0314 32.9938C62.0848 33.2523 62.1753 34.0264 62.2266 34.7172C62.2873 35.4928 62.3159 36.3205 62.3114 36.8986C62.3036 37.4115 62.2491 38.3641 62.1938 39.0152C62.1334 39.6666 62.0504 40.4549 62.0117 40.7584C61.9729 41.062 61.9134 41.447 61.8822 41.6094C61.8506 41.7669 61.7953 42.0411 61.7599 42.2189C61.7242 42.3916 61.606 42.8903 61.4894 43.3235C61.3778 43.7565 61.1189 44.6093 60.9167 45.2129C60.7144 45.8165 60.436 46.5798 60.2887 46.9042C60.1465 47.2282 59.9076 47.7031 59.7569 47.9623C59.6112 48.2212 59.4357 48.4817 59.3746 48.5502C59.2947 48.6398 59.2511 48.6622 59.2139 48.6189C59.1826 48.5905 59.1336 48.4172 59.099 48.233C59.0645 48.0489 59.0272 47.7193 59.0106 47.499C58.9807 47.1187 58.9684 47.0741 58.6438 46.4882C58.4568 46.1513 58.251 45.74 58.1874 45.5725C58.1186 45.4003 58.0618 45.1721 58.056 45.0619C58.0502 44.9516 58.1114 44.6017 58.1897 44.291C58.2726 43.9751 58.3475 43.5994 58.3807 43.1906L58.2033 43.1296C58.1068 43.0944 57.8959 43.0603 57.736 43.0486C57.5813 43.0417 57.3249 42.9949 57.1731 42.9476C56.9705 42.8829 56.8471 42.809 56.7198 42.6599C56.6192 42.5446 56.4798 42.3559 56.4037 42.2343C56.3226 42.1129 56.2055 41.9684 56.1378 41.9116C56.075 41.8546 55.9315 41.7767 55.8252 41.7421C55.7235 41.7023 55.5181 41.6779 55.3741 41.6855C55.2351 41.6928 54.9733 41.7317 54.7958 41.7661C54.6187 41.8056 54.2903 41.9033 54.0606 41.9857C53.8312 42.0732 53.5151 42.2154 53.0657 42.4752L51.8216 42.4854C51.1346 42.4864 50.3886 42.5005 50.1552 42.5128C49.9219 42.525 49.6422 42.5096 49.5314 42.4853C49.4154 42.4562 49.2405 42.3498 49.12 42.2356C49.005 42.1311 48.7861 41.8511 48.6397 41.6227C48.488 41.3894 48.2555 41.0399 48.1211 40.851C47.9815 40.6573 47.6482 40.2829 47.3802 40.0156C46.9972 39.6438 46.8267 39.4317 46.6131 39.061C46.3829 38.6611 46.3366 38.5379 46.3302 38.3221C46.3221 38.1668 46.3523 37.9843 46.4105 37.8606C46.4593 37.7475 46.5225 37.5281 46.5543 37.3757C46.5811 37.2235 46.5943 36.9063 46.5769 36.671C46.5596 36.4358 46.509 36.1369 46.457 35.999C46.4101 35.8657 46.2898 35.5655 46.1979 35.3342C46.0896 35.0736 46.0164 34.8161 46.0079 34.6558C46.0003 34.5105 46.0281 34.2829 46.0709 34.15C46.1135 34.0121 46.2518 33.7083 46.3834 33.4652C46.515 33.2221 46.7304 32.8691 46.8649 32.6811C46.9994 32.4931 47.2634 32.1174 47.458 31.8409C47.6708 31.5332 47.915 31.254 48.0921 31.1191C48.2449 30.9955 48.4748 30.8226 48.5994 30.7306C48.8157 30.5836 48.8523 30.5213 49.1353 29.8432C49.2981 29.4376 49.5093 29.0044 49.5971 28.8742C49.6848 28.7439 49.9143 28.3751 50.1068 28.0584C50.3768 27.6071 50.4888 27.4655 50.5918 27.435C50.6702 27.4107 50.8249 27.4177 50.9406 27.4417C51.0849 27.471 51.2257 27.4669 51.3632 27.4296C51.481 27.3982 51.8578 27.2729 52.21 27.1539Z" fill="#D40511"/>
</g>
<g filter="url(#filter3_dd_915_748)">
<path d="M50.5079 20.3198C50.5781 20.2384 50.7185 20.1366 50.8211 20.0959C50.9237 20.0603 51.1451 20.0246 51.6258 20.0195L51.966 20.3351C52.1496 20.5133 52.4034 20.8136 52.5276 21.0121C52.6465 21.2106 52.7977 21.4498 52.8517 21.5465C52.9111 21.6432 53.0839 21.9181 53.2297 22.1573C53.3809 22.3966 53.6185 22.8089 53.7535 23.0735C53.7573 23.0807 53.7609 23.0874 53.7644 23.0939C53.8041 22.6958 53.9631 23.4569 53.7644 23.0939C53.7623 23.1156 53.7604 23.1408 53.7591 23.1699L53.084 23.845C52.8626 23.8959 52.9813 24.3817 52.7599 24.4275C52.5384 24.4733 52.1334 24.514 51.8634 24.5191C51.4098 24.5242 51.3557 24.514 51.1127 24.3715C50.9669 24.29 50.7617 24.1068 50.6591 23.9643C50.5187 23.776 50.4593 23.6436 50.4431 23.4553C50.4323 23.3077 50.4593 23.0939 50.5025 22.9463C50.5511 22.8089 50.6159 22.5645 50.6537 22.4118C50.6915 22.2591 50.7131 21.9741 50.6969 21.7756C50.6807 21.5211 50.6321 21.3429 50.5295 21.1546C50.4431 20.9917 50.3837 20.8034 50.3837 20.6812C50.3837 20.5489 50.4269 20.4267 50.5079 20.3198Z" fill="#D40511"/>
</g>
<g filter="url(#filter4_dd_915_748)">
<path d="M54.0151 21.8796C54.0326 21.8634 54.0677 21.843 54.0934 21.8349C54.119 21.8277 54.1744 21.8206 54.2945 21.8196L54.3796 21.8827C54.4255 21.9183 54.489 21.9784 54.52 22.0181C54.5497 22.0578 54.5875 22.1056 54.601 22.125C54.6159 22.1443 54.6591 22.1993 54.6955 22.2471C54.7333 22.295 54.7927 22.3774 54.8265 22.4304C54.8832 22.5169 54.8886 22.5332 54.8818 22.6472L54.7806 22.6655C54.7252 22.6757 54.6334 22.692 54.5781 22.7012C54.5227 22.7103 54.4214 22.7185 54.3539 22.7195C54.2405 22.7205 54.227 22.7185 54.1663 22.69C54.1298 22.6737 54.0785 22.637 54.0529 22.6085C54.0178 22.5709 54.0029 22.5444 53.9989 22.5067C53.9962 22.4772 54.0029 22.4345 54.0137 22.4049C54.0259 22.3774 54.0421 22.3286 54.0515 22.298C54.061 22.2675 54.0664 22.2105 54.0623 22.1708C54.0583 22.1199 54.0461 22.0843 54.0205 22.0466C53.9989 22.014 53.984 21.9764 53.984 21.9519C53.984 21.9255 53.9948 21.901 54.0151 21.8796Z" fill="#CD1B1A"/>
</g>
<g filter="url(#filter5_dd_915_748)">
<path d="M56.1588 20.3464C56.1685 20.3704 56.1748 20.412 56.1722 20.4388C56.1686 20.4651 56.152 20.5174 56.1005 20.6233L55.9961 20.6643C55.938 20.6856 55.8463 20.7093 55.7905 20.7154C55.7352 20.7204 55.6677 20.7281 55.6412 20.7296C55.6141 20.7324 55.5367 20.741 55.4698 20.7476C55.4023 20.7553 55.2885 20.7635 55.2174 20.765C55.1005 20.7687 55.0808 20.7648 54.9623 20.6983L54.9871 20.5998C55.0005 20.5459 55.0233 20.4567 55.0378 20.4033C55.0522 20.35 55.0879 20.2569 55.1163 20.1971C55.1649 20.0972 55.1729 20.0864 55.2299 20.0483C55.2631 20.025 55.3246 19.9995 55.3662 19.9922C55.4216 19.9814 55.4563 19.9825 55.4982 19.9989C55.5308 20.0123 55.5734 20.0409 55.6001 20.0661C55.624 20.0913 55.669 20.1315 55.6974 20.156C55.7257 20.1805 55.7841 20.2155 55.8281 20.2331C55.8841 20.2566 55.9273 20.2649 55.9787 20.2624C56.0228 20.2608 56.0694 20.2678 56.0954 20.2807C56.1236 20.2948 56.1449 20.3173 56.1588 20.3464Z" fill="#CD1B1A"/>
</g>
<g filter="url(#filter6_dd_915_748)">
<path d="M54.7827 20.2308C54.7955 20.2098 54.8245 20.1796 54.8478 20.164C54.8713 20.1493 54.9244 20.1256 55.0441 20.0878L55.1475 20.1221C55.2038 20.1421 55.2847 20.1801 55.3273 20.2086C55.3686 20.2375 55.4204 20.2716 55.4395 20.286C55.46 20.2999 55.5193 20.3393 55.5697 20.3738C55.6215 20.408 55.7049 20.4687 55.7541 20.5089C55.8361 20.5743 55.8463 20.5882 55.873 20.6993L55.7773 20.7478C55.725 20.7745 55.6381 20.8182 55.5856 20.8439C55.533 20.8696 55.4343 20.9084 55.3672 20.93C55.2543 20.9657 55.2402 20.9679 55.1712 20.9592C55.1301 20.9548 55.0681 20.9355 55.0342 20.9161C54.9881 20.8908 54.9655 20.87 54.9504 20.8353C54.9391 20.8079 54.9333 20.7649 54.9354 20.7334C54.9395 20.7034 54.9413 20.6517 54.9418 20.6196C54.9423 20.5875 54.9309 20.5314 54.9153 20.4947C54.8963 20.4472 54.8737 20.4169 54.8371 20.3887C54.806 20.3642 54.7801 20.3327 54.7729 20.3094C54.7652 20.2841 54.7688 20.2574 54.7827 20.2308Z" fill="#CD1B1A"/>
</g>
<g filter="url(#filter7_dd_915_748)">
<path d="M52.665 20.0796C52.6825 20.0633 52.7176 20.0429 52.7433 20.0348C52.7689 20.0277 52.8243 20.0205 52.9444 20.0195L53.0295 20.0826C53.0754 20.1183 53.1389 20.1783 53.1699 20.218C53.1996 20.2577 53.2374 20.3056 53.2509 20.3249C53.2658 20.3443 53.309 20.3992 53.3454 20.4471C53.3832 20.4949 53.4426 20.5774 53.4764 20.6303C53.5331 20.7169 53.5385 20.7332 53.5317 20.8472L53.4305 20.8655C53.3751 20.8757 53.2833 20.892 53.228 20.9011C53.1726 20.9103 53.0713 20.9184 53.0038 20.9194C52.8904 20.9205 52.8769 20.9184 52.8162 20.8899C52.7797 20.8736 52.7284 20.837 52.7028 20.8085C52.6677 20.7708 52.6528 20.7443 52.6488 20.7067C52.6461 20.6772 52.6528 20.6344 52.6636 20.6049C52.6758 20.5774 52.692 20.5285 52.7014 20.498C52.7109 20.4675 52.7163 20.4104 52.7122 20.3707C52.7082 20.3198 52.696 20.2842 52.6704 20.2465C52.6488 20.214 52.6339 20.1763 52.6339 20.1519C52.6339 20.1254 52.6447 20.101 52.665 20.0796Z" fill="#CD1B1A"/>
</g>
<g filter="url(#filter8_dd_915_748)">
<path d="M16.3004 14.3229C16.419 14.2507 16.5737 14.1763 16.6471 14.1567C16.7209 14.132 16.8299 14.1153 16.8962 14.1206C16.9577 14.1204 17.1842 14.1745 17.3996 14.2378C17.6099 14.3007 17.9655 14.406 18.1852 14.4799C18.4049 14.5539 18.8974 14.7417 19.2795 14.9002C19.6612 15.0638 20.1407 15.2864 20.3419 15.3997C20.543 15.513 20.7476 15.647 20.7948 15.6968C20.8421 15.7466 20.8755 15.8412 20.8651 15.9068C20.8602 15.9677 20.7725 16.165 20.6754 16.3514C20.5737 16.5322 20.4915 16.7248 20.4972 16.7815C20.5028 16.8382 20.5595 16.8989 20.6292 16.925C20.6989 16.951 20.9218 16.9843 21.1252 17.0058C21.3235 17.0269 21.5406 17.07 21.6044 17.1058C21.6631 17.1412 21.7827 17.2479 21.867 17.3466C21.9658 17.4568 22.0137 17.5628 22.0059 17.6593C21.9986 17.7507 21.9406 17.8328 21.8318 17.9109C21.7445 17.9754 21.6076 18.0206 21.5311 18.0144C21.4496 18.0079 21.2579 17.9055 21.0889 17.7744C20.9196 17.6484 20.657 17.4075 20.5011 17.2417C20.3452 17.0758 20.1494 16.8965 20.0712 16.8494C19.9929 16.8022 19.8735 16.7568 19.8124 16.7519C19.7461 16.7465 19.5425 16.7914 19.3533 16.8477C19.1642 16.904 18.8709 17.0438 18.7031 17.1529C18.4705 17.3028 18.3437 17.3488 18.2112 17.3381C18.1144 17.3303 17.7949 17.2228 17.5024 17.097C17.0659 16.9137 16.9457 16.8785 16.8503 16.9168C16.7659 16.9457 16.7249 17.0088 16.7172 17.1053C16.7102 17.1916 16.8055 17.4087 16.977 17.6985C17.126 17.9506 17.2439 18.2054 17.2386 18.2713C17.2337 18.3323 17.1872 18.4 17.1397 18.4167C17.0867 18.4379 16.9149 18.4701 16.7595 18.4882C16.6042 18.5063 16.2842 18.5316 16.0525 18.5436C15.7902 18.5531 15.5666 18.5913 15.4802 18.6457C15.3941 18.6949 15.2352 18.7587 15.1198 18.7903C15.0044 18.8219 14.8144 18.8883 14.4855 19.0253L14.3577 18.8924C14.2819 18.8148 14.1692 18.7495 14.0979 18.7437C14.0164 18.7372 13.9257 18.7809 13.8571 18.8674C13.7899 18.9386 13.7405 19.0419 13.736 19.0978C13.7315 19.1536 13.7796 19.321 13.8348 19.4634C13.8946 19.6112 13.9368 19.7884 13.9302 19.8696C13.9241 19.9457 13.8503 20.0982 13.764 20.2138C13.6782 20.3244 13.5479 20.4774 13.4704 20.5478C13.3925 20.6233 13.2472 20.7086 13.1573 20.7423C13.0623 20.7755 12.9543 20.8434 12.9243 20.8972C12.8766 20.9802 12.898 21.033 13.0463 21.2289C13.1707 21.382 13.2377 21.5271 13.2471 21.6641C13.2624 21.793 13.226 21.9894 13.1583 22.1934C13.0926 22.372 12.9986 22.5841 12.9462 22.6617C12.8828 22.7485 12.7909 22.8075 12.7136 22.8115C12.6466 22.8163 12.5526 22.773 12.5057 22.7181C12.4589 22.6633 12.4025 22.5361 12.3797 22.4372C12.3569 22.3383 12.3041 22.1654 12.2614 22.0598C12.2139 21.9487 12.1328 21.8093 12.0766 21.7434C11.9774 21.6384 11.9171 21.6233 11.4318 21.5995C11.1359 21.5808 10.6977 21.5454 10.4531 21.5257C10.0769 21.4852 10.0017 21.4638 9.98193 21.3907C9.96564 21.3383 9.97259 21.252 9.99238 21.1974C10.0173 21.1432 10.2002 20.8462 10.4043 20.5408C10.6135 20.2358 10.8861 19.8439 11.0129 19.6702C11.1448 19.4969 11.3973 19.1647 11.5808 18.924C11.7588 18.688 12.1516 18.2037 12.452 17.8498C12.7472 17.4955 13.2414 16.9631 13.5478 16.6608C13.8538 16.3636 14.3423 15.9022 14.6297 15.6444C14.9172 15.3866 15.3626 15.0137 15.6201 14.8097C15.8772 14.6107 16.1821 14.39 16.3004 14.3229Z" fill="#D40511"/>
</g>
<g filter="url(#filter9_dd_915_748)">
<path d="M30.5766 8.37254C31.0428 8.32723 31.5633 8.28291 31.7417 8.27637C31.92 8.26983 32.9889 8.28919 34.117 8.31939C35.5965 8.35596 36.3631 8.39428 36.8619 8.45707C37.2422 8.50793 37.8197 8.59658 38.1454 8.65622C38.4711 8.71099 39.0233 8.83338 39.3781 8.92287C39.7329 9.01237 40.2402 9.15349 40.511 9.23657C40.7817 9.31966 41.2689 9.47996 41.5936 9.59334C41.9182 9.70673 42.3609 9.86622 42.5772 9.94832C42.7935 10.0304 43.1473 10.1737 43.3635 10.2655C43.5796 10.3574 43.8399 10.4745 43.938 10.5251C44.0802 10.5961 44.1238 10.6507 44.1221 10.7435C44.1207 10.8216 44.0597 10.9085 43.9542 10.9945C43.8689 11.0614 43.5689 11.2221 43.2944 11.349C42.9849 11.49 42.7309 11.5734 42.622 11.5714C42.528 11.5697 42.2278 11.4763 41.9575 11.3639C41.6874 11.2466 41.3285 11.1082 41.1562 11.0562C40.9889 10.9994 40.8171 10.9182 40.7783 10.8784C40.7394 10.8386 40.489 10.7216 40.2236 10.6191C39.9631 10.5167 39.663 10.4135 39.5595 10.3872C39.461 10.361 39.2939 10.2895 39.1911 10.229C39.0491 10.1434 38.9061 10.1115 38.5402 10.0902C38.1298 10.0632 38.0604 10.0669 37.9748 10.1484C37.884 10.2396 37.884 10.2396 37.972 10.3047C38.0258 10.3399 38.2134 10.3677 38.4212 10.3715C38.6192 10.375 38.8267 10.3983 38.8806 10.4286C38.9345 10.4541 38.9784 10.4939 38.978 10.5135C38.9825 10.538 38.8375 10.6184 38.6677 10.7033C38.493 10.7832 38.3077 10.8971 38.2522 10.9548C38.1967 11.0124 38.0664 11.1029 37.9616 11.1498C37.8617 11.1969 37.6026 11.2899 37.3887 11.3496C37.1797 11.4093 36.9162 11.473 36.807 11.4905C36.6977 11.5081 36.3744 11.5951 36.0857 11.6827C35.7969 11.7752 35.5328 11.873 35.4976 11.9017C35.4624 11.9304 35.4316 11.9933 35.4357 12.0374C35.4349 12.0862 35.483 12.1604 35.5417 12.2006C35.6052 12.2457 35.8018 12.3274 35.984 12.3796C36.235 12.4574 36.3184 12.5029 36.3172 12.5664C36.3163 12.6153 36.1847 12.7741 36.0237 12.9178C35.8627 13.0615 35.5769 13.2615 35.3871 13.3558C35.1923 13.45 34.5446 13.6826 33.9422 13.8721C33.3398 14.0615 32.6574 14.2934 32.423 14.3869C32.1887 14.4804 31.8094 14.6495 31.1504 14.9551L30.8326 15.5602C30.6582 15.8942 30.4677 16.2963 30.4104 16.4565C30.358 16.6168 30.2597 16.8496 30.203 16.9756C30.131 17.1258 30.055 17.2172 29.9805 17.2354C29.9208 17.249 29.758 17.2216 29.6251 17.1752C29.4923 17.1289 29.0701 16.9355 28.6923 16.7479C28.2606 16.5348 27.8871 16.3815 27.6849 16.3387C27.5073 16.3062 27.2909 16.229 27.2027 16.1785C27.1196 16.1233 26.9639 15.9739 26.8623 15.8401C26.7657 15.7113 26.5538 15.3849 26.4003 15.1134C26.1171 14.6196 26.1171 14.6196 26.1898 14.4353C26.247 14.2848 26.2479 14.2311 26.2045 14.1668C26.1707 14.1222 26.0943 13.9693 26.0373 13.8364C25.9804 13.6985 25.8517 13.4226 25.7514 13.2204C25.6511 13.0182 25.5706 12.8164 25.5713 12.7774C25.572 12.7383 25.5201 12.6005 25.4532 12.4674C25.3862 12.3391 25.2825 12.0538 25.2222 11.828C25.1619 11.607 25.0822 11.3563 25.0391 11.2774C25.0009 11.1985 24.9398 11.0215 24.9026 10.8889C24.8704 10.7564 24.8278 10.6432 24.8033 10.633C24.7837 10.6229 24.77 10.5591 24.7712 10.4907C24.7724 10.4223 24.799 10.3251 24.8247 10.2718C24.8504 10.2185 24.8872 10.1019 24.8986 10.0141C24.91 9.93128 24.9367 9.82426 24.9523 9.78545C24.9728 9.74673 25.0583 9.6701 25.1485 9.61309C25.2336 9.56088 25.4332 9.47166 25.5826 9.42061C25.7322 9.36469 26.17 9.24068 26.553 9.14012C26.9361 9.03467 27.6172 8.8711 28.0695 8.77179C28.5218 8.67248 29.0782 8.5604 29.3115 8.52554C29.5449 8.48579 30.1104 8.42273 30.5766 8.37254Z" fill="#D40511"/>
</g>
<path d="M50.3837 20.2444C51.0587 20.2444 51.1164 19.9487 51.7338 19.7944C52.2557 19.6639 52.4371 19.5651 52.4604 19.496C52.4599 19.4959 52.4594 19.4958 52.4589 19.4957C51.6244 19.3359 52.5173 19.3267 52.4604 19.496C53.0718 19.6124 52.4094 19.0449 53.084 18.1455C53.7591 16.7954 51.7338 17.2454 51.9589 17.0204C52.1839 16.7954 52.4089 16.1203 53.084 16.5703C53.7591 17.0204 53.309 16.7954 54.8842 18.1455C56.4594 19.4957 56.6844 18.8206 57.1345 20.1708C57.5845 21.5209 59.8348 23.0961 57.8096 23.5462C55.7843 23.9962 54.4342 23.5462 53.7591 23.7712C52.5143 24.1861 52.5589 23.2461 52.1839 23.3212L50.3837 20.2444Z" fill="#D40511"/>
<path d="M55.3144 33.8533C55.7757 34.0543 57.5497 33.5103 57.7626 33.2738L58.4013 32.5642L58.5315 30.7546C58.5906 30.4511 58.6569 29.7115 58.4487 29.1816C58.1886 28.5193 57.952 28.3064 57.7037 27.8688C57.4553 27.4312 56.9704 26.7807 56.7339 26.5678C56.4973 26.3549 56.7339 26.5678 56.5092 26.5796C56.2844 26.5914 56.1438 26.3107 55.9191 26.3225C55.6944 26.3343 55.9427 26.7719 55.4815 26.5708C55.0202 26.3698 55.0815 26.3964 54.4631 26.2366C54.0273 26.1239 54.2502 26.4731 53.8007 26.4967L53.1266 26.5322L52.9019 26.544L52.9137 26.7687C52.9255 26.9934 52.7008 27.0053 52.9492 27.4429C53.1975 27.8805 52.961 27.6676 53.2212 28.3299C53.4813 28.9923 53.4932 29.217 53.5286 29.8911C53.5641 30.5653 53.3748 31.2512 53.9306 33.25C54.4865 35.2488 54.8532 33.6522 55.3144 33.8533Z" fill="#CC1C1B"/>
<path d="M33.877 2.00738C42.8236 1.81566 51.0678 5.37088 57.4941 11.5222C57.5786 11.6021 57.6631 11.682 57.7502 11.7643C62.5746 16.3422 65.795 22.373 67.1788 28.8528C67.209 28.9924 67.2393 29.132 67.2704 29.2758C68.0827 33.2317 68.0632 37.8314 67.1788 41.7657C67.1469 41.9142 67.1149 42.0627 67.082 42.2156C65.0548 51.4161 59.5559 59.7382 53.8497 67.0826C53.6001 67.4039 53.3515 67.7261 53.103 68.0483C52.0866 69.3604 51.0247 70.6272 49.9367 71.8803C49.6769 72.1808 49.4191 72.483 49.162 72.7858C48.1916 73.9275 47.2021 75.0463 46.1846 76.1461C45.8525 76.5075 45.5277 76.8725 45.2077 77.2445C44.3433 78.2402 43.4321 79.1938 42.53 80.1551C42.1997 80.5075 41.8705 80.8607 41.5414 81.2141C40.4973 82.334 39.4517 83.4465 38.353 84.5134C38.0215 84.8537 37.7112 85.1999 37.4012 85.5594C36.7463 86.3139 36.0506 87.0214 35.3424 87.7257C35.2195 87.8492 35.0967 87.9728 34.9701 88.1C34.8533 88.2165 34.7366 88.3331 34.6163 88.4531C34.5109 88.5584 34.4055 88.6636 34.2968 88.772C34.0469 89 34.0469 89 33.877 89C33.877 81.3745 33.877 73.7491 33.877 65.8926C35.559 65.7244 37.2411 65.5562 38.9742 65.3829C44.456 64.2927 49.6313 62.1233 53.7369 58.2454C54.0656 57.9356 54.405 57.6514 54.7543 57.3654C58.4295 54.1329 60.9281 49.4178 62.4214 44.8241C62.4623 44.7009 62.5033 44.5778 62.5454 44.4509C64.9667 37.0343 63.967 28.8649 60.5251 21.9574C59.2713 19.5347 57.6697 17.4029 55.795 15.4301C55.5885 15.1904 55.3831 14.9497 55.1791 14.708C53.4362 12.7149 51.1151 11.1259 48.8288 9.82312C48.7193 9.76023 48.6098 9.69735 48.497 9.63256C46.7414 8.63461 44.9797 7.87166 43.052 7.27451C42.9309 7.23599 42.8099 7.19747 42.6852 7.15778C39.8106 6.25299 36.8782 5.89692 33.877 5.74534C33.877 4.51181 33.877 3.27828 33.877 2.00738Z" fill="#FFD736"/>
<path d="M33.9846 2.00738C25.038 1.81566 16.7937 5.37088 10.3675 11.5222C10.283 11.6021 10.1984 11.682 10.1114 11.7643C5.28699 16.3422 2.06658 22.373 0.682751 28.8528C0.652527 28.9924 0.622299 29.132 0.59116 29.2758C-0.221134 33.2317 -0.201679 37.8314 0.682751 41.7657C0.714699 41.9142 0.746651 42.0627 0.779568 42.2156C2.80674 51.4161 8.30571 59.7382 14.0119 67.0826C14.2615 67.4039 14.5101 67.7261 14.7585 68.0483C15.775 69.3604 16.8368 70.6272 17.9249 71.8803C18.1847 72.1808 18.4424 72.483 18.6996 72.7858C19.6699 73.9275 20.6594 75.0463 21.6769 76.1461C22.0091 76.5075 22.3339 76.8725 22.6539 77.2445C23.5182 78.2402 24.4295 79.1938 25.3316 80.1551C25.6618 80.5075 25.9911 80.8607 26.3202 81.2141C27.3643 82.334 28.4099 83.4465 29.5086 84.5134C29.8401 84.8537 30.1504 85.1999 30.4604 85.5594C31.1152 86.3139 31.811 87.0214 32.5192 87.7257C32.642 87.8492 32.7649 87.9728 32.8915 88.1C33.0082 88.2165 33.125 88.3331 33.2453 88.4531C33.3507 88.5584 33.4561 88.6636 33.5647 88.772C33.8147 89 33.8147 89 33.9846 89C33.9846 81.3745 33.9846 73.7491 33.9846 65.8926C32.3025 65.7244 30.6205 65.5562 28.8874 65.3829C23.4056 64.2927 18.2303 62.1233 14.1247 58.2454C13.796 57.9356 13.4566 57.6514 13.1072 57.3654C9.43202 54.1329 6.93345 49.4178 5.44016 44.8241C5.39923 44.7009 5.3583 44.5778 5.31613 44.4509C2.89489 37.0343 3.89452 28.8649 7.33648 21.9574C8.59026 19.5347 10.1919 17.4029 12.0666 15.4301C12.273 15.1904 12.4784 14.9497 12.6825 14.708C14.4254 12.7149 16.7465 11.1259 19.0328 9.82312C19.1423 9.76023 19.2518 9.69735 19.3646 9.63256C21.1201 8.63461 22.8819 7.87166 24.8096 7.27451C24.9307 7.23599 25.0517 7.19747 25.1764 7.15778C28.0509 6.25299 30.9833 5.89692 33.9846 5.74534C33.9846 4.51181 33.9846 3.27828 33.9846 2.00738Z" fill="#FFCC00"/>
<circle cx="33.8769" cy="35.877" r="29.0311" stroke="#FFE580" stroke-width="3"/>
</g>
<defs>
<filter id="filter0_d_915_748" x="0" y="2" width="67.8616" height="90" filterUnits="userSpaceOnUse" color-interpolation-filters="sRGB">
<feFlood flood-opacity="0" result="BackgroundImageFix"/>
<feColorMatrix in="SourceAlpha" type="matrix" values="0 0 0 0 0 0 0 0 0 0 0 0 0 0 0 0 0 0 127 0" result="hardAlpha"/>
<feOffset dy="3"/>
<feComposite in2="hardAlpha" operator="out"/>
<feColorMatrix type="matrix" values="0 0 0 0 0.641667 0 0 0 0 0 0 0 0 0 0 0 0 0 0.25 0"/>
<feBlend mode="normal" in2="BackgroundImageFix" result="effect1_dropShadow_915_748"/>
<feBlend mode="normal" in="SourceGraphic" in2="effect1_dropShadow_915_748" result="shape"/>
</filter>
<filter id="filter1_dd_915_748" x="1.78259" y="12.5718" width="61.7747" height="71.8577" filterUnits="userSpaceOnUse" color-interpolation-filters="sRGB">
<feFlood flood-opacity="0" result="BackgroundImageFix"/>
<feColorMatrix in="SourceAlpha" type="matrix" values="0 0 0 0 0 0 0 0 0 0 0 0 0 0 0 0 0 0 127 0" result="hardAlpha"/>
<feOffset dx="8" dy="8"/>
<feGaussianBlur stdDeviation="8"/>
<feColorMatrix type="matrix" values="0 0 0 0 0 0 0 0 0 0 0 0 0 0 0 0 0 0 0.08 0"/>
<feBlend mode="normal" in2="BackgroundImageFix" result="effect1_dropShadow_915_748"/>
<feColorMatrix in="SourceAlpha" type="matrix" values="0 0 0 0 0 0 0 0 0 0 0 0 0 0 0 0 0 0 127 0" result="hardAlpha"/>
<feOffset/>
<feGaussianBlur stdDeviation="2"/>
<feColorMatrix type="matrix" values="0 0 0 0 0 0 0 0 0 0 0 0 0 0 0 0 0 0 0.04 0"/>
<feBlend mode="normal" in2="effect1_dropShadow_915_748" result="effect2_dropShadow_915_748"/>
<feBlend mode="normal" in="SourceGraphic" in2="effect2_dropShadow_915_748" result="shape"/>
</filter>
<filter id="filter2_dd_915_748" x="38.0067" y="18.8857" width="48.3052" height="53.7546" filterUnits="userSpaceOnUse" color-interpolation-filters="sRGB">
<feFlood flood-opacity="0" result="BackgroundImageFix"/>
<feColorMatrix in="SourceAlpha" type="matrix" values="0 0 0 0 0 0 0 0 0 0 0 0 0 0 0 0 0 0 127 0" result="hardAlpha"/>
<feOffset dx="8" dy="8"/>
<feGaussianBlur stdDeviation="8"/>
<feColorMatrix type="matrix" values="0 0 0 0 0 0 0 0 0 0 0 0 0 0 0 0 0 0 0.08 0"/>
<feBlend mode="normal" in2="BackgroundImageFix" result="effect1_dropShadow_915_748"/>
<feColorMatrix in="SourceAlpha" type="matrix" values="0 0 0 0 0 0 0 0 0 0 0 0 0 0 0 0 0 0 127 0" result="hardAlpha"/>
<feOffset/>
<feGaussianBlur stdDeviation="2"/>
<feColorMatrix type="matrix" values="0 0 0 0 0 0 0 0 0 0 0 0 0 0 0 0 0 0 0.04 0"/>
<feBlend mode="normal" in2="effect1_dropShadow_915_748" result="effect2_dropShadow_915_748"/>
<feBlend mode="normal" in="SourceGraphic" in2="effect2_dropShadow_915_748" result="shape"/>
</filter>
<filter id="filter3_dd_915_748" x="42.3837" y="12.0195" width="35.4785" height="36.5005" filterUnits="userSpaceOnUse" color-interpolation-filters="sRGB">
<feFlood flood-opacity="0" result="BackgroundImageFix"/>
<feColorMatrix in="SourceAlpha" type="matrix" values="0 0 0 0 0 0 0 0 0 0 0 0 0 0 0 0 0 0 127 0" result="hardAlpha"/>
<feOffset dx="8" dy="8"/>
<feGaussianBlur stdDeviation="8"/>
<feColorMatrix type="matrix" values="0 0 0 0 0 0 0 0 0 0 0 0 0 0 0 0 0 0 0.08 0"/>
<feBlend mode="normal" in2="BackgroundImageFix" result="effect1_dropShadow_915_748"/>
<feColorMatrix in="SourceAlpha" type="matrix" values="0 0 0 0 0 0 0 0 0 0 0 0 0 0 0 0 0 0 127 0" result="hardAlpha"/>
<feOffset/>
<feGaussianBlur stdDeviation="2"/>
<feColorMatrix type="matrix" values="0 0 0 0 0 0 0 0 0 0 0 0 0 0 0 0 0 0 0.04 0"/>
<feBlend mode="normal" in2="effect1_dropShadow_915_748" result="effect2_dropShadow_915_748"/>
<feBlend mode="normal" in="SourceGraphic" in2="effect2_dropShadow_915_748" result="shape"/>
</filter>
<filter id="filter4_dd_915_748" x="45.984" y="13.8196" width="32.9001" height="32.9001" filterUnits="userSpaceOnUse" color-interpolation-filters="sRGB">
<feFlood flood-opacity="0" result="BackgroundImageFix"/>
<feColorMatrix in="SourceAlpha" type="matrix" values="0 0 0 0 0 0 0 0 0 0 0 0 0 0 0 0 0 0 127 0" result="hardAlpha"/>
<feOffset dx="8" dy="8"/>
<feGaussianBlur stdDeviation="8"/>
<feColorMatrix type="matrix" values="0 0 0 0 0 0 0 0 0 0 0 0 0 0 0 0 0 0 0.08 0"/>
<feBlend mode="normal" in2="BackgroundImageFix" result="effect1_dropShadow_915_748"/>
<feColorMatrix in="SourceAlpha" type="matrix" values="0 0 0 0 0 0 0 0 0 0 0 0 0 0 0 0 0 0 127 0" result="hardAlpha"/>
<feOffset/>
<feGaussianBlur stdDeviation="2"/>
<feColorMatrix type="matrix" values="0 0 0 0 0 0 0 0 0 0 0 0 0 0 0 0 0 0 0.04 0"/>
<feBlend mode="normal" in2="effect1_dropShadow_915_748" result="effect2_dropShadow_915_748"/>
<feBlend mode="normal" in="SourceGraphic" in2="effect2_dropShadow_915_748" result="shape"/>
</filter>
<filter id="filter5_dd_915_748" x="46.9623" y="11.9851" width="33.2106" height="32.7808" filterUnits="userSpaceOnUse" color-interpolation-filters="sRGB">
<feFlood flood-opacity="0" result="BackgroundImageFix"/>
<feColorMatrix in="SourceAlpha" type="matrix" values="0 0 0 0 0 0 0 0 0 0 0 0 0 0 0 0 0 0 127 0" result="hardAlpha"/>
<feOffset dx="8" dy="8"/>
<feGaussianBlur stdDeviation="8"/>
<feColorMatrix type="matrix" values="0 0 0 0 0 0 0 0 0 0 0 0 0 0 0 0 0 0 0.08 0"/>
<feBlend mode="normal" in2="BackgroundImageFix" result="effect1_dropShadow_915_748"/>
<feColorMatrix in="SourceAlpha" type="matrix" values="0 0 0 0 0 0 0 0 0 0 0 0 0 0 0 0 0 0 127 0" result="hardAlpha"/>
<feOffset/>
<feGaussianBlur stdDeviation="2"/>
<feColorMatrix type="matrix" values="0 0 0 0 0 0 0 0 0 0 0 0 0 0 0 0 0 0 0.04 0"/>
<feBlend mode="normal" in2="effect1_dropShadow_915_748" result="effect2_dropShadow_915_748"/>
<feBlend mode="normal" in="SourceGraphic" in2="effect2_dropShadow_915_748" result="shape"/>
</filter>
<filter id="filter6_dd_915_748" x="46.7689" y="12.0879" width="33.104" height="32.8755" filterUnits="userSpaceOnUse" color-interpolation-filters="sRGB">
<feFlood flood-opacity="0" result="BackgroundImageFix"/>
<feColorMatrix in="SourceAlpha" type="matrix" values="0 0 0 0 0 0 0 0 0 0 0 0 0 0 0 0 0 0 127 0" result="hardAlpha"/>
<feOffset dx="8" dy="8"/>
<feGaussianBlur stdDeviation="8"/>
<feColorMatrix type="matrix" values="0 0 0 0 0 0 0 0 0 0 0 0 0 0 0 0 0 0 0.08 0"/>
<feBlend mode="normal" in2="BackgroundImageFix" result="effect1_dropShadow_915_748"/>
<feColorMatrix in="SourceAlpha" type="matrix" values="0 0 0 0 0 0 0 0 0 0 0 0 0 0 0 0 0 0 127 0" result="hardAlpha"/>
<feOffset/>
<feGaussianBlur stdDeviation="2"/>
<feColorMatrix type="matrix" values="0 0 0 0 0 0 0 0 0 0 0 0 0 0 0 0 0 0 0.04 0"/>
<feBlend mode="normal" in2="effect1_dropShadow_915_748" result="effect2_dropShadow_915_748"/>
<feBlend mode="normal" in="SourceGraphic" in2="effect2_dropShadow_915_748" result="shape"/>
</filter>
<filter id="filter7_dd_915_748" x="44.6339" y="12.0195" width="32.9001" height="32.9001" filterUnits="userSpaceOnUse" color-interpolation-filters="sRGB">
<feFlood flood-opacity="0" result="BackgroundImageFix"/>
<feColorMatrix in="SourceAlpha" type="matrix" values="0 0 0 0 0 0 0 0 0 0 0 0 0 0 0 0 0 0 127 0" result="hardAlpha"/>
<feOffset dx="8" dy="8"/>
<feGaussianBlur stdDeviation="8"/>
<feColorMatrix type="matrix" values="0 0 0 0 0 0 0 0 0 0 0 0 0 0 0 0 0 0 0.08 0"/>
<feBlend mode="normal" in2="BackgroundImageFix" result="effect1_dropShadow_915_748"/>
<feColorMatrix in="SourceAlpha" type="matrix" values="0 0 0 0 0 0 0 0 0 0 0 0 0 0 0 0 0 0 127 0" result="hardAlpha"/>
<feOffset/>
<feGaussianBlur stdDeviation="2"/>
<feColorMatrix type="matrix" values="0 0 0 0 0 0 0 0 0 0 0 0 0 0 0 0 0 0 0.04 0"/>
<feBlend mode="normal" in2="effect1_dropShadow_915_748" result="effect2_dropShadow_915_748"/>
<feBlend mode="normal" in="SourceGraphic" in2="effect2_dropShadow_915_748" result="shape"/>
</filter>
<filter id="filter8_dd_915_748" x="1.9729" y="6.11963" width="44.0338" height="40.6921" filterUnits="userSpaceOnUse" color-interpolation-filters="sRGB">
<feFlood flood-opacity="0" result="BackgroundImageFix"/>
<feColorMatrix in="SourceAlpha" type="matrix" values="0 0 0 0 0 0 0 0 0 0 0 0 0 0 0 0 0 0 127 0" result="hardAlpha"/>
<feOffset dx="8" dy="8"/>
<feGaussianBlur stdDeviation="8"/>
<feColorMatrix type="matrix" values="0 0 0 0 0 0 0 0 0 0 0 0 0 0 0 0 0 0 0.08 0"/>
<feBlend mode="normal" in2="BackgroundImageFix" result="effect1_dropShadow_915_748"/>
<feColorMatrix in="SourceAlpha" type="matrix" values="0 0 0 0 0 0 0 0 0 0 0 0 0 0 0 0 0 0 127 0" result="hardAlpha"/>
<feOffset/>
<feGaussianBlur stdDeviation="2"/>
<feColorMatrix type="matrix" values="0 0 0 0 0 0 0 0 0 0 0 0 0 0 0 0 0 0 0.04 0"/>
<feBlend mode="normal" in2="effect1_dropShadow_915_748" result="effect2_dropShadow_915_748"/>
<feBlend mode="normal" in="SourceGraphic" in2="effect2_dropShadow_915_748" result="shape"/>
</filter>
<filter id="filter9_dd_915_748" x="16.7711" y="0.275146" width="51.3511" height="40.9639" filterUnits="userSpaceOnUse" color-interpolation-filters="sRGB">
<feFlood flood-opacity="0" result="BackgroundImageFix"/>
<feColorMatrix in="SourceAlpha" type="matrix" values="0 0 0 0 0 0 0 0 0 0 0 0 0 0 0 0 0 0 127 0" result="hardAlpha"/>
<feOffset dx="8" dy="8"/>
<feGaussianBlur stdDeviation="8"/>
<feColorMatrix type="matrix" values="0 0 0 0 0 0 0 0 0 0 0 0 0 0 0 0 0 0 0.08 0"/>
<feBlend mode="normal" in2="BackgroundImageFix" result="effect1_dropShadow_915_748"/>
<feColorMatrix in="SourceAlpha" type="matrix" values="0 0 0 0 0 0 0 0 0 0 0 0 0 0 0 0 0 0 127 0" result="hardAlpha"/>
<feOffset/>
<feGaussianBlur stdDeviation="2"/>
<feColorMatrix type="matrix" values="0 0 0 0 0 0 0 0 0 0 0 0 0 0 0 0 0 0 0.04 0"/>
<feBlend mode="normal" in2="effect1_dropShadow_915_748" result="effect2_dropShadow_915_748"/>
<feBlend mode="normal" in="SourceGraphic" in2="effect2_dropShadow_915_748" result="shape"/>
</filter>
</defs>
</svg>
