<svg width="24" height="24" viewBox="0 0 24 24" fill="none" xmlns="http://www.w3.org/2000/svg">
<g clip-path="url(#clip0_336_2416)">
<g clip-path="url(#clip1_336_2416)">
<path d="M23.6738 13.9053V9.90527L20.5835 9.28721L19.8252 7.45641L21.5733 4.83414L18.7449 2.00581L16.1227 3.75387L14.2919 2.99561L13.6738 -0.0947266H9.67383L9.05576 2.99561L7.22496 3.75387L4.60276 2.00581L1.77436 4.83414L3.52243 7.45641L2.76416 9.28721L-0.326172 9.90527V13.9053L2.76416 14.5233L3.52243 16.3541L1.77436 18.9764L4.60276 21.8047L7.22496 20.0567L9.05576 20.8149L9.67383 23.9053H13.6738L14.2919 20.8149L16.1227 20.0567L18.7449 21.8047L21.5733 18.9764L19.8252 16.3541L20.5835 14.5233L23.6738 13.9053ZM11.6738 16.5719C10.7508 16.5719 9.8486 16.2982 9.08117 15.7855C8.31374 15.2727 7.7156 14.5439 7.36239 13.6911C7.00918 12.8384 6.91677 11.9001 7.09683 10.9949C7.27689 10.0896 7.72135 9.25809 8.374 8.60544C9.02664 7.9528 9.85816 7.50834 10.7634 7.32828C11.6687 7.14821 12.607 7.24063 13.4597 7.59384C14.3124 7.94704 15.0412 8.54518 15.554 9.31261C16.0668 10.08 16.3405 10.9823 16.3405 11.9053C16.3405 13.143 15.8488 14.3299 14.9737 15.2051C14.0985 16.0803 12.9115 16.5719 11.6738 16.5719Z" fill="white"/>
</g>
</g>
<defs>
<clipPath id="clip0_336_2416">
<rect width="24" height="24" fill="white"/>
</clipPath>
<clipPath id="clip1_336_2416">
<rect width="24" height="24" fill="white" transform="translate(-0.326172 -0.0947266)"/>
</clipPath>
</defs>
</svg>
