<svg width="24" height="24" viewBox="0 0 24 24" fill="none" xmlns="http://www.w3.org/2000/svg">
<path d="M24 14V10L20.9097 9.38193L20.1514 7.55113L21.8995 4.92887L19.0711 2.10053L16.4489 3.8486L14.6181 3.09033L14 0H10L9.38193 3.09033L7.55113 3.8486L4.92893 2.10053L2.10053 4.92887L3.8486 7.55113L3.09033 9.38193L0 10V14L3.09033 14.6181L3.8486 16.4489L2.10053 19.0711L4.92893 21.8995L7.55113 20.1514L9.38193 20.9097L10 24H14L14.6181 20.9097L16.4489 20.1514L19.0711 21.8995L21.8995 19.0711L20.1514 16.4489L20.9097 14.6181L24 14ZM12 16.6667C11.077 16.6667 10.1748 16.393 9.40734 15.8802C8.63991 15.3674 8.04177 14.6386 7.68856 13.7859C7.33535 12.9331 7.24294 11.9948 7.423 11.0896C7.60307 10.1843 8.04752 9.35281 8.70017 8.70017C9.35281 8.04752 10.1843 7.60307 11.0896 7.423C11.9948 7.24294 12.9331 7.33535 13.7859 7.68856C14.6386 8.04177 15.3674 8.63991 15.8802 9.40734C16.393 10.1748 16.6667 11.077 16.6667 12C16.6667 13.2377 16.175 14.4247 15.2998 15.2998C14.4247 16.175 13.2377 16.6667 12 16.6667Z" fill="white"/>
</svg>
