<svg width="21" height="24" viewBox="0 0 21 24" fill="none" xmlns="http://www.w3.org/2000/svg">
<path d="M10.0488 14.3396V24H0.673828L2.36133 12.6C2.41471 12.2692 2.58834 11.9672 2.85145 11.7476C3.11457 11.528 3.45018 11.4048 3.79883 11.4H7.54883C7.54892 12.0915 7.79778 12.7617 8.25331 13.2974C8.70885 13.833 9.34311 14.2012 10.0488 14.3396ZM11.2988 24V14.3396C12.0045 14.2012 12.6388 13.833 13.0943 13.2974C13.5499 12.7617 13.7987 12.0915 13.7988 11.4H17.5488C17.8975 11.4048 18.2331 11.528 18.4962 11.7476C18.7593 11.9672 18.9329 12.2692 18.9863 12.6L20.6738 24H11.2988ZM13.7988 18.6H17.5488V16.8H13.7988V18.6ZM10.6738 9C11.6009 9 12.5072 8.73608 13.2781 8.24162C14.0489 7.74715 14.6497 7.04434 15.0045 6.22208C15.3593 5.39981 15.4521 4.49501 15.2713 3.6221C15.0904 2.74918 14.6439 1.94736 13.9884 1.31802C13.3328 0.688685 12.4976 0.260102 11.5883 0.0864683C10.679 -0.0871652 9.73653 0.00194979 8.88 0.342544C8.02347 0.683138 7.29138 1.25991 6.77631 1.99994C6.26124 2.73996 5.98633 3.60999 5.98633 4.5C5.98633 5.69348 6.48019 6.83807 7.35927 7.68198C8.23834 8.5259 9.43063 9 10.6738 9Z" fill="white"/>
</svg>
