<svg width="76" height="78" viewBox="0 0 76 78" fill="none" xmlns="http://www.w3.org/2000/svg">
<g filter="url(#filter0_d_468_2129)">
<circle cx="32.2553" cy="31.2558" r="19.0698" fill="#FCCC34"/>
<g filter="url(#filter1_dd_468_2129)">
<path d="M15.9025 21.1784C15.9798 21.0264 16.0656 20.8754 16.0938 20.8532C16.1225 20.8269 16.1592 20.8057 16.1803 20.8081C16.2015 20.8105 16.2968 20.8383 16.3916 20.8703C16.4907 20.9028 16.6804 20.9667 16.8171 21.0077C16.9533 21.0529 17.1829 21.1425 17.3209 21.2091C17.4636 21.2719 17.6072 21.3644 17.6405 21.4105C17.7 21.4893 17.6943 21.5394 17.5865 21.9968C17.5178 22.2978 17.4685 22.618 17.4654 22.7954C17.4637 22.9602 17.4714 23.1557 17.4881 23.2338C17.5012 23.3072 17.5466 23.397 17.5907 23.4232C17.6386 23.4541 17.8622 23.4838 18.6702 23.5337L18.9091 23.6921C19.04 23.7832 19.2436 23.9503 19.3586 24.0692C19.4735 24.1881 19.6119 24.2885 19.6626 24.2943C19.7218 24.3011 19.7947 24.2629 19.8488 24.2013C19.8987 24.1393 19.9816 24.0134 20.0316 23.9133C20.0816 23.8132 20.1917 23.6734 20.2769 23.6028C20.3757 23.5252 20.5745 23.4336 20.787 23.3732C20.9821 23.3151 21.3111 23.2088 21.887 23.0037L22.6226 23.3499C23.2038 23.6236 23.417 23.7072 23.6157 23.7298C23.7552 23.7457 24.0554 23.7419 24.2805 23.7211C24.5056 23.7002 24.7466 23.6896 24.8185 23.6978C24.8903 23.706 25.0119 23.7664 25.1011 23.8485C25.1864 23.926 25.3412 24.1087 25.4481 24.2605C25.5512 24.4077 25.7673 24.7285 25.9285 24.9669C26.0855 25.2049 26.3659 25.5627 26.8898 26.1133L27.1697 26.1368C27.3224 26.15 27.6169 26.1963 27.8254 26.2454C28.1171 26.3168 28.273 26.3769 28.5203 26.5363C28.6963 26.6452 28.9375 26.8208 29.0538 26.9272C29.1707 27.0294 29.3794 27.2648 29.5172 27.4455C29.7371 27.733 29.7684 27.7958 29.7527 27.9336C29.7432 28.0172 29.6503 28.2308 29.549 28.4054C29.4477 28.5801 29.3605 28.7436 29.3581 28.7645C29.3511 28.7891 29.3721 28.8295 29.3984 28.8622C29.4246 28.8948 29.5965 28.9652 29.7787 29.0198C29.9609 29.0744 30.3243 29.1921 30.5845 29.2768C30.8446 29.3615 31.1667 29.504 31.2986 29.5867C31.4305 29.6695 31.659 29.8437 31.8115 29.9711C31.9597 30.098 32.1746 30.2791 32.2872 30.3808C32.4003 30.4783 32.6448 30.6628 33.1821 31.0203L34.1624 31.1364L34.5364 31.4244C34.741 31.5832 35.1365 31.9076 35.4181 32.1428C35.6996 32.378 35.9843 32.6602 36.0616 32.7706C36.1348 32.8804 36.2144 33.0461 36.2424 33.1381C36.2709 33.226 36.2867 33.3505 36.2791 33.4174C36.2719 33.48 36.2035 33.6288 36.1301 33.7473C36.0566 33.8659 35.9252 34.0413 35.8414 34.1375C35.7619 34.2343 35.6019 34.3979 35.4918 34.4996C35.3812 34.6055 35.127 34.8812 34.9251 35.112C34.7227 35.347 34.5099 35.5978 34.4544 35.6718C34.3988 35.7459 34.3202 35.8723 34.2815 35.9483C34.2325 36.04 34.1553 36.4544 34.0569 37.1286C33.9234 38.0358 33.8874 38.201 33.78 38.4299C33.7121 38.5745 33.583 38.8052 33.4982 38.9478C33.4091 39.09 33.2613 39.2974 33.1671 39.4093C33.0476 39.5565 32.9638 39.6146 32.859 39.6323C32.7848 39.645 32.5945 39.6614 32.439 39.6732C32.2834 39.6851 31.9004 39.7387 31.5898 39.7964C31.2749 39.8535 30.8919 39.9452 30.732 39.9947C30.5722 40.0442 30.3748 40.1232 30.292 40.173C30.2139 40.2191 30.1001 40.3161 30.045 40.386C29.9603 40.4906 29.9366 40.5852 29.8856 41.0321C29.8527 41.3204 29.7982 41.6484 29.7642 41.7588C29.7297 41.8733 29.5868 42.1871 29.444 42.4627C29.3055 42.7389 29.0859 43.1243 28.9611 43.3174C28.8358 43.5146 28.7007 43.6854 28.6518 43.701C28.6071 43.7171 28.313 43.7047 28.0002 43.669C27.6573 43.6341 27.4229 43.6242 27.4158 43.6488C27.4045 43.6729 27.4077 43.7198 27.4123 43.7542C27.4212 43.7891 27.4887 43.8729 27.5624 43.9406C27.636 44.0082 27.7026 44.1005 27.7142 44.1483C27.7217 44.1957 27.7131 44.2709 27.6952 44.3154C27.6773 44.3599 27.5502 44.4597 27.4087 44.5366C27.2672 44.6135 27.072 44.7098 26.9771 44.7539C26.8783 44.7934 26.7157 44.8299 26.6128 44.8309C26.5137 44.8365 26.3868 44.8601 26.3285 44.883C26.274 44.9107 26.2255 44.9601 26.2217 44.9936C26.2179 45.027 26.2553 45.1116 26.3026 45.1847C26.3504 45.2537 26.4104 45.3663 26.4361 45.4412C26.4618 45.516 26.4917 45.6295 26.4963 45.7019C26.5032 45.7916 26.4654 45.8973 26.3604 46.0672C26.2813 46.1978 26.1607 46.3533 26.0892 46.4171C26.0219 46.4814 25.932 46.5938 25.8849 46.6688C25.8312 46.7643 25.8085 46.8505 25.8243 46.937C25.8332 47.0099 25.8963 47.2075 25.9669 47.3764C26.0334 47.5447 26.1142 47.8121 26.1393 47.9673C26.185 48.2052 26.1835 48.2558 26.129 48.2834C26.0923 48.3046 25.9903 48.2972 25.903 48.2746C25.8156 48.2519 25.6363 48.1722 25.5039 48.0937C25.3711 48.0193 25.1026 47.8575 24.9027 47.7331C24.7032 47.6045 24.2207 47.2914 23.8256 47.039C23.359 46.7361 23.055 46.511 22.9574 46.3898C22.8744 46.2915 22.791 46.1593 22.7719 46.1021C22.7489 46.0402 22.7028 45.8065 22.6642 45.582C22.6298 45.3581 22.5532 45.0531 22.4971 44.9071C22.4409 44.7611 22.3745 44.5927 22.3516 44.5308C22.3286 44.469 22.2801 44.2561 22.2433 44.053C22.2065 43.85 22.1711 43.4101 22.1585 43.0701C22.1459 42.7302 22.1245 42.3173 22.113 42.1552C22.0973 41.9926 22.0858 41.5301 22.0794 41.1358C22.0772 40.7421 22.0719 40.2633 22.0675 40.0766C22.0673 39.8905 22.0617 39.6021 22.0544 39.4405C22.0514 39.2793 22.0448 38.9993 22.039 38.8251C22.0331 38.651 22.0181 38.37 22.0066 38.2079C21.9909 38.0453 21.962 37.6231 21.9424 37.2697C21.9222 36.9204 21.8946 36.5618 21.8826 36.4801C21.8705 36.3983 21.8266 36.2198 21.7859 36.0882C21.7453 35.9566 21.6179 35.7221 21.5105 35.5744C21.3989 35.4263 21.2127 35.2188 21.0955 35.1208C20.9786 35.0187 20.7229 34.8202 20.5253 34.675C20.3283 34.5255 20.0383 34.2894 19.8797 34.1401C19.7207 33.995 19.4876 33.7484 19.3596 33.5941C19.2363 33.4362 19.0694 33.2098 18.9897 33.0823C18.9096 32.9589 18.7231 32.6414 18.5774 32.3793C18.4275 32.1168 18.124 31.549 17.9034 31.1177C17.6786 30.6858 17.4435 30.1935 17.3818 30.0215C17.3196 29.8536 17.2448 29.6081 17.2159 29.4863C17.1603 29.2599 17.1608 29.2558 17.3061 28.8831C17.4109 28.603 17.4496 28.4509 17.4461 28.2939C17.4421 28.1792 17.4481 27.9387 17.455 27.766C17.4695 27.4884 17.4846 27.4309 17.5901 27.2948C17.6598 27.2097 17.8014 27.0947 17.9067 27.0348C18.0116 26.979 18.179 26.8627 18.2698 26.78C18.3649 26.6978 18.5047 26.5233 18.588 26.3932C18.6672 26.2626 18.8115 25.9363 18.9063 25.6679C19.0012 25.3994 19.0906 25.0669 19.1063 24.929C19.1315 24.7457 19.1199 24.6217 19.0572 24.458C19.0151 24.3389 18.8966 24.1392 18.7991 24.0181C18.664 23.8503 18.5852 23.7906 18.4922 23.78C18.4203 23.7718 18.1867 23.8297 17.9634 23.91C17.7402 23.9904 17.5404 24.0522 17.5192 24.0498C17.4981 24.0474 17.4225 23.9964 17.3522 23.9376C17.2865 23.8751 17.0643 23.5705 16.8647 23.2558C16.665 22.941 16.4157 22.5741 16.3158 22.4357C16.2117 22.2969 16.0364 22.0696 15.9286 21.9261C15.8025 21.7551 15.7397 21.6295 15.7473 21.5627C15.754 21.5042 15.8205 21.3341 15.9025 21.1784Z" fill="#D40511"/>
</g>
<g filter="url(#filter2_dd_468_2129)">
<path d="M45.007 25.3473C45.2465 25.2654 45.4521 25.1922 45.4584 25.1814C45.4648 25.1742 45.509 25.1649 45.5535 25.1626C45.622 25.159 45.6442 25.189 45.7174 25.4069C45.7622 25.5397 45.8629 25.8221 45.9354 26.0262C46.0114 26.2301 46.1096 26.5299 46.1558 26.6904C46.202 26.8508 46.2722 27.1417 46.3136 27.3405C46.3549 27.5393 46.4301 27.9235 46.4789 28.1982C46.5311 28.4727 46.6033 28.8016 46.6378 28.9349C46.6757 29.0681 46.7428 29.2344 46.7913 29.3081C46.8398 29.3817 46.9598 29.5071 47.0533 29.5888C47.1501 29.6669 47.3167 29.7656 47.422 29.8086C47.5799 29.873 47.6664 29.8858 47.9059 29.8697C48.1456 29.8571 48.227 29.839 48.3636 29.759C48.4537 29.7092 48.5956 29.6013 48.6771 29.5173C48.7585 29.4333 48.8608 29.2893 48.9072 29.1933C48.9756 29.058 48.9942 28.9531 48.9993 28.7241C49.001 28.5611 48.9787 28.2677 48.9476 28.0683C48.9165 27.869 48.8574 27.529 48.8186 27.3127C48.7763 27.0966 48.712 26.7881 48.6761 26.6271C48.6367 26.4663 48.5723 26.2202 48.5306 26.0803C48.4923 25.9402 48.4079 25.7055 48.3454 25.5633C48.2828 25.4175 48.2059 25.1923 48.2189 25.1778C48.2317 25.1598 48.3524 25.303 48.4454 25.3743C48.535 25.4459 48.6924 25.5658 48.7924 25.6402C48.8961 25.718 49.0762 25.8125 49.1951 25.8547C49.3909 25.9207 49.4633 25.9272 49.8674 25.906C50.1173 25.8928 50.4143 25.8599 50.526 25.8298C50.6379 25.8031 50.7677 25.7893 50.8162 25.7972C50.896 25.8138 50.9155 25.8578 51.1023 26.4718C51.214 26.8332 51.331 27.2291 51.3649 27.352C51.3989 27.475 51.4731 27.7761 51.5305 28.0191C51.5881 28.2656 51.6535 28.5948 51.6757 28.7565C51.6945 28.9184 51.7435 29.1966 51.7804 29.3748C51.8172 29.5531 51.8796 30.087 51.915 30.5633C51.9569 31.0983 51.9766 31.6691 51.9735 32.0678C51.9681 32.4215 51.9305 33.0785 51.8924 33.5275C51.8508 33.9768 51.7935 34.5204 51.7668 34.7297C51.74 34.9391 51.699 35.2046 51.6775 35.3166C51.6557 35.4252 51.6176 35.6144 51.5931 35.7369C51.5685 35.8561 51.487 36.2 51.4066 36.4988C51.3296 36.7974 51.1511 37.3855 51.0116 37.8018C50.8721 38.2181 50.6801 38.7445 50.5785 38.9682C50.4804 39.1917 50.3157 39.5192 50.2118 39.6979C50.1113 39.8765 49.9903 40.0561 49.9481 40.1034C49.893 40.1652 49.8629 40.1806 49.8373 40.1508C49.8157 40.1311 49.7819 40.0116 49.7581 39.8846C49.7342 39.7577 49.7085 39.5303 49.6971 39.3784C49.6764 39.1161 49.6679 39.0854 49.4441 38.6813C49.3151 38.449 49.1732 38.1653 49.1293 38.0498C49.0819 37.931 49.0427 37.7737 49.0387 37.6976C49.0347 37.6216 49.0769 37.3803 49.1309 37.166C49.1881 36.9482 49.2397 36.689 49.2627 36.4071L49.1403 36.365C49.0738 36.3408 48.9283 36.3172 48.818 36.3092C48.7113 36.3044 48.5345 36.2721 48.4298 36.2395C48.2901 36.1949 48.205 36.1439 48.1172 36.0411C48.0478 35.9616 47.9517 35.8315 47.8992 35.7476C47.8433 35.6639 47.7625 35.5642 47.7158 35.525C47.6725 35.4857 47.5736 35.432 47.5002 35.4082C47.4301 35.3807 47.2884 35.3639 47.1891 35.3691C47.0933 35.3741 46.9127 35.4009 46.7903 35.4247C46.6682 35.4519 46.4417 35.5193 46.2833 35.5761C46.1251 35.6365 45.9071 35.7346 45.5972 35.9137L44.7391 35.9208C44.2653 35.9214 43.7508 35.9312 43.5899 35.9396C43.429 35.9481 43.2361 35.9374 43.1597 35.9207C43.0797 35.9006 42.9591 35.8273 42.876 35.7485C42.7966 35.6764 42.6457 35.4833 42.5447 35.3258C42.4401 35.1649 42.2798 34.9238 42.1871 34.7936C42.0908 34.66 41.8609 34.4018 41.6761 34.2174C41.412 33.961 41.2944 33.8147 41.147 33.5591C40.9883 33.2833 40.9564 33.1983 40.952 33.0495C40.9463 32.9424 40.9672 32.8165 41.0073 32.7313C41.041 32.6533 41.0846 32.5019 41.1065 32.3968C41.125 32.2919 41.1341 32.0731 41.1221 31.9108C41.1102 31.7486 41.0753 31.5425 41.0394 31.4473C41.0071 31.3555 40.9241 31.1484 40.8608 30.9889C40.7861 30.8092 40.7355 30.6316 40.7297 30.521C40.7244 30.4208 40.7436 30.2638 40.7732 30.1722C40.8025 30.0771 40.8979 29.8676 40.9887 29.6999C41.0794 29.5323 41.228 29.2888 41.3207 29.1592C41.4135 29.0295 41.5956 28.7704 41.7297 28.5797C41.8765 28.3675 42.0449 28.175 42.1671 28.0819C42.2725 27.9967 42.431 27.8774 42.517 27.814C42.6661 27.7126 42.6913 27.6697 42.8865 27.202C42.9988 26.9223 43.1445 26.6235 43.205 26.5337C43.2655 26.4439 43.4238 26.1895 43.5565 25.9711C43.7427 25.6598 43.82 25.5622 43.891 25.5411C43.945 25.5244 44.0517 25.5292 44.1316 25.5458C44.2311 25.566 44.3282 25.5632 44.423 25.5374C44.5043 25.5158 44.7641 25.4294 45.007 25.3473Z" fill="#D40511"/>
</g>
<g filter="url(#filter3_dd_468_2129)">
<path d="M43.8327 20.6344C43.8812 20.5782 43.978 20.508 44.0488 20.4799C44.1195 20.4553 44.2722 20.4308 44.6037 20.4272L44.8383 20.6449C44.965 20.7678 45.14 20.9749 45.2257 21.1118C45.3076 21.2487 45.4119 21.4137 45.4491 21.4804C45.4901 21.547 45.6093 21.7366 45.7099 21.9016C45.8141 22.0666 45.978 22.3509 46.0711 22.5335C46.0737 22.5384 46.0762 22.543 46.0786 22.5475C46.106 22.2729 46.2157 22.7978 46.0786 22.5475C46.0771 22.5625 46.0759 22.5799 46.0749 22.5999L45.6094 23.0655C45.4567 23.1006 45.5385 23.4356 45.3858 23.4672C45.2331 23.4988 44.9538 23.5269 44.7676 23.5304C44.4547 23.5339 44.4175 23.5269 44.2499 23.4286C44.1493 23.3724 44.0078 23.2461 43.937 23.1478C43.8402 23.0179 43.7992 22.9266 43.788 22.7967C43.7806 22.6949 43.7992 22.5475 43.829 22.4457C43.8625 22.3509 43.9072 22.1824 43.9333 22.0771C43.9594 21.9718 43.9743 21.7752 43.9631 21.6383C43.9519 21.4628 43.9184 21.3399 43.8476 21.2101C43.788 21.0977 43.7471 20.9678 43.7471 20.8836C43.7471 20.7923 43.7769 20.7081 43.8327 20.6344Z" fill="#D40511"/>
</g>
<g filter="url(#filter4_dd_468_2129)">
<path d="M46.2519 21.7101C46.264 21.6989 46.2882 21.6848 46.3059 21.6792C46.3236 21.6743 46.3618 21.6694 46.4446 21.6687L46.5033 21.7122C46.5349 21.7368 46.5787 21.7782 46.6001 21.8056C46.6206 21.833 46.6467 21.866 46.656 21.8793C46.6662 21.8927 46.696 21.9306 46.7212 21.9636C46.7472 21.9966 46.7882 22.0534 46.8115 22.0899C46.8506 22.1496 46.8543 22.1609 46.8497 22.2395L46.7798 22.2521C46.7416 22.2591 46.6783 22.2704 46.6402 22.2767C46.602 22.283 46.5321 22.2886 46.4856 22.2893C46.4074 22.29 46.3981 22.2886 46.3562 22.269C46.331 22.2577 46.2956 22.2325 46.278 22.2128C46.2537 22.1868 46.2435 22.1686 46.2407 22.1426C46.2388 22.1222 46.2435 22.0928 46.251 22.0724C46.2593 22.0534 46.2705 22.0197 46.277 21.9987C46.2835 21.9776 46.2873 21.9383 46.2845 21.9109C46.2817 21.8758 46.2733 21.8512 46.2556 21.8253C46.2407 21.8028 46.2305 21.7768 46.2305 21.76C46.2305 21.7417 46.2379 21.7249 46.2519 21.7101Z" fill="#CD1B1A"/>
</g>
<g filter="url(#filter5_dd_468_2129)">
<path d="M47.7297 20.6528C47.7364 20.6693 47.7408 20.698 47.739 20.7165C47.7365 20.7346 47.725 20.7707 47.6895 20.8437L47.6175 20.872C47.5775 20.8867 47.5142 20.9031 47.4757 20.9073C47.4376 20.9107 47.3911 20.916 47.3728 20.9171C47.3541 20.919 47.3007 20.925 47.2546 20.9295C47.208 20.9348 47.1296 20.9405 47.0805 20.9415C46.9999 20.944 46.9863 20.9413 46.9046 20.8955L46.9217 20.8275C46.9309 20.7903 46.9466 20.7289 46.9566 20.6921C46.9666 20.6552 46.9912 20.591 47.0108 20.5498C47.0443 20.4809 47.0498 20.4735 47.0891 20.4472C47.112 20.4311 47.1544 20.4136 47.1831 20.4085C47.2214 20.4011 47.2453 20.4018 47.2741 20.4132C47.2966 20.4223 47.326 20.4421 47.3444 20.4594C47.3609 20.4769 47.3919 20.5046 47.4115 20.5215C47.4311 20.5384 47.4713 20.5625 47.5017 20.5746C47.5403 20.5908 47.5701 20.5966 47.6055 20.5948C47.6359 20.5937 47.6681 20.5986 47.686 20.6075C47.7055 20.6172 47.7201 20.6327 47.7297 20.6528Z" fill="#CD1B1A"/>
</g>
<g filter="url(#filter6_dd_468_2129)">
<path d="M46.7806 20.5728C46.7894 20.5584 46.8094 20.5376 46.8254 20.5268C46.8417 20.5167 46.8783 20.5003 46.9608 20.4742L47.0321 20.4979C47.071 20.5117 47.1268 20.5379 47.1562 20.5575C47.1847 20.5774 47.2204 20.601 47.2336 20.6109C47.2477 20.6205 47.2886 20.6477 47.3233 20.6715C47.359 20.6951 47.4166 20.7369 47.4505 20.7647C47.5071 20.8098 47.5141 20.8194 47.5325 20.896L47.4665 20.9294C47.4304 20.9478 47.3705 20.9779 47.3343 20.9957C47.298 21.0134 47.2299 21.0401 47.1837 21.0551C47.1058 21.0797 47.0961 21.0812 47.0485 21.0752C47.0201 21.0722 46.9774 21.0588 46.954 21.0455C46.9222 21.028 46.9066 21.0137 46.8962 20.9897C46.8884 20.9708 46.8844 20.9412 46.8859 20.9195C46.8887 20.8988 46.89 20.8631 46.8903 20.841C46.8906 20.8189 46.8828 20.7802 46.872 20.7548C46.8589 20.7221 46.8433 20.7012 46.8181 20.6818C46.7966 20.6649 46.7788 20.6432 46.7738 20.6271C46.7685 20.6096 46.771 20.5912 46.7806 20.5728Z" fill="#CD1B1A"/>
</g>
<g filter="url(#filter7_dd_468_2129)">
<path d="M45.3202 20.4687C45.3323 20.4574 45.3566 20.4434 45.3742 20.4378C45.3919 20.4329 45.4301 20.4279 45.513 20.4272L45.5716 20.4708C45.6033 20.4953 45.6471 20.5368 45.6685 20.5641C45.689 20.5915 45.715 20.6245 45.7243 20.6379C45.7346 20.6512 45.7644 20.6891 45.7895 20.7221C45.8156 20.7551 45.8566 20.812 45.8798 20.8485C45.9189 20.9082 45.9227 20.9194 45.918 20.998L45.8482 21.0107C45.81 21.0177 45.7467 21.0289 45.7085 21.0352C45.6703 21.0416 45.6005 21.0472 45.554 21.0479C45.4757 21.0486 45.4664 21.0472 45.4245 21.0275C45.3994 21.0163 45.364 20.991 45.3463 20.9714C45.3221 20.9454 45.3119 20.9271 45.3091 20.9011C45.3072 20.8808 45.3119 20.8513 45.3193 20.8309C45.3277 20.812 45.3389 20.7783 45.3454 20.7572C45.3519 20.7362 45.3556 20.6968 45.3528 20.6695C45.35 20.6344 45.3417 20.6098 45.324 20.5838C45.3091 20.5613 45.2988 20.5354 45.2988 20.5185C45.2988 20.5003 45.3063 20.4834 45.3202 20.4687Z" fill="#CD1B1A"/>
</g>
<g filter="url(#filter8_dd_468_2129)">
<path d="M20.241 16.4985C20.3228 16.4488 20.4295 16.3975 20.4801 16.3839C20.531 16.3669 20.6062 16.3553 20.6519 16.359C20.6943 16.3589 20.8505 16.3962 20.999 16.4398C21.1441 16.4832 21.3893 16.5559 21.5408 16.6068C21.6923 16.6578 22.032 16.7874 22.2956 16.8967C22.5588 17.0095 22.8895 17.163 23.0282 17.2412C23.1669 17.3193 23.308 17.4117 23.3406 17.446C23.3732 17.4804 23.3962 17.5457 23.389 17.5909C23.3857 17.6329 23.3252 17.769 23.2582 17.8975C23.1881 18.0222 23.1314 18.1551 23.1353 18.1941C23.1392 18.2332 23.1783 18.2751 23.2263 18.2931C23.2744 18.311 23.4282 18.334 23.5685 18.3488C23.7052 18.3634 23.8549 18.3931 23.8989 18.4178C23.9394 18.4422 24.0219 18.5158 24.08 18.5839C24.1482 18.6598 24.1812 18.733 24.1758 18.7995C24.1707 18.8625 24.1308 18.9192 24.0557 18.973C23.9956 19.0175 23.9011 19.0487 23.8484 19.0444C23.7922 19.0399 23.6599 18.9693 23.5434 18.8789C23.4266 18.792 23.2455 18.6258 23.138 18.5115C23.0305 18.3971 22.8955 18.2735 22.8415 18.2409C22.7875 18.2084 22.7052 18.1771 22.663 18.1737C22.6173 18.17 22.4769 18.201 22.3465 18.2398C22.216 18.2786 22.0137 18.375 21.898 18.4503C21.7376 18.5536 21.6502 18.5854 21.5588 18.578C21.492 18.5726 21.2717 18.4985 21.07 18.4117C20.7689 18.2853 20.686 18.261 20.6202 18.2874C20.562 18.3074 20.5338 18.3509 20.5284 18.4174C20.5236 18.4769 20.5893 18.6267 20.7076 18.8265C20.8103 19.0004 20.8917 19.1761 20.888 19.2216C20.8846 19.2636 20.8525 19.3104 20.8198 19.3218C20.7832 19.3365 20.6647 19.3586 20.5576 19.3712C20.4505 19.3837 20.2298 19.4011 20.07 19.4094C19.8891 19.4159 19.7349 19.4423 19.6753 19.4797C19.616 19.5137 19.5063 19.5577 19.4268 19.5795C19.3472 19.6013 19.2162 19.6471 18.9893 19.7416L18.9012 19.6499C18.8489 19.5964 18.7712 19.5513 18.722 19.5474C18.6658 19.5428 18.6032 19.573 18.556 19.6327C18.5096 19.6818 18.4755 19.753 18.4724 19.7915C18.4693 19.83 18.5025 19.9455 18.5405 20.0437C18.5818 20.1457 18.6109 20.2678 18.6064 20.3238C18.6021 20.3763 18.5512 20.4815 18.4917 20.5612C18.4326 20.6375 18.3427 20.743 18.2893 20.7916C18.2356 20.8436 18.1353 20.9025 18.0733 20.9257C18.0078 20.9486 17.9333 20.9954 17.9126 21.0325C17.8797 21.0898 17.8945 21.1262 17.9968 21.2613C18.0826 21.3669 18.1287 21.4669 18.1353 21.5614C18.1458 21.6503 18.1207 21.7857 18.074 21.9264C18.0287 22.0496 17.9639 22.1959 17.9277 22.2494C17.884 22.3093 17.8206 22.35 17.7673 22.3528C17.7211 22.3561 17.6563 22.3262 17.624 22.2883C17.5917 22.2505 17.5528 22.1628 17.537 22.0946C17.5213 22.0264 17.4849 21.9072 17.4554 21.8343C17.4227 21.7577 17.3668 21.6616 17.328 21.6161C17.2596 21.5437 17.218 21.5333 16.8833 21.5169C16.6792 21.504 16.377 21.4796 16.2084 21.466C15.9489 21.438 15.897 21.4233 15.8834 21.3729C15.8722 21.3367 15.877 21.2772 15.8906 21.2395C15.9078 21.2022 16.0339 20.9974 16.1747 20.7868C16.319 20.5764 16.507 20.3061 16.5944 20.1863C16.6854 20.0668 16.8595 19.8377 16.9861 19.6717C17.1088 19.509 17.3798 19.1749 17.5869 18.9309C17.7905 18.6865 18.1313 18.3194 18.3426 18.1109C18.5537 17.9059 18.8906 17.5877 19.0888 17.4099C19.287 17.2321 19.5942 16.975 19.7718 16.8342C19.9491 16.697 20.1594 16.5448 20.241 16.4985Z" fill="#D40511"/>
</g>
<g filter="url(#filter9_dd_468_2129)">
<path d="M30.0867 12.3947C30.4082 12.3635 30.7672 12.3329 30.8902 12.3284C31.0132 12.3239 31.7504 12.3373 32.5284 12.3581C33.5487 12.3833 34.0774 12.4097 34.4214 12.453C34.6836 12.4881 35.082 12.5492 35.3065 12.5904C35.5312 12.6281 35.912 12.7126 36.1567 12.7743C36.4014 12.836 36.7513 12.9333 36.938 12.9906C37.1247 13.0479 37.4607 13.1585 37.6846 13.2367C37.9085 13.3149 38.2138 13.4249 38.363 13.4815C38.5122 13.5381 38.7562 13.6369 38.9052 13.7002C39.0543 13.7636 39.2338 13.8444 39.3014 13.8793C39.3996 13.9282 39.4296 13.9659 39.4284 14.0299C39.4275 14.0838 39.3854 14.1437 39.3126 14.203C39.2538 14.2491 39.0469 14.3599 38.8576 14.4475C38.6441 14.5447 38.469 14.6022 38.3939 14.6009C38.3291 14.5997 38.122 14.5353 37.9356 14.4578C37.7493 14.3769 37.5018 14.2814 37.383 14.2456C37.2676 14.2064 37.1491 14.1503 37.1223 14.1229C37.0955 14.0954 36.9229 14.0148 36.7398 13.9441C36.5601 13.8734 36.3532 13.8023 36.2818 13.7842C36.2138 13.7661 36.0987 13.7168 36.0277 13.6751C35.9298 13.616 35.8312 13.594 35.5788 13.5793C35.2958 13.5607 35.248 13.5632 35.1889 13.6194C35.1263 13.6823 35.1263 13.6823 35.1869 13.7273C35.2241 13.7515 35.3534 13.7707 35.4968 13.7733C35.6333 13.7758 35.7764 13.7918 35.8136 13.8127C35.8508 13.8303 35.881 13.8578 35.8808 13.8712C35.8839 13.8882 35.7839 13.9436 35.6668 14.0022C35.5463 14.0573 35.4185 14.1358 35.3803 14.1756C35.342 14.2153 35.2521 14.2777 35.1798 14.3101C35.1109 14.3426 34.9322 14.4067 34.7847 14.4479C34.6406 14.4891 34.4588 14.533 34.3835 14.5451C34.3082 14.5572 34.0852 14.6172 33.8861 14.6776C33.6869 14.7414 33.5048 14.8089 33.4805 14.8286C33.4562 14.8484 33.435 14.8918 33.4378 14.9222C33.4372 14.9559 33.4704 15.0071 33.5109 15.0348C33.5547 15.0659 33.6903 15.1223 33.8159 15.1582C33.9891 15.2119 34.0465 15.2433 34.0457 15.2871C34.0451 15.3208 33.9544 15.4303 33.8433 15.5294C33.7323 15.6285 33.5352 15.7665 33.4043 15.8315C33.27 15.8965 32.8233 16.0569 32.4078 16.1875C31.9923 16.3181 31.5217 16.4781 31.3601 16.5426C31.1985 16.6071 30.9369 16.7236 30.4824 16.9345L30.2632 17.3517C30.143 17.5821 30.0116 17.8594 29.9721 17.9699C29.9359 18.0804 29.8682 18.241 29.829 18.3279C29.7794 18.4314 29.727 18.4945 29.6756 18.5071C29.6344 18.5164 29.5221 18.4976 29.4305 18.4656C29.3389 18.4336 29.0477 18.3002 28.7872 18.1708C28.4894 18.0239 28.2319 17.9182 28.0925 17.8887C27.97 17.8662 27.8207 17.813 27.7599 17.7782C27.7025 17.7401 27.5952 17.637 27.5251 17.5448C27.4585 17.4559 27.3123 17.2309 27.2065 17.0436C27.0112 16.7031 27.0112 16.7031 27.0613 16.5759C27.1007 16.4722 27.1014 16.4351 27.0715 16.3908C27.0482 16.36 26.9954 16.2546 26.9561 16.1629C26.9169 16.0678 26.8282 15.8775 26.759 15.7381C26.6898 15.5987 26.6343 15.4595 26.6348 15.4325C26.6353 15.4056 26.5995 15.3106 26.5533 15.2188C26.5071 15.1303 26.4356 14.9336 26.394 14.7778C26.3524 14.6254 26.2975 14.4525 26.2678 14.3981C26.2414 14.3437 26.1993 14.2216 26.1736 14.1301C26.1514 14.0387 26.122 13.9607 26.1051 13.9537C26.0916 13.9467 26.0821 13.9027 26.083 13.8555C26.0838 13.8084 26.1021 13.7413 26.1199 13.7046C26.1376 13.6678 26.1629 13.5874 26.1709 13.5269C26.1787 13.4697 26.1971 13.3959 26.2079 13.3692C26.222 13.3425 26.281 13.2896 26.3432 13.2503C26.4019 13.2143 26.5395 13.1527 26.6426 13.1175C26.7457 13.079 27.0477 12.9935 27.3118 12.9241C27.576 12.8514 28.0458 12.7386 28.3577 12.6701C28.6696 12.6016 29.0534 12.5243 29.2142 12.5003C29.3752 12.4728 29.7652 12.4294 30.0867 12.3947Z" fill="#D40511"/>
</g>
<path d="M43.7471 20.5823C44.2126 20.5823 44.2524 20.3784 44.6782 20.272C45.0381 20.182 45.1633 20.1138 45.1793 20.0662C45.1789 20.0661 45.1786 20.0661 45.1783 20.066C44.6028 19.9558 45.2185 19.9494 45.1793 20.0662C45.6009 20.1464 45.1442 19.7551 45.6094 19.1348C46.0749 18.2037 44.6782 18.5141 44.8334 18.3589C44.9886 18.2037 45.1438 17.7381 45.6094 18.0485C46.0749 18.3589 45.7646 18.2037 46.8509 19.1348C47.9372 20.066 48.0924 19.6004 48.4028 20.5316C48.7132 21.4627 50.2651 22.549 48.8684 22.8594C47.4717 23.1698 46.5405 22.8594 46.0749 23.0146C45.2165 23.3008 45.2472 22.6525 44.9886 22.7042L43.7471 20.5823Z" fill="#D40511"/>
<path d="M47.1472 29.9678C47.4653 30.1065 48.6888 29.7313 48.8357 29.5682L49.2761 29.0788L49.3659 27.8308C49.4067 27.6215 49.4524 27.1114 49.3088 26.746C49.1294 26.2892 48.9663 26.1424 48.795 25.8406C48.6237 25.5388 48.2893 25.0901 48.1262 24.9433C47.963 24.7965 48.1262 24.9433 47.9712 24.9515C47.8162 24.9596 47.7192 24.766 47.5642 24.7742C47.4093 24.7823 47.5806 25.0841 47.2624 24.9454C46.9443 24.8068 46.9866 24.8251 46.5601 24.7149C46.2596 24.6372 46.4133 24.878 46.1033 24.8943L45.6384 24.9188L45.4834 24.9269L45.4916 25.0819C45.4997 25.2369 45.3447 25.245 45.516 25.5468C45.6873 25.8486 45.5242 25.7018 45.7036 26.1586C45.883 26.6154 45.8912 26.7703 45.9156 27.2353C45.9401 27.7002 45.8096 28.1733 46.1929 29.5518C46.5762 30.9303 46.8291 29.8291 47.1472 29.9678Z" fill="#CC1C1B"/>
<path d="M32.3633 8.00509C38.5334 7.87287 44.2191 10.3247 48.651 14.567C48.7092 14.6221 48.7675 14.6772 48.8276 14.734C52.1547 17.8912 54.3757 22.0503 55.3301 26.5191C55.3509 26.6154 55.3718 26.7117 55.3933 26.8109C55.9535 29.5391 55.94 32.7113 55.3301 35.4246C55.3081 35.527 55.286 35.6294 55.2633 35.7349C53.8653 42.0801 50.0729 47.8194 46.1376 52.8846C45.9654 53.1062 45.794 53.3283 45.6227 53.5505C44.9217 54.4555 44.1893 55.3291 43.439 56.1933C43.2598 56.4006 43.082 56.609 42.9047 56.8178C42.2355 57.6052 41.5531 58.3767 40.8513 59.1352C40.6223 59.3845 40.3983 59.6362 40.1776 59.8928C39.5815 60.5795 38.953 61.2371 38.3309 61.9001C38.1031 62.1431 37.876 62.3867 37.6491 62.6304C36.929 63.4028 36.2079 64.17 35.4502 64.9058C35.2216 65.1405 35.0076 65.3792 34.7938 65.6272C34.3422 66.1475 33.8623 66.6355 33.3739 67.1212C33.2892 67.2064 33.2045 67.2916 33.1172 67.3793C33.0366 67.4597 32.9561 67.54 32.8732 67.6228C32.8005 67.6954 32.7278 67.768 32.6528 67.8428C32.4805 68 32.4805 68 32.3633 68C32.3633 62.7411 32.3633 57.4821 32.3633 52.0639C33.5233 51.9478 34.6834 51.8318 35.8786 51.7123C39.6591 50.9605 43.2283 49.4644 46.0598 46.7899C46.2865 46.5762 46.5206 46.3803 46.7615 46.183C49.2961 43.9538 51.0193 40.7019 52.0491 37.5338C52.0773 37.4489 52.1056 37.364 52.1347 37.2765C53.8045 32.1616 53.1151 26.5275 50.7413 21.7637C49.8766 20.0929 48.7721 18.6227 47.4792 17.2621C47.3368 17.0968 47.1951 16.9309 47.0544 16.7641C45.8524 15.3896 44.2517 14.2937 42.6749 13.3953C42.5994 13.3519 42.5239 13.3085 42.446 13.2638C41.2353 12.5756 40.0203 12.0494 38.6909 11.6376C38.6074 11.611 38.5239 11.5845 38.4379 11.5571C36.4555 10.9331 34.4331 10.6875 32.3633 10.583C32.3633 9.73228 32.3633 8.88158 32.3633 8.00509Z" fill="#FFD736"/>
<path d="M32.4375 8.00509C26.2674 7.87287 20.5817 10.3247 16.1498 14.567C16.0915 14.6221 16.0332 14.6772 15.9732 14.734C12.646 17.8912 10.4251 22.0503 9.47069 26.5191C9.44985 26.6154 9.429 26.7117 9.40753 26.8109C8.84733 29.5391 8.86074 32.7113 9.47069 35.4246C9.49273 35.527 9.51476 35.6294 9.53746 35.7349C10.9355 42.0801 14.7279 47.8194 18.6632 52.8846C18.8353 53.1062 19.0068 53.3283 19.1781 53.5505C19.8791 54.4555 20.6114 55.3291 21.3618 56.1933C21.541 56.4006 21.7188 56.609 21.8961 56.8178C22.5653 57.6052 23.2477 58.3767 23.9494 59.1352C24.1785 59.3845 24.4025 59.6362 24.6232 59.8928C25.2193 60.5795 25.8477 61.2371 26.4699 61.9001C26.6976 62.1431 26.9247 62.3867 27.1517 62.6304C27.8718 63.4028 28.5929 64.17 29.3506 64.9058C29.5792 65.1405 29.7932 65.3792 30.007 65.6272C30.4586 66.1475 30.9384 66.6355 31.4268 67.1212C31.5116 67.2064 31.5963 67.2916 31.6836 67.3793C31.7641 67.4597 31.8446 67.54 31.9276 67.6228C32.0003 67.6954 32.073 67.768 32.1479 67.8428C32.3203 68 32.3203 68 32.4375 68C32.4375 62.7411 32.4375 57.4821 32.4375 52.0639C31.2774 51.9478 30.1174 51.8318 28.9222 51.7123C25.1416 50.9605 21.5725 49.4644 18.741 46.7899C18.5143 46.5762 18.2802 46.3803 18.0393 46.183C15.5047 43.9538 13.7815 40.7019 12.7517 37.5338C12.7234 37.4489 12.6952 37.364 12.6661 37.2765C10.9963 32.1616 11.6857 26.5275 14.0595 21.7637C14.9241 20.0929 16.0287 18.6227 17.3216 17.2621C17.464 17.0968 17.6057 16.9309 17.7464 16.7641C18.9484 15.3896 20.5491 14.2937 22.1259 13.3953C22.2014 13.3519 22.2769 13.3085 22.3547 13.2638C23.5654 12.5756 24.7804 12.0494 26.1099 11.6376C26.1934 11.611 26.2769 11.5845 26.3629 11.5571C28.3453 10.9331 30.3676 10.6875 32.4375 10.583C32.4375 9.73228 32.4375 8.88158 32.4375 8.00509Z" fill="#FAC800"/>
<circle cx="32.3635" cy="31.3635" r="19.5559" stroke="#FFE580" stroke-width="3"/>
</g>
<defs>
<filter id="filter0_d_468_2129" x="0.9" y="0.9" width="63.0008" height="76.2" filterUnits="userSpaceOnUse" color-interpolation-filters="sRGB">
<feFlood flood-opacity="0" result="BackgroundImageFix"/>
<feColorMatrix in="SourceAlpha" type="matrix" values="0 0 0 0 0 0 0 0 0 0 0 0 0 0 0 0 0 0 127 0" result="hardAlpha"/>
<feOffset dy="1"/>
<feGaussianBlur stdDeviation="4.05"/>
<feComposite in2="hardAlpha" operator="out"/>
<feColorMatrix type="matrix" values="0 0 0 0 0.233333 0 0 0 0 0.233333 0 0 0 0 0.233333 0 0 0 0.25 0"/>
<feBlend mode="normal" in2="BackgroundImageFix" result="effect1_dropShadow_468_2129"/>
<feBlend mode="normal" in="SourceGraphic" in2="effect1_dropShadow_468_2129" result="shape"/>
</filter>
<filter id="filter1_dd_468_2129" x="7.74707" y="12.8079" width="52.5342" height="59.488" filterUnits="userSpaceOnUse" color-interpolation-filters="sRGB">
<feFlood flood-opacity="0" result="BackgroundImageFix"/>
<feColorMatrix in="SourceAlpha" type="matrix" values="0 0 0 0 0 0 0 0 0 0 0 0 0 0 0 0 0 0 127 0" result="hardAlpha"/>
<feOffset dx="8" dy="8"/>
<feGaussianBlur stdDeviation="8"/>
<feColorMatrix type="matrix" values="0 0 0 0 0 0 0 0 0 0 0 0 0 0 0 0 0 0 0.08 0"/>
<feBlend mode="normal" in2="BackgroundImageFix" result="effect1_dropShadow_468_2129"/>
<feColorMatrix in="SourceAlpha" type="matrix" values="0 0 0 0 0 0 0 0 0 0 0 0 0 0 0 0 0 0 127 0" result="hardAlpha"/>
<feOffset/>
<feGaussianBlur stdDeviation="2"/>
<feColorMatrix type="matrix" values="0 0 0 0 0 0 0 0 0 0 0 0 0 0 0 0 0 0 0.04 0"/>
<feBlend mode="normal" in2="effect1_dropShadow_468_2129" result="effect2_dropShadow_468_2129"/>
<feBlend mode="normal" in="SourceGraphic" in2="effect2_dropShadow_468_2129" result="shape"/>
</filter>
<filter id="filter2_dd_468_2129" x="32.7285" y="17.1624" width="43.2451" height="47.0032" filterUnits="userSpaceOnUse" color-interpolation-filters="sRGB">
<feFlood flood-opacity="0" result="BackgroundImageFix"/>
<feColorMatrix in="SourceAlpha" type="matrix" values="0 0 0 0 0 0 0 0 0 0 0 0 0 0 0 0 0 0 127 0" result="hardAlpha"/>
<feOffset dx="8" dy="8"/>
<feGaussianBlur stdDeviation="8"/>
<feColorMatrix type="matrix" values="0 0 0 0 0 0 0 0 0 0 0 0 0 0 0 0 0 0 0.08 0"/>
<feBlend mode="normal" in2="BackgroundImageFix" result="effect1_dropShadow_468_2129"/>
<feColorMatrix in="SourceAlpha" type="matrix" values="0 0 0 0 0 0 0 0 0 0 0 0 0 0 0 0 0 0 127 0" result="hardAlpha"/>
<feOffset/>
<feGaussianBlur stdDeviation="2"/>
<feColorMatrix type="matrix" values="0 0 0 0 0 0 0 0 0 0 0 0 0 0 0 0 0 0 0.04 0"/>
<feBlend mode="normal" in2="effect1_dropShadow_468_2129" result="effect2_dropShadow_468_2129"/>
<feBlend mode="normal" in="SourceGraphic" in2="effect2_dropShadow_468_2129" result="shape"/>
</filter>
<filter id="filter3_dd_468_2129" x="35.7471" y="12.4272" width="34.3994" height="35.1038" filterUnits="userSpaceOnUse" color-interpolation-filters="sRGB">
<feFlood flood-opacity="0" result="BackgroundImageFix"/>
<feColorMatrix in="SourceAlpha" type="matrix" values="0 0 0 0 0 0 0 0 0 0 0 0 0 0 0 0 0 0 127 0" result="hardAlpha"/>
<feOffset dx="8" dy="8"/>
<feGaussianBlur stdDeviation="8"/>
<feColorMatrix type="matrix" values="0 0 0 0 0 0 0 0 0 0 0 0 0 0 0 0 0 0 0.08 0"/>
<feBlend mode="normal" in2="BackgroundImageFix" result="effect1_dropShadow_468_2129"/>
<feColorMatrix in="SourceAlpha" type="matrix" values="0 0 0 0 0 0 0 0 0 0 0 0 0 0 0 0 0 0 127 0" result="hardAlpha"/>
<feOffset/>
<feGaussianBlur stdDeviation="2"/>
<feColorMatrix type="matrix" values="0 0 0 0 0 0 0 0 0 0 0 0 0 0 0 0 0 0 0.04 0"/>
<feBlend mode="normal" in2="effect1_dropShadow_468_2129" result="effect2_dropShadow_468_2129"/>
<feBlend mode="normal" in="SourceGraphic" in2="effect2_dropShadow_468_2129" result="shape"/>
</filter>
<filter id="filter4_dd_468_2129" x="38.2305" y="13.6687" width="32.6211" height="32.6208" filterUnits="userSpaceOnUse" color-interpolation-filters="sRGB">
<feFlood flood-opacity="0" result="BackgroundImageFix"/>
<feColorMatrix in="SourceAlpha" type="matrix" values="0 0 0 0 0 0 0 0 0 0 0 0 0 0 0 0 0 0 127 0" result="hardAlpha"/>
<feOffset dx="8" dy="8"/>
<feGaussianBlur stdDeviation="8"/>
<feColorMatrix type="matrix" values="0 0 0 0 0 0 0 0 0 0 0 0 0 0 0 0 0 0 0.08 0"/>
<feBlend mode="normal" in2="BackgroundImageFix" result="effect1_dropShadow_468_2129"/>
<feColorMatrix in="SourceAlpha" type="matrix" values="0 0 0 0 0 0 0 0 0 0 0 0 0 0 0 0 0 0 127 0" result="hardAlpha"/>
<feOffset/>
<feGaussianBlur stdDeviation="2"/>
<feColorMatrix type="matrix" values="0 0 0 0 0 0 0 0 0 0 0 0 0 0 0 0 0 0 0.04 0"/>
<feBlend mode="normal" in2="effect1_dropShadow_468_2129" result="effect2_dropShadow_468_2129"/>
<feBlend mode="normal" in="SourceGraphic" in2="effect2_dropShadow_468_2129" result="shape"/>
</filter>
<filter id="filter5_dd_468_2129" x="38.9043" y="12.4036" width="32.835" height="32.5386" filterUnits="userSpaceOnUse" color-interpolation-filters="sRGB">
<feFlood flood-opacity="0" result="BackgroundImageFix"/>
<feColorMatrix in="SourceAlpha" type="matrix" values="0 0 0 0 0 0 0 0 0 0 0 0 0 0 0 0 0 0 127 0" result="hardAlpha"/>
<feOffset dx="8" dy="8"/>
<feGaussianBlur stdDeviation="8"/>
<feColorMatrix type="matrix" values="0 0 0 0 0 0 0 0 0 0 0 0 0 0 0 0 0 0 0.08 0"/>
<feBlend mode="normal" in2="BackgroundImageFix" result="effect1_dropShadow_468_2129"/>
<feColorMatrix in="SourceAlpha" type="matrix" values="0 0 0 0 0 0 0 0 0 0 0 0 0 0 0 0 0 0 127 0" result="hardAlpha"/>
<feOffset/>
<feGaussianBlur stdDeviation="2"/>
<feColorMatrix type="matrix" values="0 0 0 0 0 0 0 0 0 0 0 0 0 0 0 0 0 0 0.04 0"/>
<feBlend mode="normal" in2="effect1_dropShadow_468_2129" result="effect2_dropShadow_468_2129"/>
<feBlend mode="normal" in="SourceGraphic" in2="effect2_dropShadow_468_2129" result="shape"/>
</filter>
<filter id="filter6_dd_468_2129" x="38.7715" y="12.4744" width="32.7607" height="32.6038" filterUnits="userSpaceOnUse" color-interpolation-filters="sRGB">
<feFlood flood-opacity="0" result="BackgroundImageFix"/>
<feColorMatrix in="SourceAlpha" type="matrix" values="0 0 0 0 0 0 0 0 0 0 0 0 0 0 0 0 0 0 127 0" result="hardAlpha"/>
<feOffset dx="8" dy="8"/>
<feGaussianBlur stdDeviation="8"/>
<feColorMatrix type="matrix" values="0 0 0 0 0 0 0 0 0 0 0 0 0 0 0 0 0 0 0.08 0"/>
<feBlend mode="normal" in2="BackgroundImageFix" result="effect1_dropShadow_468_2129"/>
<feColorMatrix in="SourceAlpha" type="matrix" values="0 0 0 0 0 0 0 0 0 0 0 0 0 0 0 0 0 0 127 0" result="hardAlpha"/>
<feOffset/>
<feGaussianBlur stdDeviation="2"/>
<feColorMatrix type="matrix" values="0 0 0 0 0 0 0 0 0 0 0 0 0 0 0 0 0 0 0.04 0"/>
<feBlend mode="normal" in2="effect1_dropShadow_468_2129" result="effect2_dropShadow_468_2129"/>
<feBlend mode="normal" in="SourceGraphic" in2="effect2_dropShadow_468_2129" result="shape"/>
</filter>
<filter id="filter7_dd_468_2129" x="37.2988" y="12.4272" width="32.6211" height="32.6208" filterUnits="userSpaceOnUse" color-interpolation-filters="sRGB">
<feFlood flood-opacity="0" result="BackgroundImageFix"/>
<feColorMatrix in="SourceAlpha" type="matrix" values="0 0 0 0 0 0 0 0 0 0 0 0 0 0 0 0 0 0 127 0" result="hardAlpha"/>
<feOffset dx="8" dy="8"/>
<feGaussianBlur stdDeviation="8"/>
<feColorMatrix type="matrix" values="0 0 0 0 0 0 0 0 0 0 0 0 0 0 0 0 0 0 0.08 0"/>
<feBlend mode="normal" in2="BackgroundImageFix" result="effect1_dropShadow_468_2129"/>
<feColorMatrix in="SourceAlpha" type="matrix" values="0 0 0 0 0 0 0 0 0 0 0 0 0 0 0 0 0 0 127 0" result="hardAlpha"/>
<feOffset/>
<feGaussianBlur stdDeviation="2"/>
<feColorMatrix type="matrix" values="0 0 0 0 0 0 0 0 0 0 0 0 0 0 0 0 0 0 0.04 0"/>
<feBlend mode="normal" in2="effect1_dropShadow_468_2129" result="effect2_dropShadow_468_2129"/>
<feBlend mode="normal" in="SourceGraphic" in2="effect2_dropShadow_468_2129" result="shape"/>
</filter>
<filter id="filter8_dd_468_2129" x="7.87695" y="8.3584" width="40.2998" height="37.9946" filterUnits="userSpaceOnUse" color-interpolation-filters="sRGB">
<feFlood flood-opacity="0" result="BackgroundImageFix"/>
<feColorMatrix in="SourceAlpha" type="matrix" values="0 0 0 0 0 0 0 0 0 0 0 0 0 0 0 0 0 0 127 0" result="hardAlpha"/>
<feOffset dx="8" dy="8"/>
<feGaussianBlur stdDeviation="8"/>
<feColorMatrix type="matrix" values="0 0 0 0 0 0 0 0 0 0 0 0 0 0 0 0 0 0 0.08 0"/>
<feBlend mode="normal" in2="BackgroundImageFix" result="effect1_dropShadow_468_2129"/>
<feColorMatrix in="SourceAlpha" type="matrix" values="0 0 0 0 0 0 0 0 0 0 0 0 0 0 0 0 0 0 127 0" result="hardAlpha"/>
<feOffset/>
<feGaussianBlur stdDeviation="2"/>
<feColorMatrix type="matrix" values="0 0 0 0 0 0 0 0 0 0 0 0 0 0 0 0 0 0 0.04 0"/>
<feBlend mode="normal" in2="effect1_dropShadow_468_2129" result="effect2_dropShadow_468_2129"/>
<feBlend mode="normal" in="SourceGraphic" in2="effect2_dropShadow_468_2129" result="shape"/>
</filter>
<filter id="filter9_dd_468_2129" x="18.083" y="4.32764" width="45.3457" height="38.1819" filterUnits="userSpaceOnUse" color-interpolation-filters="sRGB">
<feFlood flood-opacity="0" result="BackgroundImageFix"/>
<feColorMatrix in="SourceAlpha" type="matrix" values="0 0 0 0 0 0 0 0 0 0 0 0 0 0 0 0 0 0 127 0" result="hardAlpha"/>
<feOffset dx="8" dy="8"/>
<feGaussianBlur stdDeviation="8"/>
<feColorMatrix type="matrix" values="0 0 0 0 0 0 0 0 0 0 0 0 0 0 0 0 0 0 0.08 0"/>
<feBlend mode="normal" in2="BackgroundImageFix" result="effect1_dropShadow_468_2129"/>
<feColorMatrix in="SourceAlpha" type="matrix" values="0 0 0 0 0 0 0 0 0 0 0 0 0 0 0 0 0 0 127 0" result="hardAlpha"/>
<feOffset/>
<feGaussianBlur stdDeviation="2"/>
<feColorMatrix type="matrix" values="0 0 0 0 0 0 0 0 0 0 0 0 0 0 0 0 0 0 0.04 0"/>
<feBlend mode="normal" in2="effect1_dropShadow_468_2129" result="effect2_dropShadow_468_2129"/>
<feBlend mode="normal" in="SourceGraphic" in2="effect2_dropShadow_468_2129" result="shape"/>
</filter>
</defs>
</svg>
