<svg width="87" height="89" viewBox="0 0 87 89" fill="none" xmlns="http://www.w3.org/2000/svg">
<circle cx="34.1014" cy="35.721" r="27.6512" fill="#FCCC34"/>
<g filter="url(#filter0_dd_406_577)">
<path d="M10.3889 21.1088C10.501 20.8885 10.6253 20.6695 10.6662 20.6374C10.7079 20.5992 10.761 20.5684 10.7917 20.5719C10.8223 20.5754 10.9606 20.6157 11.0981 20.6621C11.2418 20.7092 11.5168 20.8019 11.715 20.8613C11.9124 20.9268 12.2454 21.0568 12.4455 21.1533C12.6524 21.2444 12.8607 21.3786 12.9089 21.4454C12.9953 21.5596 12.987 21.6323 12.8306 22.2955C12.7311 22.732 12.6595 23.1963 12.655 23.4534C12.6526 23.6924 12.6637 23.9759 12.688 24.0892C12.7069 24.1956 12.7728 24.3258 12.8368 24.3638C12.9062 24.4086 13.2304 24.4517 14.402 24.524L14.7484 24.7537C14.9382 24.8858 15.2335 25.1281 15.4001 25.3005C15.5668 25.4729 15.7675 25.6185 15.841 25.6269C15.9269 25.6367 16.0325 25.5813 16.111 25.4921C16.1834 25.4022 16.3036 25.2195 16.376 25.0744C16.4485 24.9293 16.6082 24.7266 16.7317 24.6242C16.8749 24.5117 17.1633 24.3789 17.4714 24.2913C17.7542 24.207 18.2313 24.0529 19.0663 23.7555L20.133 24.2576C20.9758 24.6544 21.2848 24.7755 21.573 24.8084C21.7752 24.8315 22.2106 24.8259 22.5369 24.7957C22.8633 24.7654 23.2128 24.7501 23.317 24.762C23.4212 24.7739 23.5975 24.8615 23.7268 24.9805C23.8506 25.0928 24.0749 25.3577 24.2299 25.5778C24.3794 25.7912 24.6927 26.2565 24.9265 26.6022C25.1542 26.9472 25.5607 27.466 26.3204 28.2644L26.7263 28.2985C26.9477 28.3176 27.3747 28.3847 27.6771 28.456C28.1 28.5595 28.326 28.6466 28.6847 28.8778C28.9399 29.0357 29.2896 29.2904 29.4583 29.4446C29.6277 29.5928 29.9303 29.9341 30.1302 30.1962C30.449 30.6129 30.4945 30.704 30.4717 30.9039C30.4579 31.025 30.3231 31.3348 30.1763 31.588C30.0294 31.8412 29.903 32.0784 29.8995 32.1086C29.8892 32.1443 29.9198 32.203 29.9579 32.2503C29.996 32.2976 30.2451 32.3996 30.5093 32.4789C30.7735 32.5581 31.3005 32.7287 31.6777 32.8515C32.0549 32.9743 32.5219 33.1809 32.7132 33.3009C32.9044 33.4209 33.2357 33.6734 33.4569 33.8582C33.6718 34.0422 33.9834 34.3048 34.1467 34.4523C34.3106 34.5937 34.6651 34.8612 35.4443 35.3795L36.8658 35.5479L37.408 35.9656C37.7047 36.1958 38.2782 36.6661 38.6864 37.0072C39.0946 37.3483 39.5075 37.7574 39.6196 37.9174C39.7256 38.0768 39.841 38.317 39.8817 38.4505C39.923 38.5779 39.9459 38.7584 39.9349 38.8553C39.9245 38.9462 39.8254 39.1619 39.7188 39.3338C39.6123 39.5057 39.4218 39.7601 39.3003 39.8996C39.1849 40.0398 38.9529 40.2772 38.7933 40.4246C38.6329 40.5781 38.2644 40.9778 37.9716 41.3125C37.6781 41.6533 37.3696 42.0169 37.2891 42.1243C37.2085 42.2317 37.0945 42.415 37.0384 42.5252C36.9674 42.6582 36.8553 43.259 36.7127 44.2366C36.5192 45.5521 36.467 45.7916 36.3112 46.1235C36.2127 46.3331 36.0255 46.6676 35.9026 46.8745C35.7735 47.0806 35.5591 47.3814 35.4226 47.5437C35.2492 47.7571 35.1278 47.8414 34.9758 47.867C34.8682 47.8854 34.5922 47.9091 34.3667 47.9263C34.1412 47.9436 33.5859 48.0213 33.1354 48.1049C32.6789 48.1878 32.1234 48.3208 31.8917 48.3925C31.66 48.4642 31.3736 48.5788 31.2536 48.651C31.1404 48.7178 30.9753 48.8585 30.8955 48.9599C30.7726 49.1115 30.7383 49.2487 30.6644 49.8968C30.6167 50.3147 30.5376 50.7903 30.4883 50.9504C30.4383 51.1165 30.2311 51.5714 30.0241 51.9711C29.8231 52.3715 29.5048 52.9304 29.3238 53.2103C29.1421 53.4964 28.9462 53.744 28.8753 53.7666C28.8106 53.7899 28.3841 53.7719 27.9305 53.7201C27.4333 53.6695 27.0934 53.6553 27.0831 53.6909C27.0667 53.7259 27.0714 53.7939 27.0781 53.8438C27.0909 53.8943 27.1888 54.0159 27.2956 54.114C27.4024 54.2121 27.499 54.3458 27.5159 54.4152C27.5267 54.4839 27.5142 54.593 27.4882 54.6575C27.4622 54.722 27.2781 54.8667 27.0728 54.9782C26.8676 55.0898 26.5847 55.2293 26.447 55.2933C26.3038 55.3506 26.068 55.4035 25.9188 55.4049C25.7751 55.413 25.5911 55.4472 25.5065 55.4805C25.4275 55.5206 25.3572 55.5924 25.3516 55.6408C25.3461 55.6893 25.4004 55.812 25.469 55.918C25.5384 56.018 25.6253 56.1813 25.6626 56.2898C25.6999 56.3984 25.7432 56.5629 25.7499 56.6679C25.7599 56.7979 25.7051 56.9512 25.5528 57.1976C25.4381 57.387 25.2633 57.6125 25.1596 57.705C25.062 57.7981 24.9316 57.9612 24.8633 58.07C24.7855 58.2083 24.7526 58.3334 24.7755 58.4587C24.7883 58.5645 24.8798 58.851 24.9823 59.0959C25.0786 59.34 25.1958 59.7277 25.2323 59.9527C25.2985 60.2977 25.2963 60.3711 25.2172 60.4111C25.164 60.4419 25.0162 60.4312 24.8896 60.3983C24.7629 60.3654 24.5028 60.2499 24.3109 60.1359C24.1183 60.0281 23.729 59.7934 23.4391 59.6131C23.1499 59.4267 22.4503 58.9727 21.8773 58.6066C21.2008 58.1675 20.7599 57.8411 20.6185 57.6654C20.4982 57.5228 20.3772 57.3311 20.3494 57.2482C20.3162 57.1585 20.2493 56.8195 20.1933 56.4941C20.1434 56.1694 20.0324 55.7272 19.951 55.5155C19.8696 55.3037 19.7732 55.0596 19.74 54.9699C19.7068 54.8802 19.6364 54.5715 19.5831 54.2771C19.5297 53.9826 19.4783 53.3448 19.46 52.8519C19.4417 52.3589 19.4107 51.7602 19.394 51.5252C19.3713 51.2895 19.3546 50.6188 19.3453 50.0471C19.3422 49.4762 19.3344 48.782 19.3281 48.5113C19.3278 48.2413 19.3196 47.8232 19.3091 47.5888C19.3047 47.3552 19.2952 46.9491 19.2867 46.6966C19.2783 46.4441 19.2565 46.0367 19.2398 45.8016C19.217 45.5659 19.1751 44.9537 19.1466 44.4412C19.1175 43.9347 19.0774 43.4148 19.0599 43.2962C19.0424 43.1776 18.9788 42.9188 18.9198 42.728C18.8609 42.5373 18.6761 42.1971 18.5205 41.983C18.3587 41.7682 18.0887 41.4675 17.9186 41.3254C17.7492 41.1772 17.3784 40.8895 17.092 40.6788C16.8062 40.4622 16.3857 40.1197 16.1558 39.9033C15.9252 39.6929 15.5872 39.3353 15.4016 39.1116C15.2228 38.8826 14.9808 38.5544 14.8653 38.3694C14.7491 38.1905 14.4787 37.7302 14.2675 37.3502C14.0501 36.9695 13.61 36.1463 13.2901 35.5208C12.9642 34.8946 12.6233 34.1808 12.5338 33.9313C12.4436 33.6878 12.3352 33.3319 12.2932 33.1553C12.2127 32.8271 12.2134 32.821 12.4241 32.2806C12.576 31.8746 12.6322 31.654 12.6271 31.4264C12.6212 31.26 12.63 30.9113 12.6399 30.6609C12.661 30.2584 12.683 30.175 12.8359 29.9777C12.9369 29.8542 13.1422 29.6875 13.295 29.6006C13.447 29.5198 13.6898 29.3511 13.8215 29.2312C13.9593 29.1119 14.162 28.8589 14.2829 28.6703C14.3976 28.4809 14.6069 28.0078 14.7444 27.6185C14.882 27.2293 15.0115 26.7471 15.0343 26.5472C15.0709 26.2814 15.0541 26.1016 14.9632 25.8642C14.9022 25.6916 14.7303 25.402 14.5889 25.2264C14.3931 24.9831 14.2788 24.8965 14.1439 24.8811C14.0397 24.8692 13.701 24.9533 13.3772 25.0697C13.0534 25.1862 12.7638 25.2758 12.7331 25.2723C12.7025 25.2688 12.5929 25.195 12.4909 25.1097C12.3956 25.0191 12.0734 24.5774 11.784 24.121C11.4945 23.6646 11.1329 23.1325 10.9882 22.9319C10.8373 22.7307 10.583 22.401 10.4267 22.193C10.2438 21.9451 10.1528 21.7629 10.1639 21.666C10.1735 21.5812 10.27 21.3345 10.3889 21.1088Z" fill="#D40511"/>
</g>
<g filter="url(#filter1_dd_406_577)">
<path d="M52.5904 27.1537C52.9376 27.035 53.2357 26.9288 53.2448 26.9133C53.2542 26.9027 53.3183 26.8893 53.3828 26.8859C53.4821 26.8807 53.5143 26.9242 53.6205 27.2402C53.6854 27.4328 53.8314 27.8422 53.9366 28.1382C54.0467 28.4339 54.1891 28.8686 54.2561 29.1012C54.3231 29.3339 54.4249 29.7556 54.4849 30.0439C54.5449 30.3322 54.6538 30.8893 54.7246 31.2876C54.8003 31.6856 54.905 32.1625 54.955 32.3558C55.01 32.5489 55.1073 32.79 55.1777 32.8969C55.248 33.0037 55.4219 33.1855 55.5575 33.304C55.6979 33.4172 55.9394 33.5603 56.0921 33.6226C56.321 33.7161 56.4465 33.7346 56.7938 33.7113C57.1413 33.693 57.2594 33.6667 57.4574 33.5508C57.588 33.4786 57.7939 33.322 57.912 33.2002C58.03 33.0785 58.1783 32.8697 58.2457 32.7304C58.3449 32.5343 58.3718 32.3821 58.3792 32.0501C58.3817 31.8138 58.3494 31.3883 58.3043 31.0993C58.2592 30.8102 58.1735 30.3172 58.1172 30.0036C58.0559 29.6903 57.9627 29.2429 57.9106 29.0095C57.8535 28.7763 57.76 28.4194 57.6996 28.2166C57.6441 28.0135 57.5216 27.6732 57.4311 27.4669C57.3404 27.2556 57.2288 26.929 57.2476 26.908C57.2662 26.8819 57.4411 27.0895 57.576 27.193C57.706 27.2967 57.9342 27.4706 58.0792 27.5785C58.2296 27.6912 58.4907 27.8283 58.6632 27.8895C58.947 27.9851 59.0521 27.9947 59.6379 27.9639C60.0004 27.9448 60.431 27.897 60.593 27.8533C60.7552 27.8146 60.9434 27.7947 61.0137 27.8061C61.1294 27.8301 61.1577 27.894 61.4286 28.7842C61.5906 29.3084 61.7602 29.8823 61.8094 30.0606C61.8586 30.2389 61.9662 30.6755 62.0494 31.0279C62.133 31.3853 62.2278 31.8627 62.26 32.0972C62.2873 32.3319 62.3583 32.7352 62.4117 32.9937C62.4652 33.2522 62.5557 34.0263 62.6069 34.717C62.6677 35.4927 62.6963 36.3203 62.6918 36.8984C62.684 37.4114 62.6295 38.364 62.5741 39.0151C62.5138 39.6665 62.4308 40.4548 62.392 40.7583C62.3532 41.0619 62.2938 41.4469 62.2625 41.6093C62.231 41.7668 62.1757 42.041 62.1403 42.2188C62.1045 42.3915 61.9864 42.8901 61.8698 43.3234C61.7581 43.7564 61.4993 44.6092 61.297 45.2128C61.0948 45.8164 60.8163 46.5797 60.6691 46.904C60.5268 47.2281 60.2879 47.703 60.1373 47.9621C59.9916 48.2211 59.8161 48.4815 59.755 48.5501C59.6751 48.6397 59.6314 48.6621 59.5943 48.6188C59.5629 48.5903 59.514 48.417 59.4794 48.2329C59.4448 48.0488 59.4076 47.7191 59.391 47.4989C59.361 47.1186 59.3487 47.074 59.0242 46.4881C58.8372 46.1512 58.6313 45.7399 58.5678 45.5724C58.499 45.4002 58.4421 45.172 58.4363 45.0618C58.4305 44.9515 58.4918 44.6016 58.5701 44.2909C58.653 43.975 58.7278 43.5992 58.7611 43.1905L58.5836 43.1294C58.4872 43.0943 58.2763 43.0602 58.1164 43.0485C57.9617 43.0416 57.7053 42.9947 57.5534 42.9475C57.3509 42.8827 57.2275 42.8088 57.1002 42.6598C56.9995 42.5444 56.8602 42.3558 56.7841 42.2342C56.703 42.1128 56.5859 41.9682 56.5181 41.9115C56.4554 41.8545 56.3119 41.7766 56.2055 41.742C56.1039 41.7021 55.8985 41.6778 55.7545 41.6853C55.6155 41.6927 55.3536 41.7316 55.1762 41.766C54.9991 41.8055 54.6706 41.9032 54.441 41.9856C54.2116 42.073 53.8955 42.2153 53.4461 42.4751L52.202 42.4853C51.515 42.4862 50.7689 42.5004 50.5356 42.5126C50.3022 42.5249 50.0226 42.5095 49.9118 42.4851C49.7958 42.4561 49.6209 42.3497 49.5004 42.2354C49.3853 42.1309 49.1665 41.851 49.0201 41.6225C48.8684 41.3893 48.6359 41.0397 48.5015 40.8508C48.3619 40.6572 48.0285 40.2828 47.7606 40.0155C47.3776 39.6437 47.2071 39.4315 46.9934 39.0609C46.7633 38.6609 46.717 38.5378 46.7106 38.322C46.7024 38.1667 46.7327 37.9842 46.7909 37.8605C46.8397 37.7474 46.9028 37.528 46.9346 37.3756C46.9615 37.2234 46.9747 36.9062 46.9573 36.6709C46.94 36.4356 46.8894 36.1368 46.8373 35.9988C46.7905 35.8656 46.6701 35.5654 46.5783 35.3341C46.47 35.0735 46.3967 34.816 46.3883 34.6557C46.3806 34.5103 46.4085 34.2827 46.4513 34.1498C46.4938 34.0119 46.6322 33.7082 46.7638 33.4651C46.8954 33.222 47.1108 32.869 47.2453 32.681C47.3798 32.493 47.6438 32.1173 47.8384 31.8408C48.0512 31.5331 48.2954 31.2539 48.4725 31.119C48.6253 30.9954 48.8552 30.8225 48.9798 30.7305C49.1961 30.5834 49.2327 30.5212 49.5156 29.843C49.6785 29.4375 49.8897 29.0043 49.9774 28.8741C50.0652 28.7438 50.2947 28.375 50.4872 28.0583C50.7572 27.6069 50.8692 27.4654 50.9721 27.4348C51.0505 27.4106 51.2052 27.4175 51.321 27.4416C51.4653 27.4709 51.6061 27.4668 51.7436 27.4294C51.8614 27.3981 52.2382 27.2728 52.5904 27.1537Z" fill="#D40511"/>
</g>
<g filter="url(#filter2_dd_406_577)">
<path d="M50.8881 20.3197C50.9583 20.2383 51.0987 20.1365 51.2014 20.0958C51.304 20.0601 51.5254 20.0245 52.006 20.0194L52.3462 20.335C52.5299 20.5131 52.7837 20.8135 52.9079 21.012C53.0267 21.2105 53.1779 21.4497 53.2319 21.5464C53.2913 21.6431 53.4641 21.918 53.61 22.1572C53.7612 22.3964 53.9988 22.8087 54.1338 23.0734C54.1375 23.0805 54.1412 23.0873 54.1447 23.0937C54.3434 23.4567 54.1843 22.6957 54.1447 23.0937C54.1425 23.1155 54.1407 23.1407 54.1393 23.1698L53.4642 23.8449C53.2428 23.8958 53.3615 24.3815 53.1401 24.4274C52.9187 24.4732 52.5137 24.5139 52.2436 24.519C51.79 24.5241 51.736 24.5139 51.493 24.3714C51.3472 24.2899 51.1419 24.1067 51.0393 23.9642C50.8989 23.7758 50.8395 23.6435 50.8233 23.4552C50.8125 23.3076 50.8395 23.0938 50.8827 22.9462C50.9313 22.8087 50.9961 22.5644 51.0339 22.4117C51.0717 22.259 51.0933 21.974 51.0771 21.7755C51.0609 21.521 51.0123 21.3428 50.9097 21.1545C50.8233 20.9916 50.7639 20.8033 50.7639 20.6811C50.7639 20.5488 50.8071 20.4266 50.8881 20.3197Z" fill="#D40511"/>
</g>
<g filter="url(#filter3_dd_406_577)">
<path d="M54.3956 21.8798C54.4131 21.8635 54.4482 21.8431 54.4739 21.835C54.4995 21.8278 54.5549 21.8207 54.675 21.8197L54.7601 21.8828C54.806 21.9184 54.8694 21.9785 54.9005 22.0182C54.9302 22.0579 54.968 22.1058 54.9815 22.1251C54.9964 22.1444 55.0396 22.1994 55.076 22.2473C55.1138 22.2951 55.1732 22.3776 55.207 22.4305C55.2637 22.517 55.2691 22.5333 55.2623 22.6473L55.1611 22.6657C55.1057 22.6758 55.0139 22.6921 54.9586 22.7013C54.9032 22.7105 54.8019 22.7186 54.7344 22.7196C54.621 22.7206 54.6075 22.7186 54.5468 22.6901C54.5103 22.6738 54.459 22.6372 54.4334 22.6087C54.3983 22.571 54.3834 22.5445 54.3794 22.5069C54.3767 22.4773 54.3834 22.4346 54.3942 22.4051C54.4064 22.3776 54.4226 22.3287 54.432 22.2982C54.4415 22.2676 54.4469 22.2106 54.4428 22.1709C54.4388 22.12 54.4266 22.0844 54.401 22.0467C54.3794 22.0141 54.3645 21.9765 54.3645 21.952C54.3645 21.9256 54.3753 21.9011 54.3956 21.8798Z" fill="#CD1B1A"/>
</g>
<g filter="url(#filter4_dd_406_577)">
<path d="M56.5392 20.3465C56.5488 20.3705 56.5551 20.4121 56.5526 20.4389C56.549 20.4652 56.5323 20.5175 56.4808 20.6234L56.3764 20.6644C56.3184 20.6857 56.2267 20.7094 56.1708 20.7156C56.1156 20.7205 56.0481 20.7282 56.0216 20.7298C55.9945 20.7325 55.9171 20.7412 55.8502 20.7477C55.7827 20.7554 55.6689 20.7637 55.5978 20.7651C55.4808 20.7688 55.4611 20.7649 55.3427 20.6984L55.3675 20.5999C55.3809 20.546 55.4037 20.4569 55.4182 20.4035C55.4326 20.3501 55.4682 20.257 55.4967 20.1973C55.5452 20.0973 55.5533 20.0866 55.6102 20.0485C55.6435 20.0252 55.705 19.9997 55.7466 19.9923C55.802 19.9816 55.8367 19.9826 55.8786 19.9991C55.9112 20.0124 55.9538 20.041 55.9805 20.0662C56.0044 20.0914 56.0494 20.1316 56.0777 20.1561C56.1061 20.1806 56.1645 20.2157 56.2085 20.2332C56.2645 20.2567 56.3077 20.265 56.359 20.2625C56.4032 20.2609 56.4498 20.2679 56.4758 20.2809C56.504 20.2949 56.5253 20.3174 56.5392 20.3465Z" fill="#CD1B1A"/>
</g>
<g filter="url(#filter5_dd_406_577)">
<path d="M55.1631 20.2308C55.1759 20.2098 55.2049 20.1796 55.2281 20.164C55.2517 20.1493 55.3048 20.1256 55.4245 20.0878L55.5279 20.1221C55.5841 20.1421 55.6651 20.1801 55.7077 20.2086C55.749 20.2375 55.8008 20.2716 55.8199 20.286C55.8404 20.2999 55.8997 20.3393 55.9501 20.3738C56.0018 20.408 56.0853 20.4687 56.1345 20.5089C56.2165 20.5743 56.2266 20.5882 56.2533 20.6993L56.1576 20.7478C56.1054 20.7745 56.0185 20.8182 55.9659 20.8439C55.9134 20.8696 55.8147 20.9084 55.7476 20.93C55.6347 20.9657 55.6206 20.9679 55.5516 20.9592C55.5105 20.9548 55.4485 20.9355 55.4145 20.9161C55.3685 20.8908 55.3459 20.87 55.3308 20.8353C55.3194 20.8079 55.3136 20.7649 55.3158 20.7334C55.3198 20.7034 55.3217 20.6517 55.3222 20.6196C55.3226 20.5875 55.3113 20.5314 55.2956 20.4947C55.2767 20.4472 55.2541 20.4169 55.2174 20.3887C55.1863 20.3642 55.1605 20.3327 55.1533 20.3094C55.1455 20.2841 55.1492 20.2574 55.1631 20.2308Z" fill="#CD1B1A"/>
</g>
<g filter="url(#filter6_dd_406_577)">
<path d="M53.0452 20.0795C53.0628 20.0632 53.0979 20.0428 53.1235 20.0347C53.1492 20.0276 53.2045 20.0204 53.3247 20.0194L53.4097 20.0825C53.4556 20.1182 53.5191 20.1782 53.5502 20.2179C53.5799 20.2576 53.6177 20.3055 53.6312 20.3248C53.646 20.3442 53.6892 20.3991 53.7257 20.447C53.7635 20.4948 53.8229 20.5773 53.8566 20.6302C53.9133 20.7167 53.9187 20.733 53.912 20.847L53.8107 20.8654C53.7554 20.8755 53.6636 20.8918 53.6082 20.901C53.5529 20.9102 53.4516 20.9183 53.3841 20.9193C53.2707 20.9203 53.2572 20.9183 53.1964 20.8898C53.16 20.8735 53.1087 20.8369 53.083 20.8084C53.0479 20.7707 53.0331 20.7442 53.029 20.7066C53.0263 20.677 53.0331 20.6343 53.0439 20.6048C53.056 20.5773 53.0722 20.5284 53.0817 20.4979C53.0911 20.4673 53.0965 20.4103 53.0925 20.3706C53.0884 20.3197 53.0763 20.2841 53.0506 20.2464C53.029 20.2138 53.0142 20.1762 53.0142 20.1517C53.0142 20.1253 53.025 20.1008 53.0452 20.0795Z" fill="#CD1B1A"/>
</g>
<g filter="url(#filter7_dd_406_577)">
<path d="M16.6807 14.323C16.7994 14.2509 16.9541 14.1765 17.0275 14.1568C17.1013 14.1321 17.2103 14.1154 17.2766 14.1207C17.3381 14.1206 17.5645 14.1746 17.7799 14.2379C17.9902 14.3009 18.3459 14.4062 18.5656 14.4801C18.7852 14.554 19.2778 14.7418 19.6599 14.9004C20.0416 15.064 20.5211 15.2866 20.7222 15.3998C20.9234 15.5131 21.1279 15.6471 21.1752 15.6969C21.2225 15.7467 21.2559 15.8414 21.2455 15.907C21.2406 15.9679 21.1529 16.1652 21.0558 16.3515C20.954 16.5323 20.8718 16.725 20.8775 16.7816C20.8832 16.8383 20.9399 16.8991 21.0096 16.9251C21.0793 16.9512 21.3022 16.9845 21.5056 17.006C21.7039 17.0271 21.921 17.0701 21.9847 17.1059C22.0434 17.1413 22.163 17.248 22.2474 17.3468C22.3462 17.4569 22.3941 17.563 22.3863 17.6594C22.3789 17.7508 22.321 17.833 22.2122 17.911C22.1249 17.9755 21.9879 18.0207 21.9115 18.0145C21.83 18.008 21.6382 17.9057 21.4693 17.7745C21.3 17.6485 21.0373 17.4076 20.8815 17.2418C20.7256 17.0759 20.5298 16.8967 20.4515 16.8495C20.3733 16.8023 20.2539 16.7569 20.1927 16.752C20.1265 16.7466 19.9229 16.7915 19.7337 16.8478C19.5446 16.9041 19.2512 17.044 19.0835 17.1531C18.8509 17.3029 18.7241 17.3489 18.5916 17.3382C18.4948 17.3304 18.1753 17.2229 17.8828 17.0972C17.4463 16.9138 17.3261 16.8786 17.2307 16.9169C17.1463 16.9458 17.1053 17.009 17.0975 17.1054C17.0906 17.1917 17.1859 17.4089 17.3574 17.6986C17.5063 17.9507 17.6243 18.2055 17.6189 18.2715C17.614 18.3324 17.5675 18.4002 17.52 18.4168C17.4671 18.438 17.2952 18.4702 17.1399 18.4883C16.9846 18.5065 16.6646 18.5318 16.4329 18.5437C16.1706 18.5533 15.947 18.5914 15.8605 18.6458C15.7745 18.695 15.6155 18.7589 15.5002 18.7904C15.3848 18.822 15.1948 18.8885 14.8658 19.0254L14.7381 18.8925C14.6623 18.8149 14.5496 18.7496 14.4783 18.7438C14.3967 18.7373 14.306 18.7811 14.2375 18.8675C14.1702 18.9387 14.1209 19.042 14.1164 19.0979C14.1119 19.1537 14.1599 19.3211 14.2151 19.4635C14.275 19.6114 14.3171 19.7885 14.3106 19.8697C14.3045 19.9458 14.2306 20.0983 14.1444 20.2139C14.0585 20.3245 13.9283 20.4775 13.8508 20.5479C13.7729 20.6234 13.6276 20.7088 13.5377 20.7424C13.4427 20.7756 13.3347 20.8435 13.3047 20.8973C13.257 20.9803 13.2783 21.0332 13.4267 21.229C13.5511 21.3821 13.618 21.5272 13.6275 21.6642C13.6427 21.7931 13.6064 21.9895 13.5387 22.1935C13.473 22.3721 13.379 22.5843 13.3266 22.6618C13.2632 22.7486 13.1712 22.8076 13.094 22.8116C13.0269 22.8165 12.933 22.7731 12.8861 22.7182C12.8393 22.6634 12.7828 22.5362 12.76 22.4373C12.7372 22.3384 12.6845 22.1655 12.6417 22.0599C12.5943 21.9488 12.5132 21.8094 12.457 21.7436C12.3578 21.6385 12.2974 21.6234 11.8122 21.5996C11.5162 21.5809 11.078 21.5456 10.8335 21.5258C10.4572 21.4853 10.382 21.4639 10.3623 21.3908C10.346 21.3384 10.353 21.2521 10.3728 21.1975C10.3976 21.1433 10.5805 20.8464 10.7846 20.5409C10.9938 20.2359 11.2665 19.844 11.3933 19.6703C11.5252 19.497 11.7776 19.1648 11.9611 18.9242C12.1391 18.6882 12.532 18.2038 12.8323 17.8499C13.1276 17.4956 13.6218 16.9632 13.9282 16.6609C14.2342 16.3637 14.7227 15.9024 15.0101 15.6445C15.2976 15.3867 15.743 15.0138 16.0005 14.8098C16.2575 14.6108 16.5625 14.3902 16.6807 14.323Z" fill="#D40511"/>
</g>
<g filter="url(#filter8_dd_406_577)">
<path d="M30.957 8.37254C31.4231 8.32723 31.9437 8.28291 32.122 8.27637C32.3004 8.26983 33.3693 8.28919 34.4974 8.31939C35.9768 8.35596 36.7434 8.39428 37.2423 8.45707C37.6225 8.50793 38.2001 8.59658 38.5257 8.65622C38.8515 8.71099 39.4037 8.83338 39.7585 8.92287C40.1133 9.01237 40.6206 9.15349 40.8914 9.23657C41.1621 9.31966 41.6493 9.47996 41.9739 9.59334C42.2986 9.70673 42.7412 9.86622 42.9576 9.94832C43.1739 10.0304 43.5277 10.1737 43.7439 10.2655C43.96 10.3574 44.2202 10.4745 44.3183 10.5251C44.4606 10.5961 44.5042 10.6507 44.5025 10.7435C44.5011 10.8216 44.4401 10.9085 44.3346 10.9945C44.2492 11.0614 43.9493 11.2221 43.6747 11.349C43.3653 11.49 43.1113 11.5734 43.0024 11.5714C42.9084 11.5697 42.6081 11.4763 42.3379 11.3639C42.0678 11.2466 41.7089 11.1082 41.5366 11.0562C41.3693 10.9994 41.1975 10.9182 41.1586 10.8784C41.1197 10.8386 40.8694 10.7216 40.6039 10.6191C40.3434 10.5167 40.0433 10.4135 39.9399 10.3872C39.8413 10.361 39.6743 10.2895 39.5715 10.229C39.4295 10.1434 39.2865 10.1115 38.9205 10.0902C38.5102 10.0632 38.4408 10.0669 38.3552 10.1484C38.2644 10.2396 38.2644 10.2396 38.3523 10.3047C38.4061 10.3399 38.5937 10.3677 38.8016 10.3715C38.9995 10.375 39.207 10.3983 39.2609 10.4286C39.3149 10.4541 39.3587 10.4939 39.3584 10.5135C39.3629 10.538 39.2179 10.6184 39.048 10.7033C38.8733 10.7832 38.6881 10.8971 38.6326 10.9548C38.5771 11.0124 38.4468 11.1029 38.342 11.1498C38.2421 11.1969 37.983 11.2899 37.7691 11.3496C37.5601 11.4093 37.2966 11.473 37.1873 11.4905C37.0781 11.5081 36.7548 11.5951 36.4661 11.6827C36.1773 11.7752 35.9131 11.873 35.878 11.9017C35.8428 11.9304 35.812 11.9933 35.8161 12.0374C35.8152 12.0862 35.8634 12.1604 35.9221 12.2006C35.9856 12.2457 36.1821 12.3274 36.3643 12.3796C36.6154 12.4574 36.6987 12.5029 36.6976 12.5664C36.6967 12.6153 36.5651 12.7741 36.4041 12.9178C36.2431 13.0615 35.9573 13.2615 35.7675 13.3558C35.5727 13.45 34.925 13.6826 34.3226 13.8721C33.7201 14.0615 33.0378 14.2934 32.8034 14.3869C32.569 14.4804 32.1898 14.6495 31.5308 14.9551L31.2129 15.5602C31.0386 15.8942 30.8481 16.2963 30.7908 16.4565C30.7384 16.6168 30.6401 16.8496 30.5834 16.9756C30.5113 17.1258 30.4354 17.2172 30.3608 17.2354C30.3012 17.249 30.1383 17.2216 30.0055 17.1752C29.8727 17.1289 29.4505 16.9355 29.0727 16.7479C28.6409 16.5348 28.2675 16.3815 28.0653 16.3387C27.8877 16.3062 27.6713 16.229 27.5831 16.1785C27.4999 16.1233 27.3442 15.9739 27.2427 15.8401C27.146 15.7113 26.9341 15.3849 26.7806 15.1134C26.4975 14.6196 26.4975 14.6196 26.5702 14.4353C26.6273 14.2848 26.6283 14.2311 26.5849 14.1668C26.5511 14.1222 26.4746 13.9693 26.4176 13.8364C26.3607 13.6985 26.2321 13.4226 26.1318 13.2204C26.0315 13.0182 25.951 12.8164 25.9517 12.7774C25.9524 12.7383 25.9005 12.6005 25.8336 12.4674C25.7666 12.3391 25.6628 12.0538 25.6026 11.828C25.5422 11.607 25.4626 11.3563 25.4195 11.2774C25.3813 11.1985 25.3202 11.0215 25.283 10.8889C25.2507 10.7564 25.2082 10.6432 25.1837 10.633C25.164 10.6229 25.1503 10.5591 25.1516 10.4907C25.1528 10.4223 25.1793 10.3251 25.205 10.2718C25.2308 10.2185 25.2675 10.1019 25.279 10.0141C25.2904 9.93128 25.3171 9.82426 25.3327 9.78545C25.3532 9.74673 25.4387 9.6701 25.5288 9.61309C25.6139 9.56088 25.8136 9.47166 25.963 9.42061C26.1125 9.36469 26.5504 9.24068 26.9334 9.14012C27.3165 9.03467 27.9976 8.8711 28.4499 8.77179C28.9022 8.67248 29.4586 8.5604 29.6919 8.52554C29.9253 8.48579 30.4908 8.42273 30.957 8.37254Z" fill="#D40511"/>
</g>
<path d="M50.7639 20.2445C51.439 20.2445 51.4966 19.9488 52.1141 19.7945C52.6359 19.664 52.8174 19.5652 52.8406 19.4961C52.8401 19.496 52.8397 19.4959 52.8392 19.4958C52.0047 19.336 52.8975 19.3268 52.8406 19.4961C53.452 19.6125 52.7897 19.045 53.4642 18.1457C54.1393 16.7955 52.1141 17.2455 52.3391 17.0205C52.5641 16.7955 52.7892 16.1204 53.4642 16.5705C54.1393 17.0205 53.6893 16.7955 55.2645 18.1457C56.8396 19.4958 57.0647 18.8207 57.5147 20.1709C57.9648 21.5211 60.215 23.0962 58.1898 23.5463C56.1646 23.9964 54.8144 23.5463 54.1393 23.7713C52.8945 24.1863 52.9392 23.2463 52.5641 23.3213L50.7639 20.2445Z" fill="#D40511"/>
<path d="M55.6948 33.8533C56.156 34.0543 57.9301 33.5103 58.143 33.2738L58.7817 32.5642L58.9119 30.7546C58.971 30.4511 59.0372 29.7115 58.8291 29.1816C58.5689 28.5193 58.3324 28.3064 58.084 27.8688C57.8357 27.4312 57.3508 26.7807 57.1142 26.5678C56.8777 26.3549 57.1142 26.5678 56.8895 26.5796C56.6648 26.5914 56.5242 26.3107 56.2995 26.3225C56.0747 26.3343 56.3231 26.7719 55.8618 26.5708C55.4006 26.3698 55.4619 26.3964 54.8434 26.2366C54.4077 26.1239 54.6305 26.4731 54.1811 26.4967L53.507 26.5322L53.2822 26.544L53.2941 26.7687C53.3059 26.9934 53.0812 27.0053 53.3295 27.4429C53.5779 27.8805 53.3413 27.6676 53.6015 28.3299C53.8617 28.9923 53.8735 29.217 53.909 29.8911C53.9444 30.5653 53.7552 31.2512 54.311 33.25C54.8668 35.2488 55.2335 33.6522 55.6948 33.8533Z" fill="#CC1C1B"/>
<path d="M34.2573 2.00738C43.204 1.81566 51.4482 5.37088 57.8745 11.5222C57.959 11.6021 58.0435 11.682 58.1306 11.7643C62.9549 16.3422 66.1754 22.373 67.5592 28.8528C67.5894 28.9924 67.6196 29.132 67.6508 29.2758C68.4631 33.2317 68.4436 37.8314 67.5592 41.7657C67.5272 41.9142 67.4953 42.0627 67.4624 42.2156C65.4352 51.4161 59.9362 59.7382 54.2301 67.0826C53.9804 67.4039 53.7319 67.7261 53.4834 68.0483C52.467 69.3604 51.4051 70.6272 50.3171 71.8803C50.0573 72.1808 49.7995 72.483 49.5424 72.7858C48.572 73.9275 47.5825 75.0463 46.565 76.1461C46.2328 76.5075 45.9081 76.8725 45.588 77.2445C44.7237 78.2402 43.8125 79.1938 42.9103 80.1551C42.5801 80.5075 42.2508 80.8607 41.9217 81.2141C40.8776 82.334 39.832 83.4465 38.7333 84.5134C38.4018 84.8537 38.0916 85.1999 37.7816 85.5594C37.1267 86.3139 36.431 87.0214 35.7228 87.7257C35.5999 87.8492 35.477 87.9728 35.3504 88.1C35.2337 88.2165 35.117 88.3331 34.9967 88.4531C34.8913 88.5584 34.7858 88.6636 34.6772 88.772C34.4272 89 34.4272 89 34.2573 89C34.2573 81.3746 34.2573 73.7491 34.2573 65.8926C35.9394 65.7244 37.6215 65.5562 39.3545 65.3829C44.8363 64.2927 50.0116 62.1233 54.1173 58.2454C54.446 57.9356 54.7854 57.6514 55.1347 57.3654C58.8099 54.1329 61.3085 49.4178 62.8018 44.8241C62.8427 44.7009 62.8836 44.5778 62.9258 44.4509C65.347 37.0343 64.3474 28.8649 60.9055 21.9574C59.6517 19.5347 58.0501 17.4029 56.1754 15.4301C55.9689 15.1904 55.7635 14.9497 55.5595 14.708C53.8165 12.7149 51.4955 11.1259 49.2092 9.82312C49.0997 9.76023 48.9902 9.69735 48.8773 9.63256C47.1218 8.63461 45.3601 7.87166 43.4323 7.27451C43.3113 7.23599 43.1903 7.19747 43.0655 7.15778C40.191 6.25299 37.2586 5.89692 34.2573 5.74534C34.2573 4.51181 34.2573 3.27828 34.2573 2.00738Z" fill="#FFD736"/>
<path d="M34.365 2.00738C25.4184 1.81566 17.1741 5.37088 10.7478 11.5222C10.6633 11.6021 10.5788 11.682 10.4917 11.7643C5.66736 16.3422 2.44695 22.373 1.06312 28.8528C1.0329 28.9924 1.00267 29.132 0.971531 29.2758C0.159237 33.2317 0.178691 37.8314 1.06312 41.7657C1.09507 41.9142 1.12702 42.0627 1.15994 42.2156C3.18711 51.4161 8.68608 59.7382 14.3922 67.0826C14.6419 67.4039 14.8904 67.7261 15.1389 68.0483C16.1553 69.3604 17.2172 70.6272 18.3052 71.8803C18.565 72.1808 18.8228 72.483 19.08 72.7858C20.0503 73.9275 21.0398 75.0463 22.0573 76.1461C22.3895 76.5075 22.7142 76.8725 23.0343 77.2445C23.8986 78.2402 24.8098 79.1938 25.712 80.1551C26.0422 80.5075 26.3715 80.8607 26.7006 81.2141C27.7447 82.334 28.7903 83.4465 29.889 84.5134C30.2205 84.8537 30.5307 85.1999 30.8407 85.5594C31.4956 86.3139 32.1913 87.0214 32.8995 87.7257C33.0224 87.8492 33.1453 87.9728 33.2719 88.1C33.3886 88.2165 33.5054 88.3331 33.6256 88.4531C33.7311 88.5584 33.8365 88.6636 33.9451 88.772C34.1951 89 34.1951 89 34.365 89C34.365 81.3746 34.365 73.7491 34.365 65.8926C32.6829 65.7244 31.0008 65.5562 29.2678 65.3829C23.786 64.2927 18.6107 62.1233 14.5051 58.2454C14.1764 57.9356 13.8369 57.6514 13.4876 57.3654C9.81239 54.1329 7.31382 49.4178 5.82053 44.8241C5.7796 44.7009 5.73867 44.5778 5.6965 44.4509C3.27527 37.0343 4.27489 28.8649 7.71685 21.9574C8.97063 19.5347 10.5722 17.4029 12.4469 15.4301C12.6534 15.1904 12.8588 14.9497 13.0628 14.708C14.8058 12.7149 17.1268 11.1259 19.4131 9.82312C19.5226 9.76023 19.6322 9.69735 19.745 9.63256C21.5005 8.63461 23.2622 7.87166 25.19 7.27451C25.311 7.23599 25.4321 7.19747 25.5568 7.15778C28.4313 6.25299 31.3637 5.89692 34.365 5.74534C34.365 4.51181 34.365 3.27828 34.365 2.00738Z" fill="#FFCC00"/>
<circle cx="34.2574" cy="35.8769" r="29.0311" stroke="#FFE580" stroke-width="3"/>
<defs>
<filter id="filter0_dd_406_577" x="2.16309" y="12.5717" width="61.7747" height="71.8577" filterUnits="userSpaceOnUse" color-interpolation-filters="sRGB">
<feFlood flood-opacity="0" result="BackgroundImageFix"/>
<feColorMatrix in="SourceAlpha" type="matrix" values="0 0 0 0 0 0 0 0 0 0 0 0 0 0 0 0 0 0 127 0" result="hardAlpha"/>
<feOffset dx="8" dy="8"/>
<feGaussianBlur stdDeviation="8"/>
<feColorMatrix type="matrix" values="0 0 0 0 0 0 0 0 0 0 0 0 0 0 0 0 0 0 0.08 0"/>
<feBlend mode="normal" in2="BackgroundImageFix" result="effect1_dropShadow_406_577"/>
<feColorMatrix in="SourceAlpha" type="matrix" values="0 0 0 0 0 0 0 0 0 0 0 0 0 0 0 0 0 0 127 0" result="hardAlpha"/>
<feOffset/>
<feGaussianBlur stdDeviation="2"/>
<feColorMatrix type="matrix" values="0 0 0 0 0 0 0 0 0 0 0 0 0 0 0 0 0 0 0.04 0"/>
<feBlend mode="normal" in2="effect1_dropShadow_406_577" result="effect2_dropShadow_406_577"/>
<feBlend mode="normal" in="SourceGraphic" in2="effect2_dropShadow_406_577" result="shape"/>
</filter>
<filter id="filter1_dd_406_577" x="38.387" y="18.8855" width="48.3054" height="53.7546" filterUnits="userSpaceOnUse" color-interpolation-filters="sRGB">
<feFlood flood-opacity="0" result="BackgroundImageFix"/>
<feColorMatrix in="SourceAlpha" type="matrix" values="0 0 0 0 0 0 0 0 0 0 0 0 0 0 0 0 0 0 127 0" result="hardAlpha"/>
<feOffset dx="8" dy="8"/>
<feGaussianBlur stdDeviation="8"/>
<feColorMatrix type="matrix" values="0 0 0 0 0 0 0 0 0 0 0 0 0 0 0 0 0 0 0.08 0"/>
<feBlend mode="normal" in2="BackgroundImageFix" result="effect1_dropShadow_406_577"/>
<feColorMatrix in="SourceAlpha" type="matrix" values="0 0 0 0 0 0 0 0 0 0 0 0 0 0 0 0 0 0 127 0" result="hardAlpha"/>
<feOffset/>
<feGaussianBlur stdDeviation="2"/>
<feColorMatrix type="matrix" values="0 0 0 0 0 0 0 0 0 0 0 0 0 0 0 0 0 0 0.04 0"/>
<feBlend mode="normal" in2="effect1_dropShadow_406_577" result="effect2_dropShadow_406_577"/>
<feBlend mode="normal" in="SourceGraphic" in2="effect2_dropShadow_406_577" result="shape"/>
</filter>
<filter id="filter2_dd_406_577" x="42.7639" y="12.0194" width="35.4785" height="36.5005" filterUnits="userSpaceOnUse" color-interpolation-filters="sRGB">
<feFlood flood-opacity="0" result="BackgroundImageFix"/>
<feColorMatrix in="SourceAlpha" type="matrix" values="0 0 0 0 0 0 0 0 0 0 0 0 0 0 0 0 0 0 127 0" result="hardAlpha"/>
<feOffset dx="8" dy="8"/>
<feGaussianBlur stdDeviation="8"/>
<feColorMatrix type="matrix" values="0 0 0 0 0 0 0 0 0 0 0 0 0 0 0 0 0 0 0.08 0"/>
<feBlend mode="normal" in2="BackgroundImageFix" result="effect1_dropShadow_406_577"/>
<feColorMatrix in="SourceAlpha" type="matrix" values="0 0 0 0 0 0 0 0 0 0 0 0 0 0 0 0 0 0 127 0" result="hardAlpha"/>
<feOffset/>
<feGaussianBlur stdDeviation="2"/>
<feColorMatrix type="matrix" values="0 0 0 0 0 0 0 0 0 0 0 0 0 0 0 0 0 0 0.04 0"/>
<feBlend mode="normal" in2="effect1_dropShadow_406_577" result="effect2_dropShadow_406_577"/>
<feBlend mode="normal" in="SourceGraphic" in2="effect2_dropShadow_406_577" result="shape"/>
</filter>
<filter id="filter3_dd_406_577" x="46.3645" y="13.8197" width="32.9001" height="32.9001" filterUnits="userSpaceOnUse" color-interpolation-filters="sRGB">
<feFlood flood-opacity="0" result="BackgroundImageFix"/>
<feColorMatrix in="SourceAlpha" type="matrix" values="0 0 0 0 0 0 0 0 0 0 0 0 0 0 0 0 0 0 127 0" result="hardAlpha"/>
<feOffset dx="8" dy="8"/>
<feGaussianBlur stdDeviation="8"/>
<feColorMatrix type="matrix" values="0 0 0 0 0 0 0 0 0 0 0 0 0 0 0 0 0 0 0.08 0"/>
<feBlend mode="normal" in2="BackgroundImageFix" result="effect1_dropShadow_406_577"/>
<feColorMatrix in="SourceAlpha" type="matrix" values="0 0 0 0 0 0 0 0 0 0 0 0 0 0 0 0 0 0 127 0" result="hardAlpha"/>
<feOffset/>
<feGaussianBlur stdDeviation="2"/>
<feColorMatrix type="matrix" values="0 0 0 0 0 0 0 0 0 0 0 0 0 0 0 0 0 0 0.04 0"/>
<feBlend mode="normal" in2="effect1_dropShadow_406_577" result="effect2_dropShadow_406_577"/>
<feBlend mode="normal" in="SourceGraphic" in2="effect2_dropShadow_406_577" result="shape"/>
</filter>
<filter id="filter4_dd_406_577" x="47.3428" y="11.9852" width="33.2104" height="32.7809" filterUnits="userSpaceOnUse" color-interpolation-filters="sRGB">
<feFlood flood-opacity="0" result="BackgroundImageFix"/>
<feColorMatrix in="SourceAlpha" type="matrix" values="0 0 0 0 0 0 0 0 0 0 0 0 0 0 0 0 0 0 127 0" result="hardAlpha"/>
<feOffset dx="8" dy="8"/>
<feGaussianBlur stdDeviation="8"/>
<feColorMatrix type="matrix" values="0 0 0 0 0 0 0 0 0 0 0 0 0 0 0 0 0 0 0.08 0"/>
<feBlend mode="normal" in2="BackgroundImageFix" result="effect1_dropShadow_406_577"/>
<feColorMatrix in="SourceAlpha" type="matrix" values="0 0 0 0 0 0 0 0 0 0 0 0 0 0 0 0 0 0 127 0" result="hardAlpha"/>
<feOffset/>
<feGaussianBlur stdDeviation="2"/>
<feColorMatrix type="matrix" values="0 0 0 0 0 0 0 0 0 0 0 0 0 0 0 0 0 0 0.04 0"/>
<feBlend mode="normal" in2="effect1_dropShadow_406_577" result="effect2_dropShadow_406_577"/>
<feBlend mode="normal" in="SourceGraphic" in2="effect2_dropShadow_406_577" result="shape"/>
</filter>
<filter id="filter5_dd_406_577" x="47.1492" y="12.0878" width="33.1042" height="32.8757" filterUnits="userSpaceOnUse" color-interpolation-filters="sRGB">
<feFlood flood-opacity="0" result="BackgroundImageFix"/>
<feColorMatrix in="SourceAlpha" type="matrix" values="0 0 0 0 0 0 0 0 0 0 0 0 0 0 0 0 0 0 127 0" result="hardAlpha"/>
<feOffset dx="8" dy="8"/>
<feGaussianBlur stdDeviation="8"/>
<feColorMatrix type="matrix" values="0 0 0 0 0 0 0 0 0 0 0 0 0 0 0 0 0 0 0.08 0"/>
<feBlend mode="normal" in2="BackgroundImageFix" result="effect1_dropShadow_406_577"/>
<feColorMatrix in="SourceAlpha" type="matrix" values="0 0 0 0 0 0 0 0 0 0 0 0 0 0 0 0 0 0 127 0" result="hardAlpha"/>
<feOffset/>
<feGaussianBlur stdDeviation="2"/>
<feColorMatrix type="matrix" values="0 0 0 0 0 0 0 0 0 0 0 0 0 0 0 0 0 0 0.04 0"/>
<feBlend mode="normal" in2="effect1_dropShadow_406_577" result="effect2_dropShadow_406_577"/>
<feBlend mode="normal" in="SourceGraphic" in2="effect2_dropShadow_406_577" result="shape"/>
</filter>
<filter id="filter6_dd_406_577" x="45.0142" y="12.0194" width="32.9001" height="32.9001" filterUnits="userSpaceOnUse" color-interpolation-filters="sRGB">
<feFlood flood-opacity="0" result="BackgroundImageFix"/>
<feColorMatrix in="SourceAlpha" type="matrix" values="0 0 0 0 0 0 0 0 0 0 0 0 0 0 0 0 0 0 127 0" result="hardAlpha"/>
<feOffset dx="8" dy="8"/>
<feGaussianBlur stdDeviation="8"/>
<feColorMatrix type="matrix" values="0 0 0 0 0 0 0 0 0 0 0 0 0 0 0 0 0 0 0.08 0"/>
<feBlend mode="normal" in2="BackgroundImageFix" result="effect1_dropShadow_406_577"/>
<feColorMatrix in="SourceAlpha" type="matrix" values="0 0 0 0 0 0 0 0 0 0 0 0 0 0 0 0 0 0 127 0" result="hardAlpha"/>
<feOffset/>
<feGaussianBlur stdDeviation="2"/>
<feColorMatrix type="matrix" values="0 0 0 0 0 0 0 0 0 0 0 0 0 0 0 0 0 0 0.04 0"/>
<feBlend mode="normal" in2="effect1_dropShadow_406_577" result="effect2_dropShadow_406_577"/>
<feBlend mode="normal" in="SourceGraphic" in2="effect2_dropShadow_406_577" result="shape"/>
</filter>
<filter id="filter7_dd_406_577" x="2.35327" y="6.11975" width="44.0339" height="40.6923" filterUnits="userSpaceOnUse" color-interpolation-filters="sRGB">
<feFlood flood-opacity="0" result="BackgroundImageFix"/>
<feColorMatrix in="SourceAlpha" type="matrix" values="0 0 0 0 0 0 0 0 0 0 0 0 0 0 0 0 0 0 127 0" result="hardAlpha"/>
<feOffset dx="8" dy="8"/>
<feGaussianBlur stdDeviation="8"/>
<feColorMatrix type="matrix" values="0 0 0 0 0 0 0 0 0 0 0 0 0 0 0 0 0 0 0.08 0"/>
<feBlend mode="normal" in2="BackgroundImageFix" result="effect1_dropShadow_406_577"/>
<feColorMatrix in="SourceAlpha" type="matrix" values="0 0 0 0 0 0 0 0 0 0 0 0 0 0 0 0 0 0 127 0" result="hardAlpha"/>
<feOffset/>
<feGaussianBlur stdDeviation="2"/>
<feColorMatrix type="matrix" values="0 0 0 0 0 0 0 0 0 0 0 0 0 0 0 0 0 0 0.04 0"/>
<feBlend mode="normal" in2="effect1_dropShadow_406_577" result="effect2_dropShadow_406_577"/>
<feBlend mode="normal" in="SourceGraphic" in2="effect2_dropShadow_406_577" result="shape"/>
</filter>
<filter id="filter8_dd_406_577" x="17.1516" y="0.275146" width="51.3508" height="40.9637" filterUnits="userSpaceOnUse" color-interpolation-filters="sRGB">
<feFlood flood-opacity="0" result="BackgroundImageFix"/>
<feColorMatrix in="SourceAlpha" type="matrix" values="0 0 0 0 0 0 0 0 0 0 0 0 0 0 0 0 0 0 127 0" result="hardAlpha"/>
<feOffset dx="8" dy="8"/>
<feGaussianBlur stdDeviation="8"/>
<feColorMatrix type="matrix" values="0 0 0 0 0 0 0 0 0 0 0 0 0 0 0 0 0 0 0.08 0"/>
<feBlend mode="normal" in2="BackgroundImageFix" result="effect1_dropShadow_406_577"/>
<feColorMatrix in="SourceAlpha" type="matrix" values="0 0 0 0 0 0 0 0 0 0 0 0 0 0 0 0 0 0 127 0" result="hardAlpha"/>
<feOffset/>
<feGaussianBlur stdDeviation="2"/>
<feColorMatrix type="matrix" values="0 0 0 0 0 0 0 0 0 0 0 0 0 0 0 0 0 0 0.04 0"/>
<feBlend mode="normal" in2="effect1_dropShadow_406_577" result="effect2_dropShadow_406_577"/>
<feBlend mode="normal" in="SourceGraphic" in2="effect2_dropShadow_406_577" result="shape"/>
</filter>
</defs>
</svg>
