<svg width="16" height="24" viewBox="0 0 16 24" fill="none" xmlns="http://www.w3.org/2000/svg">
<path d="M8 0C5.87998 0.00556079 3.84838 0.850201 2.34929 2.34929C0.850201 3.84838 0.00556079 5.87998 0 8C0.00391757 8.70747 0.104241 9.4111 0.2982 10.0915C0.422618 10.5419 0.586059 10.9806 0.786667 11.4027C0.965867 11.7787 8 24 8 24C8 24 15.0067 11.7787 15.1859 11.4027C15.3865 10.9806 15.55 10.5419 15.6745 10.0915C15.8775 9.41233 15.987 8.7087 16 8C15.9944 5.87998 15.1498 3.84838 13.6507 2.34929C12.1516 0.850201 10.12 0.00556079 8 0ZM8 11.3333C7.12348 11.3095 6.28942 10.9506 5.6694 10.3306C5.04937 9.71058 4.69052 8.87652 4.66667 8C4.69052 7.12348 5.04937 6.28942 5.6694 5.6694C6.28942 5.04937 7.12348 4.69052 8 4.66667C8.87652 4.69052 9.71058 5.04937 10.3306 5.6694C10.9506 6.28942 11.3095 7.12348 11.3333 8C11.3095 8.87652 10.9506 9.71058 10.3306 10.3306C9.71058 10.9506 8.87652 11.3095 8 11.3333Z" fill="white"/>
</svg>
