<svg width="28" height="27" viewBox="0 0 28 27" fill="none" xmlns="http://www.w3.org/2000/svg">
<path d="M18.5089 25.25C18.8031 25.7516 19.0981 26.2542 19.389 26.75H10.25C6.5282 26.75 3.5 23.7218 3.5 20V13.25H5V20C5 22.8949 7.35507 25.25 10.25 25.25H18.5089ZM27.5 14.25C27.4897 14.8037 27.4024 15.3534 27.2407 15.8839C27.1414 16.2358 27.0112 16.5785 26.8513 16.9083C26.7085 17.2021 21.125 26.7499 21.125 26.7499C21.125 26.7499 15.5197 17.2021 15.3769 16.9083C15.217 16.5786 15.0867 16.2358 14.9876 15.8839C14.833 15.3524 14.7531 14.8026 14.75 14.25C14.7592 10.8019 17.608 8.00908 21.125 8C24.642 8.00908 27.4908 10.802 27.5 14.25ZM23.75 14.375C23.75 12.9253 22.5748 11.75 21.125 11.75C19.6752 11.75 18.5 12.9253 18.5 14.375C18.5 15.8247 19.6752 17 21.125 17C22.5748 17 23.75 15.8247 23.75 14.375ZM8 4.25C7.99393 4.58217 7.94263 4.91203 7.84745 5.2304C7.7891 5.44153 7.71245 5.64718 7.6184 5.84503C7.53433 6.02128 4.25 11.7501 4.25 11.7501C4.25 11.7501 0.9527 6.02135 0.8687 5.84503C0.77465 5.64725 0.698075 5.44153 0.6398 5.2304C0.548825 4.9115 0.5018 4.58157 0.5 4.25C0.505475 2.1812 2.1812 0.505475 4.25 0.5C6.3188 0.505475 7.99452 2.1812 8 4.25ZM5.75 4.25C5.75 3.42155 5.07845 2.75 4.25 2.75C3.42155 2.75 2.75 3.42155 2.75 4.25C2.75 5.07845 3.42155 5.75 4.25 5.75C5.07845 5.75 5.75 5.07845 5.75 4.25Z" fill="#D40511"/>
</svg>
