<svg width="116" height="16" viewBox="0 0 116 16" fill="none" xmlns="http://www.w3.org/2000/svg">
<path fill-rule="evenodd" clip-rule="evenodd" d="M16.8533 4.9013L20.5446 0C20.5446 0 36.8916 -6.19063e-07 41.7188 0.0405307C47.073 0.0405307 48.4528 4.21267 46.9513 6.19749L44.5175 9.43797H36.3241C34.7821 9.43797 35.2693 8.78988 35.5125 8.46579C35.8263 8.05618 36.2552 7.47447 36.6533 6.93394L36.6541 6.93289L36.6549 6.93159C36.9257 6.56446 37.1819 6.21638 37.3789 5.95446C37.9058 5.26584 37.9059 4.9013 36.8916 4.9013H16.8533ZM22.7344 6.11643L15.3518 15.9595C15.3518 15.9595 28.5353 15.9595 33.3219 16C39.2444 16 42.5709 12.0304 43.5851 10.6532H31.3348C29.8649 10.6532 30.2387 10.1007 30.4876 9.73328L30.4884 9.73304C30.4997 9.71529 30.5119 9.69786 30.5232 9.681C30.837 9.27155 31.2651 8.69033 31.6631 8.15013V8.14988V8.1494L31.6639 8.14932C31.9347 7.78121 32.1917 7.43216 32.3887 7.16959C32.9165 6.48105 32.9165 6.11643 31.9023 6.11643H22.7344ZM0.302734 10.6127H17.4208L16.5687 11.7468H0.302734V10.6127ZM15.839 12.719H0.302734V13.8531H14.9869L15.839 12.719ZM0.302734 14.8253H14.2564L13.4457 15.9595H0.302734V14.8253ZM115.303 15.9595H98.2252L99.0765 14.8253H115.303V15.9595ZM99.807 13.8531H115.303V12.719H100.659L99.807 13.8531ZM102.241 10.6127H115.303V11.7468H101.389L102.241 10.6127ZM57.6199 10.6127L53.6043 15.9595H43.0573L47.0729 10.6127H57.6199ZM68.856 15.9595L72.8724 10.6127H62.3255L58.3099 15.9595H68.856ZM76.3205 10.6127C76.3205 10.6127 75.5495 11.6658 75.1847 12.1519C73.8461 13.8937 75.0225 15.9595 79.3625 15.9595H96.3183L100.334 10.6127H76.3205ZM73.8056 9.39744H47.9656L55.0239 0H65.5709L61.5544 5.38735H66.26L70.317 0H80.8631L73.8056 9.39744ZM88.4087 9.39744L95.4662 0H84.2707L77.2124 9.39744H88.4087Z" fill="#D40511"/>
</svg>
