<svg width="48" height="48" viewBox="0 0 48 48" fill="none" xmlns="http://www.w3.org/2000/svg">
<path d="M35 32V19C35 18.444 34.9583 17.8978 34.8787 17.3639L20.2426 32H35Z" fill="black"/>
<path d="M36 34H18.2426L14.2426 38H38V36C38 34.8954 37.1046 34 36 34Z" fill="black"/>
<path d="M24 44C26.2092 44 28 42.2091 28 40H20C20 42.2091 21.7908 44 24 44Z" fill="black"/>
<path d="M39.8787 3.87869L32.1477 11.6097C30.7833 10.1063 29.0084 8.98229 27.0001 8.41419V6.99999C27.0001 5.34309 25.657 3.99999 24.0001 3.99999C22.3432 3.99999 21.0001 5.34309 21.0001 6.99999V8.41419C16.3831 9.72009 13.0001 13.9649 13.0001 19V30.7573L3.87866 39.8787L6.70706 42.7071L42.7071 6.70709L39.8787 3.87869Z" fill="black"/>
</svg>
