<svg width="43" height="43" viewBox="0 0 43 43" fill="none" xmlns="http://www.w3.org/2000/svg">
<rect x="1.05737" y="0.5" width="41.2951" height="41.2951" rx="20.6475" fill="white" stroke="#EEF1F6"/>
<rect x="39.7568" y="3.3197" width="6.04918" height="6.04918" rx="3.02459" transform="rotate(90 39.7568 3.3197)" fill="#FF6471" stroke="white"/>
<path fill-rule="evenodd" clip-rule="evenodd" d="M20.6094 25.5525C20.9175 25.9013 21.3129 26.093 21.7233 26.093H21.7239C22.136 26.093 22.5333 25.9013 22.8419 25.5519C22.9211 25.4625 23.0319 25.4087 23.1501 25.4024C23.2683 25.3961 23.384 25.4378 23.472 25.5183C23.5599 25.5988 23.6128 25.7115 23.619 25.8317C23.6252 25.9518 23.5842 26.0695 23.505 26.1589C23.0245 26.7013 22.3929 27 21.7239 27H21.7227C21.0566 26.9994 20.4251 26.7007 19.9463 26.1583C19.9072 26.1141 19.8771 26.0624 19.8576 26.0063C19.8381 25.9501 19.8297 25.8907 19.8328 25.8312C19.8359 25.7718 19.8505 25.7136 19.8758 25.6599C19.901 25.6062 19.9364 25.5581 19.9799 25.5183C20.0235 25.4785 20.0743 25.4478 20.1295 25.428C20.1847 25.4082 20.2432 25.3997 20.3016 25.4028C20.3601 25.406 20.4174 25.4208 20.4702 25.4465C20.523 25.4722 20.5703 25.5082 20.6094 25.5525ZM21.753 14C24.3964 14 26.1722 16.0933 26.1722 18.0481C26.1722 19.0537 26.4237 19.48 26.6907 19.9322C26.9548 20.3785 27.2539 20.8852 27.2539 21.8429C27.0464 24.29 24.5338 24.4895 21.753 24.4895C18.9722 24.4895 16.4591 24.29 16.2539 21.8816C16.2521 20.8852 16.5513 20.3785 16.8153 19.9322L16.9087 19.7726C17.1382 19.3717 17.3339 18.9352 17.3339 18.0481C17.3339 16.0933 19.1096 14 21.753 14ZM21.753 14.907C19.6746 14.907 18.2265 16.5625 18.2265 18.0481C18.2265 19.3052 17.8828 19.8863 17.5795 20.399C17.3363 20.8108 17.1442 21.1361 17.1442 21.8429C17.2435 22.9833 17.9839 23.5825 21.753 23.5825C25.5014 23.5825 26.2649 22.9567 26.3637 21.8036C26.3619 21.1361 26.1698 20.8108 25.9266 20.399C25.6233 19.8863 25.2801 19.3052 25.2801 18.0481C25.2801 16.5625 23.8315 14.907 21.7536 14.907H21.753Z" fill="#141736"/>
</svg>
