<svg width="50" height="43" viewBox="0 0 50 43" fill="none" xmlns="http://www.w3.org/2000/svg">
<path d="M41.2933 43C40.2994 43 39.6368 42.3357 39.6368 41.3392C39.6368 40.8409 39.8024 40.5087 40.1337 40.1765C48.5827 31.7053 48.5827 18.085 40.1337 9.61308C31.6847 1.14186 18.1002 1.14186 9.65052 9.61308C1.20153 18.0843 1.20153 31.7045 9.65052 40.1765C10.3131 40.8409 10.1475 42.0038 9.48487 42.5021C8.82227 43.0004 7.99401 43.0004 7.33098 42.5021C-2.44366 32.7018 -2.44366 16.9217 7.33098 7.28809C17.1056 -2.3461 32.8443 -2.51227 42.4526 7.28809C52.0615 17.0885 52.2272 32.8686 42.4526 42.5021C42.1217 42.8339 41.79 43 41.293 43L41.2933 43Z" fill="url(#paint0_linear_678_284)"/>
<path d="M34.3355 35.8574C33.3416 35.8574 32.679 35.027 32.679 34.1966C32.679 33.6983 32.8447 33.3661 33.176 33.0339C37.649 28.3831 37.649 21.074 33.0104 16.589C28.3717 12.1043 21.0818 12.1043 16.6086 16.7551C12.1356 21.2399 12.1356 28.5483 16.6086 33.0333C17.2712 33.6977 17.1056 34.8606 16.443 35.3589C15.7804 35.8572 14.9521 35.8572 14.2891 35.3589C8.49055 29.5451 8.49055 20.0777 14.2891 14.2634C20.0876 8.44963 29.5302 8.44963 35.3292 14.2634C41.1278 20.0772 41.1278 29.5446 35.3292 35.3589C34.9983 35.6907 34.6666 35.8568 34.3353 35.8568L34.3355 35.8574Z" fill="url(#paint1_linear_678_284)"/>
<path d="M28.3468 21.2261C30.2877 23.1721 30.2877 26.327 28.3468 28.273C26.4059 30.2191 23.2589 30.2191 21.318 28.273C19.3771 26.327 19.3771 23.1721 21.318 21.2261C23.2589 19.2801 26.4059 19.2801 28.3468 21.2261Z" fill="url(#paint2_linear_678_284)"/>
<defs>
<linearGradient id="paint0_linear_678_284" x1="24.8608" y1="0" x2="24.8608" y2="43" gradientUnits="userSpaceOnUse">
<stop stop-color="#3EB63C"/>
<stop offset="1" stop-color="#93F0DF"/>
</linearGradient>
<linearGradient id="paint1_linear_678_284" x1="24.8092" y1="9.90308" x2="24.8092" y2="35.8574" gradientUnits="userSpaceOnUse">
<stop stop-color="#3EB63C"/>
<stop offset="1" stop-color="#93F0DF"/>
</linearGradient>
<linearGradient id="paint2_linear_678_284" x1="24.8324" y1="19.7666" x2="24.8324" y2="29.7326" gradientUnits="userSpaceOnUse">
<stop stop-color="#3EB63C"/>
<stop offset="1" stop-color="#93F0DF"/>
</linearGradient>
</defs>
</svg>
