<svg width="24" height="20" viewBox="0 0 24 20" fill="none" xmlns="http://www.w3.org/2000/svg">
<path d="M19.2569 20.0002C18.7934 20.0002 18.4844 19.6912 18.4844 19.2277C18.4844 18.996 18.5617 18.8415 18.7162 18.687C22.6564 14.7468 22.6564 8.41175 18.7162 4.47125C14.776 0.531102 8.44098 0.531102 4.50048 4.47125C0.560328 8.41141 0.560328 14.7465 4.50048 18.687C4.80948 18.996 4.73223 19.5369 4.42323 19.7687C4.11423 20.0004 3.72798 20.0004 3.41877 19.7687C-1.13959 15.2103 -1.13959 7.87063 3.41877 3.38985C7.97714 -1.09122 15.3168 -1.16851 19.7976 3.38985C24.2787 7.94822 24.356 15.2879 19.7976 19.7687C19.6433 19.923 19.4886 20.0002 19.2568 20.0002L19.2569 20.0002Z" fill="white"/>
<path d="M16.0124 16.678C15.5489 16.678 15.2399 16.2918 15.2399 15.9055C15.2399 15.6738 15.3172 15.5193 15.4717 15.3647C17.5576 13.2015 17.5576 9.80192 15.3944 7.71586C13.2312 5.6299 9.8316 5.6299 7.74554 7.79311C5.65958 9.87907 5.65958 13.2784 7.74554 15.3645C8.05454 15.6735 7.97729 16.2144 7.66829 16.4462C7.35929 16.6779 6.97304 16.6779 6.66383 16.4462C3.95971 13.742 3.95971 9.33854 6.66383 6.63417C9.36796 3.93005 13.7714 3.93005 16.4758 6.63417C19.1799 9.33829 19.1799 13.7418 16.4758 16.4462C16.3215 16.6005 16.1668 16.6777 16.0123 16.6777L16.0124 16.678Z" fill="white"/>
<path d="M13.2194 9.8727C14.1246 10.7778 14.1246 12.2452 13.2194 13.1504C12.3143 14.0555 10.8467 14.0555 9.94155 13.1504C9.03641 12.2452 9.03641 10.7778 9.94155 9.8727C10.8467 8.96756 12.3143 8.96756 13.2194 9.8727Z" fill="white"/>
</svg>
