<svg width="24" height="25" viewBox="0 0 24 25" fill="none" xmlns="http://www.w3.org/2000/svg">
<g clip-path="url(#clip0_942_832)">
<path d="M2.66667 6.66667H0V0H6.66667V2.66667H2.66667V6.66667ZM24 17.3333H21.3333V21.3333H17.3333V24H24V17.3333ZM24 0H17.3333V2.66667H21.3333V6.66667H24V0ZM6.66667 21.3333H2.66667V17.3333H0V24H6.66667V21.3333ZM16.6667 17.3333H20V6.66667H16.6667V17.3333ZM11.3333 17.3333H15.3333V6.66667H11.3333V17.3333ZM8.66667 17.3333H10V6.66667H8.66667V17.3333ZM4 17.3333H7.33333V6.66667H4V17.3333Z" fill="white"/>
</g>
<defs>
<clipPath id="clip0_942_832">
<rect width="24" height="24" fill="white" transform="translate(0 0.0949707)"/>
</clipPath>
</defs>
</svg>
