<svg width="24" height="24" viewBox="0 0 24 24" fill="none" xmlns="http://www.w3.org/2000/svg">
<path d="M19.875 10.9H4.125C3.50366 10.9 3 11.3925 3 12V21.9C3 22.5075 3.50366 23 4.125 23H19.875C20.4963 23 21 22.5075 21 21.9V12C21 11.3925 20.4963 10.9 19.875 10.9ZM12.5625 16.299V19.7H11.4375V16.299C10.7836 16.0716 10.3125 15.4674 10.3125 14.75C10.3125 13.8387 11.068 13.1 12 13.1C12.932 13.1 13.6875 13.8387 13.6875 14.75C13.6875 15.4674 13.2164 16.0716 12.5625 16.299ZM8.625 9.8H6.375V6.5C6.375 3.4624 8.89342 1 12 1C15.1066 1 17.625 3.4624 17.625 6.5V9.8H15.375V6.5C15.375 4.67747 13.864 3.2 12 3.2C10.136 3.2 8.625 4.67747 8.625 6.5V9.8Z" fill="white"/>
</svg>
