<svg width="23" height="24" viewBox="0 0 23 24" fill="none" xmlns="http://www.w3.org/2000/svg">
<path d="M9.72973 4.54054H0L3.24324 0H9.72973V4.54054ZM17.5135 0H11.027V4.54054H20.7568L17.5135 0ZM17.1987 11.9905C18.502 11.9899 19.763 12.4526 20.7568 13.2958V5.83784H0V20.7568H12.738C12.1367 19.9342 11.7751 18.961 11.6934 17.9454C11.6117 16.9297 11.8131 15.9113 12.2752 15.0032C12.7373 14.0951 13.442 13.3328 14.3111 12.8009C15.1803 12.2691 16.1798 11.9886 17.1987 11.9905ZM24 23.0827L23.0827 24L19.8697 20.787C19.0427 21.4639 17.9907 21.8037 16.924 21.7386C15.8573 21.6734 14.8545 21.208 14.1161 20.4354C13.3777 19.6628 12.9581 18.64 12.9411 17.5715C12.9242 16.5029 13.3112 15.4674 14.0248 14.6718C14.7383 13.8762 15.7259 13.3793 16.79 13.2804C17.8541 13.1814 18.9163 13.4877 19.7643 14.1381C20.6124 14.7884 21.1837 15.7349 21.3641 16.7883C21.5444 17.8416 21.3206 18.9243 20.7373 19.8197L24 23.0827ZM19.7933 17.5135C19.7933 17.0004 19.6411 16.4987 19.3561 16.072C19.071 15.6454 18.6657 15.3128 18.1916 15.1164C17.7175 14.92 17.1958 14.8687 16.6925 14.9688C16.1892 15.0689 15.7269 15.316 15.3641 15.6789C15.0012 16.0417 14.7541 16.504 14.654 17.0073C14.5539 17.5106 14.6053 18.0323 14.8016 18.5064C14.998 18.9805 15.3306 19.3857 15.7572 19.6708C16.1839 19.9559 16.6856 20.1081 17.1987 20.1081C17.8869 20.1081 18.5468 19.8347 19.0334 19.3482C19.52 18.8616 19.7933 18.2016 19.7933 17.5135Z" fill="white"/>
</svg>
