<svg width="32" height="32" viewBox="0 0 32 32" fill="none" xmlns="http://www.w3.org/2000/svg">
<path fill-rule="evenodd" clip-rule="evenodd" d="M16 0C7.17729 0 0 7.17781 0 16C0 24.8222 7.17729 32 16 32C24.8227 32 32 24.8222 32 16C32 7.17781 24.8227 0 16 0ZM9.80664 13.9355C9.80664 10.5202 12.585 7.7419 16.0002 7.7419C19.4154 7.7419 22.1937 10.5202 22.1937 13.9355V15.4838C22.1937 18.8991 19.4154 21.6774 16.0002 21.6774C12.585 21.6774 9.80664 18.8991 9.80664 15.4838V13.9355ZM6.81836 27.808C9.35565 29.7853 12.5412 30.9677 15.9998 30.9677C19.4578 30.9677 22.6434 29.7858 25.1807 27.8085C23.6958 25.2852 21.0233 23.7419 18.0643 23.7419H13.9353C10.9727 23.7419 8.30017 25.2852 6.81836 27.808Z" fill="black"/>
</svg>
