<svg width="24" height="24" viewBox="0 0 24 24" fill="none" xmlns="http://www.w3.org/2000/svg">
<g clip-path="url(#clip0_336_2437)">
<path d="M20.5271 10.6717C20.618 10.3523 20.6666 10.0151 20.6666 9.66665C20.6666 7.64158 19.0249 5.99999 17 5.99999C16.8435 5.99999 16.6894 6.00986 16.5382 6.02886C16.6222 6.45085 16.6666 6.88699 16.6666 7.33332C16.6666 11.0093 13.676 14 9.99997 14V12.6666C12.9455 12.6666 15.3333 10.2788 15.3333 7.33332C15.3333 4.38779 12.9455 2 9.99997 2C7.05445 2 4.66665 4.38779 4.66665 7.33332C4.66665 7.79492 4.72532 8.24285 4.83559 8.66998C4.77952 8.66798 4.72325 8.66665 4.66665 8.66665C2.08933 8.66665 0 10.756 0 13.3333C0 15.9106 2.08933 18 4.66665 18C4.77219 18 20.3421 17.9998 20.3421 17.9998C20.5901 17.9992 20.8325 17.9741 21.0667 17.9266C22.7403 17.5868 24 16.1072 24 14.3332C24 12.3732 22.462 10.7725 20.5271 10.6717Z" fill="white"/>
</g>
<defs>
<clipPath id="clip0_336_2437">
<rect width="24" height="24" fill="white" transform="translate(0 -0.000244141)"/>
</clipPath>
</defs>
</svg>
