<svg width="30" height="17" viewBox="0 0 30 17" fill="none" xmlns="http://www.w3.org/2000/svg">
<path d="M2.99324 11.2098C3.04628 11.2098 3.095 11.214 3.14696 11.2182C2.94561 10.7127 2.83302 10.1632 2.83302 9.59063C2.83302 7.09642 4.92342 5.07425 7.5042 5.07425C8.21544 5.07425 8.88769 5.22916 9.49284 5.50339C10.4866 2.31942 13.5437 0 17.1616 0C21.5859 0 25.1713 3.46761 25.1713 7.74535C25.1713 7.82176 25.167 7.89503 25.167 7.96829H25.1713C27.751 7.96829 29.8425 9.98941 29.8425 12.4836C29.8425 14.9778 27.751 17 25.1713 17H2.99432C1.34127 17 0 15.7042 0 14.1039C0 12.5035 1.34127 11.2088 2.99432 11.2088L2.99324 11.2098Z" fill="url(#paint0_linear_678_296)"/>
<defs>
<linearGradient id="paint0_linear_678_296" x1="14.9207" y1="26.5163" x2="14.9207" y2="-5.96183" gradientUnits="userSpaceOnUse">
<stop stop-color="#67C3EC"/>
<stop offset="1" stop-color="#54BCEA"/>
</linearGradient>
</defs>
</svg>
